<svg width="121" height="120" viewBox="0 0 121 120" fill="none" xmlns="http://www.w3.org/2000/svg">
<g clip-path="url(#clip0_4128_92559)">
<g opacity="0.1">
<path d="M0.0552304 -2.6665H0.795971V2.51868H0.0552304V-2.6665Z" fill="#2C2C34"/>
<path d="M3.01819 -0.444281V0.296459H-2.16699L-2.16699 -0.444281H3.01819Z" fill="#2C2C34"/>
<path d="M5.98113 -2.66656H6.72187V2.51862H5.98113V-2.66656Z" fill="#2C2C34"/>
<path d="M8.9441 -0.444342V0.296398H3.75891L3.75891 -0.444342H8.9441Z" fill="#2C2C34"/>
<path d="M11.9069 -2.66656H12.6477V2.51862H11.9069V-2.66656Z" fill="#2C2C34"/>
<path d="M14.8699 -0.444342V0.296398H9.68469L9.68469 -0.444342H14.8699Z" fill="#2C2C34"/>
<path d="M17.8332 -2.66656H18.5739V2.51862H17.8332V-2.66656Z" fill="#2C2C34"/>
<path d="M20.7961 -0.444342V0.296398H15.611L15.611 -0.444342H20.7961Z" fill="#2C2C34"/>
<path d="M23.759 -2.66656H24.4997V2.51862H23.759V-2.66656Z" fill="#2C2C34"/>
<path d="M26.7219 -0.444342V0.296398H21.5367L21.5367 -0.444342H26.7219Z" fill="#2C2C34"/>
<path d="M29.6847 -2.66656H30.4255V2.51862H29.6847V-2.66656Z" fill="#2C2C34"/>
<path d="M32.6477 -0.444342V0.296398H27.4625L27.4625 -0.444342H32.6477Z" fill="#2C2C34"/>
<path d="M35.6107 -2.66656H36.3514V2.51862H35.6107V-2.66656Z" fill="#2C2C34"/>
<path d="M38.5737 -0.444342V0.296398H33.3885L33.3885 -0.444342H38.5737Z" fill="#2C2C34"/>
<path d="M41.5368 -2.66656H42.2775V2.51862H41.5368V-2.66656Z" fill="#2C2C34"/>
<path d="M44.4998 -0.444342V0.296398H39.3146L39.3146 -0.444342H44.4998Z" fill="#2C2C34"/>
<path d="M47.4626 -2.66656H48.2033V2.51862H47.4626V-2.66656Z" fill="#2C2C34"/>
<path d="M50.4255 -0.444342V0.296398H45.2404L45.2404 -0.444342H50.4255Z" fill="#2C2C34"/>
<path d="M53.3885 -2.66656H54.1293V2.51862H53.3885V-2.66656Z" fill="#2C2C34"/>
<path d="M56.3515 -0.444342V0.296398H51.1663L51.1663 -0.444342H56.3515Z" fill="#2C2C34"/>
<path d="M59.3146 -2.66656H60.0554V2.51862H59.3146V-2.66656Z" fill="#2C2C34"/>
<path d="M62.2776 -0.444342V0.296398H57.0924L57.0924 -0.444342H62.2776Z" fill="#2C2C34"/>
<path d="M65.2403 -2.66656H65.981V2.51862H65.2403V-2.66656Z" fill="#2C2C34"/>
<path d="M68.2032 -0.444342V0.296398H63.018L63.018 -0.444342H68.2032Z" fill="#2C2C34"/>
<path d="M71.1663 -2.66656H71.9071V2.51862H71.1663V-2.66656Z" fill="#2C2C34"/>
<path d="M74.1293 -0.444342V0.296398H68.9441L68.9441 -0.444342H74.1293Z" fill="#2C2C34"/>
<path d="M77.0925 -2.66656H77.8332V2.51862H77.0925V-2.66656Z" fill="#2C2C34"/>
<path d="M80.0554 -0.444342V0.296398H74.8702L74.8702 -0.444342H80.0554Z" fill="#2C2C34"/>
<path d="M83.0182 -2.6665H83.759V2.51868H83.0182V-2.6665Z" fill="#2C2C34"/>
<path d="M85.9812 -0.444281V0.296459H80.796L80.796 -0.444281H85.9812Z" fill="#2C2C34"/>
<path d="M88.944 -2.66656H89.6848V2.51862H88.944V-2.66656Z" fill="#2C2C34"/>
<path d="M91.907 -0.444342V0.296398H86.7218L86.7218 -0.444342H91.907Z" fill="#2C2C34"/>
<path d="M94.87 -2.66656H95.6107V2.51862H94.87V-2.66656Z" fill="#2C2C34"/>
<path d="M97.8329 -0.444342V0.296398H92.6477L92.6477 -0.444342H97.8329Z" fill="#2C2C34"/>
<path d="M100.796 -2.66656H101.537V2.51862H100.796V-2.66656Z" fill="#2C2C34"/>
<path d="M103.759 -0.444342V0.296398H98.5737L98.5737 -0.444342H103.759Z" fill="#2C2C34"/>
<path d="M106.722 -2.66656H107.463V2.51862H106.722V-2.66656Z" fill="#2C2C34"/>
<path d="M109.685 -0.444342V0.296398H104.5L104.5 -0.444342H109.685Z" fill="#2C2C34"/>
<path d="M112.648 -2.66656H113.389V2.51862H112.648V-2.66656Z" fill="#2C2C34"/>
<path d="M115.611 -0.444342V0.296398H110.426L110.426 -0.444342H115.611Z" fill="#2C2C34"/>
<path d="M118.574 -2.66656H119.314V2.51862H118.574V-2.66656Z" fill="#2C2C34"/>
<path d="M121.537 -0.444342V0.296398H116.352L116.352 -0.444342H121.537Z" fill="#2C2C34"/>
<path d="M0.0551846 3.2594H0.795925V8.44459H0.0551846V3.2594Z" fill="#2C2C34"/>
<path d="M3.01815 5.48162V6.22236H-2.16704L-2.16704 5.48162H3.01815Z" fill="#2C2C34"/>
<path d="M5.98109 3.2594H6.72183V8.44459H5.98109V3.2594Z" fill="#2C2C34"/>
<path d="M8.94405 5.48162V6.22236H3.75887L3.75887 5.48162H8.94405Z" fill="#2C2C34"/>
<path d="M11.9069 3.2594H12.6476V8.44459H11.9069V3.2594Z" fill="#2C2C34"/>
<path d="M14.8698 5.48162V6.22236H9.68465L9.68465 5.48162H14.8698Z" fill="#2C2C34"/>
<path d="M17.8331 3.2594H18.5739V8.44459H17.8331V3.2594Z" fill="#2C2C34"/>
<path d="M20.7961 5.48162V6.22236H15.6109L15.6109 5.48162H20.7961Z" fill="#2C2C34"/>
<path d="M23.7589 3.2594H24.4997V8.44459H23.7589V3.2594Z" fill="#2C2C34"/>
<path d="M26.7219 5.48162V6.22236H21.5367L21.5367 5.48162H26.7219Z" fill="#2C2C34"/>
<path d="M29.6847 3.2594H30.4254V8.44459H29.6847V3.2594Z" fill="#2C2C34"/>
<path d="M32.6477 5.48162V6.22236H27.4625L27.4625 5.48162H32.6477Z" fill="#2C2C34"/>
<path d="M35.6107 3.2594H36.3514V8.44459H35.6107V3.2594Z" fill="#2C2C34"/>
<path d="M38.5736 5.48162V6.22236H33.3884L33.3884 5.48162H38.5736Z" fill="#2C2C34"/>
<path d="M41.5368 3.2594H42.2775V8.44459H41.5368V3.2594Z" fill="#2C2C34"/>
<path d="M44.4997 5.48162V6.22236H39.3145L39.3145 5.48162H44.4997Z" fill="#2C2C34"/>
<path d="M47.4625 3.2594H48.2033V8.44459H47.4625V3.2594Z" fill="#2C2C34"/>
<path d="M50.4255 5.48162V6.22236H45.2403L45.2403 5.48162H50.4255Z" fill="#2C2C34"/>
<path d="M53.3885 3.2594H54.1292V8.44459H53.3885V3.2594Z" fill="#2C2C34"/>
<path d="M56.3514 5.48162V6.22236H51.1663L51.1663 5.48162H56.3514Z" fill="#2C2C34"/>
<path d="M59.3146 3.2594H60.0553V8.44459H59.3146V3.2594Z" fill="#2C2C34"/>
<path d="M62.2775 5.48162V6.22236H57.0924L57.0924 5.48162H62.2775Z" fill="#2C2C34"/>
<path d="M65.2402 3.2594H65.9809V8.44459H65.2402V3.2594Z" fill="#2C2C34"/>
<path d="M68.2032 5.48162V6.22236H63.018L63.018 5.48162H68.2032Z" fill="#2C2C34"/>
<path d="M71.1663 3.2594H71.9071V8.44459H71.1663V3.2594Z" fill="#2C2C34"/>
<path d="M74.1293 5.48162V6.22236H68.9441L68.9441 5.48162H74.1293Z" fill="#2C2C34"/>
<path d="M77.0924 3.2594H77.8332V8.44459H77.0924V3.2594Z" fill="#2C2C34"/>
<path d="M80.0554 5.48162V6.22236H74.8702L74.8702 5.48162H80.0554Z" fill="#2C2C34"/>
<path d="M83.0182 3.2594H83.7589V8.44459H83.0182V3.2594Z" fill="#2C2C34"/>
<path d="M85.9811 5.48162V6.22236H80.7959L80.7959 5.48162H85.9811Z" fill="#2C2C34"/>
<path d="M88.944 3.2594H89.6847V8.44459H88.944V3.2594Z" fill="#2C2C34"/>
<path d="M91.9069 5.48162V6.22236H86.7218L86.7218 5.48162H91.9069Z" fill="#2C2C34"/>
<path d="M94.8699 3.2594H95.6107V8.44459H94.8699V3.2594Z" fill="#2C2C34"/>
<path d="M97.8329 5.48162V6.22236H92.6477L92.6477 5.48162H97.8329Z" fill="#2C2C34"/>
<path d="M100.796 3.2594H101.537V8.44459H100.796V3.2594Z" fill="#2C2C34"/>
<path d="M103.759 5.48162V6.22236H98.5736L98.5736 5.48162H103.759Z" fill="#2C2C34"/>
<path d="M106.722 3.2594H107.463V8.44459H106.722V3.2594Z" fill="#2C2C34"/>
<path d="M109.685 5.48162V6.22236H104.5L104.5 5.48162H109.685Z" fill="#2C2C34"/>
<path d="M112.648 3.2594H113.389V8.44459H112.648V3.2594Z" fill="#2C2C34"/>
<path d="M115.611 5.48162V6.22236H110.426L110.426 5.48162H115.611Z" fill="#2C2C34"/>
<path d="M118.574 3.2594H119.314V8.44459H118.574V3.2594Z" fill="#2C2C34"/>
<path d="M121.537 5.48162V6.22236H116.351L116.351 5.48162H121.537Z" fill="#2C2C34"/>
<path d="M0.0551846 9.18536H0.795925V14.3705H0.0551846V9.18536Z" fill="#2C2C34"/>
<path d="M3.01815 11.4076V12.1483H-2.16704L-2.16704 11.4076H3.01815Z" fill="#2C2C34"/>
<path d="M5.98109 9.18542H6.72183V14.3706H5.98109V9.18542Z" fill="#2C2C34"/>
<path d="M8.94405 11.4076V12.1484H3.75887L3.75887 11.4076H8.94405Z" fill="#2C2C34"/>
<path d="M11.9069 9.18542H12.6476V14.3706H11.9069V9.18542Z" fill="#2C2C34"/>
<path d="M14.8698 11.4076V12.1484H9.68465L9.68465 11.4076H14.8698Z" fill="#2C2C34"/>
<path d="M17.8331 9.18542H18.5739V14.3706H17.8331V9.18542Z" fill="#2C2C34"/>
<path d="M20.7961 11.4076V12.1484H15.6109L15.6109 11.4076H20.7961Z" fill="#2C2C34"/>
<path d="M23.7589 9.18542H24.4997V14.3706H23.7589V9.18542Z" fill="#2C2C34"/>
<path d="M26.7219 11.4076V12.1484H21.5367L21.5367 11.4076H26.7219Z" fill="#2C2C34"/>
<path d="M29.6847 9.18542H30.4254V14.3706H29.6847V9.18542Z" fill="#2C2C34"/>
<path d="M32.6477 11.4076V12.1484H27.4625L27.4625 11.4076H32.6477Z" fill="#2C2C34"/>
<path d="M35.6107 9.18542H36.3514V14.3706H35.6107V9.18542Z" fill="#2C2C34"/>
<path d="M38.5736 11.4076V12.1484H33.3884L33.3884 11.4076H38.5736Z" fill="#2C2C34"/>
<path d="M41.5368 9.18542H42.2775V14.3706H41.5368V9.18542Z" fill="#2C2C34"/>
<path d="M44.4997 11.4076V12.1484H39.3145L39.3145 11.4076H44.4997Z" fill="#2C2C34"/>
<path d="M47.4625 9.18542H48.2033V14.3706H47.4625V9.18542Z" fill="#2C2C34"/>
<path d="M50.4255 11.4076V12.1484H45.2403L45.2403 11.4076H50.4255Z" fill="#2C2C34"/>
<path d="M53.3885 9.18542H54.1292V14.3706H53.3885V9.18542Z" fill="#2C2C34"/>
<path d="M56.3514 11.4076V12.1484H51.1663L51.1663 11.4076H56.3514Z" fill="#2C2C34"/>
<path d="M59.3146 9.18542H60.0553V14.3706H59.3146V9.18542Z" fill="#2C2C34"/>
<path d="M62.2775 11.4076V12.1484H57.0924L57.0924 11.4076H62.2775Z" fill="#2C2C34"/>
<path d="M65.2402 9.18542H65.9809V14.3706H65.2402V9.18542Z" fill="#2C2C34"/>
<path d="M68.2032 11.4076V12.1484H63.018L63.018 11.4076H68.2032Z" fill="#2C2C34"/>
<path d="M71.1663 9.18542H71.9071V14.3706H71.1663V9.18542Z" fill="#2C2C34"/>
<path d="M74.1293 11.4076V12.1484H68.9441L68.9441 11.4076H74.1293Z" fill="#2C2C34"/>
<path d="M77.0924 9.18542H77.8332V14.3706H77.0924V9.18542Z" fill="#2C2C34"/>
<path d="M80.0554 11.4076V12.1484H74.8702L74.8702 11.4076H80.0554Z" fill="#2C2C34"/>
<path d="M83.0182 9.18536H83.7589V14.3705H83.0182V9.18536Z" fill="#2C2C34"/>
<path d="M85.9811 11.4076V12.1483H80.7959L80.7959 11.4076H85.9811Z" fill="#2C2C34"/>
<path d="M88.944 9.18542H89.6847V14.3706H88.944V9.18542Z" fill="#2C2C34"/>
<path d="M91.9069 11.4076V12.1484H86.7218L86.7218 11.4076H91.9069Z" fill="#2C2C34"/>
<path d="M94.8699 9.18542H95.6107V14.3706H94.8699V9.18542Z" fill="#2C2C34"/>
<path d="M97.8329 11.4076V12.1484H92.6477L92.6477 11.4076H97.8329Z" fill="#2C2C34"/>
<path d="M100.796 9.18542H101.537V14.3706H100.796V9.18542Z" fill="#2C2C34"/>
<path d="M103.759 11.4076V12.1484H98.5736L98.5736 11.4076H103.759Z" fill="#2C2C34"/>
<path d="M106.722 9.18542H107.463V14.3706H106.722V9.18542Z" fill="#2C2C34"/>
<path d="M109.685 11.4076V12.1484H104.5L104.5 11.4076H109.685Z" fill="#2C2C34"/>
<path d="M112.648 9.18542H113.389V14.3706H112.648V9.18542Z" fill="#2C2C34"/>
<path d="M115.611 11.4076V12.1484H110.426L110.426 11.4076H115.611Z" fill="#2C2C34"/>
<path d="M118.574 9.18542H119.314V14.3706H118.574V9.18542Z" fill="#2C2C34"/>
<path d="M121.537 11.4076V12.1484H116.351L116.351 11.4076H121.537Z" fill="#2C2C34"/>
<path d="M0.0551846 15.1113H0.795925V20.2965H0.0551846V15.1113Z" fill="#2C2C34"/>
<path d="M3.01815 17.3335V18.0742H-2.16704L-2.16704 17.3335H3.01815Z" fill="#2C2C34"/>
<path d="M5.98109 15.1112H6.72183V20.2964H5.98109V15.1112Z" fill="#2C2C34"/>
<path d="M8.94405 17.3334V18.0742H3.75887L3.75887 17.3334H8.94405Z" fill="#2C2C34"/>
<path d="M11.9069 15.1112H12.6476V20.2964H11.9069V15.1112Z" fill="#2C2C34"/>
<path d="M14.8698 17.3334V18.0742H9.68465L9.68465 17.3334H14.8698Z" fill="#2C2C34"/>
<path d="M17.8331 15.1112H18.5739V20.2964H17.8331V15.1112Z" fill="#2C2C34"/>
<path d="M20.7961 17.3334V18.0742H15.6109L15.6109 17.3334H20.7961Z" fill="#2C2C34"/>
<path d="M23.7589 15.1112H24.4997V20.2964H23.7589V15.1112Z" fill="#2C2C34"/>
<path d="M26.7219 17.3334V18.0742H21.5367L21.5367 17.3334H26.7219Z" fill="#2C2C34"/>
<path d="M29.6847 15.1112H30.4254V20.2964H29.6847V15.1112Z" fill="#2C2C34"/>
<path d="M32.6477 17.3334V18.0742H27.4625L27.4625 17.3334H32.6477Z" fill="#2C2C34"/>
<path d="M35.6107 15.1112H36.3514V20.2964H35.6107V15.1112Z" fill="#2C2C34"/>
<path d="M38.5736 17.3334V18.0742H33.3884L33.3884 17.3334H38.5736Z" fill="#2C2C34"/>
<path d="M41.5368 15.1112H42.2775V20.2964H41.5368V15.1112Z" fill="#2C2C34"/>
<path d="M44.4997 17.3334V18.0742H39.3145L39.3145 17.3334H44.4997Z" fill="#2C2C34"/>
<path d="M47.4625 15.1112H48.2033V20.2964H47.4625V15.1112Z" fill="#2C2C34"/>
<path d="M50.4255 17.3334V18.0742H45.2403L45.2403 17.3334H50.4255Z" fill="#2C2C34"/>
<path d="M53.3885 15.1112H54.1292V20.2964H53.3885V15.1112Z" fill="#2C2C34"/>
<path d="M56.3514 17.3334V18.0742H51.1663L51.1663 17.3334H56.3514Z" fill="#2C2C34"/>
<path d="M59.3146 15.1112H60.0553V20.2964H59.3146V15.1112Z" fill="#2C2C34"/>
<path d="M62.2775 17.3334V18.0742H57.0924L57.0924 17.3334H62.2775Z" fill="#2C2C34"/>
<path d="M65.2402 15.1112H65.9809V20.2964H65.2402V15.1112Z" fill="#2C2C34"/>
<path d="M68.2032 17.3334V18.0742H63.018L63.018 17.3334H68.2032Z" fill="#2C2C34"/>
<path d="M71.1663 15.1112H71.9071V20.2964H71.1663V15.1112Z" fill="#2C2C34"/>
<path d="M74.1293 17.3334V18.0742H68.9441L68.9441 17.3334H74.1293Z" fill="#2C2C34"/>
<path d="M77.0924 15.1112H77.8332V20.2964H77.0924V15.1112Z" fill="#2C2C34"/>
<path d="M80.0554 17.3334V18.0742H74.8702L74.8702 17.3334H80.0554Z" fill="#2C2C34"/>
<path d="M83.0182 15.1113H83.7589V20.2965H83.0182V15.1113Z" fill="#2C2C34"/>
<path d="M85.9811 17.3335V18.0742H80.7959L80.7959 17.3335H85.9811Z" fill="#2C2C34"/>
<path d="M88.944 15.1112H89.6847V20.2964H88.944V15.1112Z" fill="#2C2C34"/>
<path d="M91.9069 17.3334V18.0742H86.7218L86.7218 17.3334H91.9069Z" fill="#2C2C34"/>
<path d="M94.8699 15.1112H95.6107V20.2964H94.8699V15.1112Z" fill="#2C2C34"/>
<path d="M97.8329 17.3334V18.0742H92.6477L92.6477 17.3334H97.8329Z" fill="#2C2C34"/>
<path d="M100.796 15.1112H101.537V20.2964H100.796V15.1112Z" fill="#2C2C34"/>
<path d="M103.759 17.3334V18.0742H98.5736L98.5736 17.3334H103.759Z" fill="#2C2C34"/>
<path d="M106.722 15.1112H107.463V20.2964H106.722V15.1112Z" fill="#2C2C34"/>
<path d="M109.685 17.3334V18.0742H104.5L104.5 17.3334H109.685Z" fill="#2C2C34"/>
<path d="M112.648 15.1112H113.389V20.2964H112.648V15.1112Z" fill="#2C2C34"/>
<path d="M115.611 17.3334V18.0742H110.426L110.426 17.3334H115.611Z" fill="#2C2C34"/>
<path d="M118.574 15.1112H119.314V20.2964H118.574V15.1112Z" fill="#2C2C34"/>
<path d="M121.537 17.3334V18.0742H116.351L116.351 17.3334H121.537Z" fill="#2C2C34"/>
<path d="M0.0551846 21.0372H0.795925V26.2224H0.0551846V21.0372Z" fill="#2C2C34"/>
<path d="M3.01815 23.2595V24.0002H-2.16704L-2.16704 23.2595H3.01815Z" fill="#2C2C34"/>
<path d="M5.98109 21.0372H6.72183V26.2224H5.98109V21.0372Z" fill="#2C2C34"/>
<path d="M8.94405 23.2595V24.0002H3.75887L3.75887 23.2595H8.94405Z" fill="#2C2C34"/>
<path d="M11.9069 21.0372H12.6476V26.2224H11.9069V21.0372Z" fill="#2C2C34"/>
<path d="M14.8698 23.2595V24.0002H9.68465L9.68465 23.2595H14.8698Z" fill="#2C2C34"/>
<path d="M17.8331 21.0372H18.5739V26.2224H17.8331V21.0372Z" fill="#2C2C34"/>
<path d="M20.7961 23.2595V24.0002H15.6109L15.6109 23.2595H20.7961Z" fill="#2C2C34"/>
<path d="M23.7589 21.0372H24.4997V26.2224H23.7589V21.0372Z" fill="#2C2C34"/>
<path d="M26.7219 23.2595V24.0002H21.5367L21.5367 23.2595H26.7219Z" fill="#2C2C34"/>
<path d="M29.6847 21.0372H30.4254V26.2224H29.6847V21.0372Z" fill="#2C2C34"/>
<path d="M32.6477 23.2595V24.0002H27.4625L27.4625 23.2595H32.6477Z" fill="#2C2C34"/>
<path d="M35.6107 21.0372H36.3514V26.2224H35.6107V21.0372Z" fill="#2C2C34"/>
<path d="M38.5736 23.2595V24.0002H33.3884L33.3884 23.2595H38.5736Z" fill="#2C2C34"/>
<path d="M41.5368 21.0372H42.2775V26.2224H41.5368V21.0372Z" fill="#2C2C34"/>
<path d="M44.4997 23.2595V24.0002H39.3145L39.3145 23.2595H44.4997Z" fill="#2C2C34"/>
<path d="M47.4625 21.0372H48.2033V26.2224H47.4625V21.0372Z" fill="#2C2C34"/>
<path d="M50.4255 23.2595V24.0002H45.2403L45.2403 23.2595H50.4255Z" fill="#2C2C34"/>
<path d="M53.3885 21.0372H54.1292V26.2224H53.3885V21.0372Z" fill="#2C2C34"/>
<path d="M56.3514 23.2595V24.0002H51.1663L51.1663 23.2595H56.3514Z" fill="#2C2C34"/>
<path d="M59.3146 21.0372H60.0553V26.2224H59.3146V21.0372Z" fill="#2C2C34"/>
<path d="M62.2775 23.2595V24.0002H57.0924L57.0924 23.2595H62.2775Z" fill="#2C2C34"/>
<path d="M65.2402 21.0372H65.9809V26.2224H65.2402V21.0372Z" fill="#2C2C34"/>
<path d="M68.2032 23.2595V24.0002H63.018L63.018 23.2595H68.2032Z" fill="#2C2C34"/>
<path d="M71.1663 21.0372H71.9071V26.2224H71.1663V21.0372Z" fill="#2C2C34"/>
<path d="M74.1293 23.2595V24.0002H68.9441L68.9441 23.2595H74.1293Z" fill="#2C2C34"/>
<path d="M77.0924 21.0372H77.8332V26.2224H77.0924V21.0372Z" fill="#2C2C34"/>
<path d="M80.0554 23.2595V24.0002H74.8702L74.8702 23.2595H80.0554Z" fill="#2C2C34"/>
<path d="M83.0182 21.0372H83.7589V26.2224H83.0182V21.0372Z" fill="#2C2C34"/>
<path d="M85.9811 23.2595V24.0002H80.7959L80.7959 23.2595H85.9811Z" fill="#2C2C34"/>
<path d="M88.944 21.0372H89.6847V26.2224H88.944V21.0372Z" fill="#2C2C34"/>
<path d="M91.9069 23.2595V24.0002H86.7218L86.7218 23.2595H91.9069Z" fill="#2C2C34"/>
<path d="M94.8699 21.0372H95.6107V26.2224H94.8699V21.0372Z" fill="#2C2C34"/>
<path d="M97.8329 23.2595V24.0002H92.6477L92.6477 23.2595H97.8329Z" fill="#2C2C34"/>
<path d="M100.796 21.0372H101.537V26.2224H100.796V21.0372Z" fill="#2C2C34"/>
<path d="M103.759 23.2595V24.0002H98.5736L98.5736 23.2595H103.759Z" fill="#2C2C34"/>
<path d="M106.722 21.0372H107.463V26.2224H106.722V21.0372Z" fill="#2C2C34"/>
<path d="M109.685 23.2595V24.0002H104.5L104.5 23.2595H109.685Z" fill="#2C2C34"/>
<path d="M112.648 21.0372H113.389V26.2224H112.648V21.0372Z" fill="#2C2C34"/>
<path d="M115.611 23.2595V24.0002H110.426L110.426 23.2595H115.611Z" fill="#2C2C34"/>
<path d="M118.574 21.0372H119.314V26.2224H118.574V21.0372Z" fill="#2C2C34"/>
<path d="M121.537 23.2595V24.0002H116.351L116.351 23.2595H121.537Z" fill="#2C2C34"/>
<path d="M0.0551846 26.963H0.795925V32.1482H0.0551846V26.963Z" fill="#2C2C34"/>
<path d="M3.01815 29.1852V29.926H-2.16704L-2.16704 29.1852H3.01815Z" fill="#2C2C34"/>
<path d="M5.98109 26.963H6.72183V32.1482H5.98109V26.963Z" fill="#2C2C34"/>
<path d="M8.94405 29.1852V29.926H3.75887L3.75887 29.1852H8.94405Z" fill="#2C2C34"/>
<path d="M11.9069 26.963H12.6476V32.1482H11.9069V26.963Z" fill="#2C2C34"/>
<path d="M14.8698 29.1852V29.926H9.68465L9.68465 29.1852H14.8698Z" fill="#2C2C34"/>
<path d="M17.8331 26.963H18.5739V32.1482H17.8331V26.963Z" fill="#2C2C34"/>
<path d="M20.7961 29.1852V29.926H15.6109L15.6109 29.1852H20.7961Z" fill="#2C2C34"/>
<path d="M23.7589 26.963H24.4997V32.1482H23.7589V26.963Z" fill="#2C2C34"/>
<path d="M26.7219 29.1852V29.926H21.5367L21.5367 29.1852H26.7219Z" fill="#2C2C34"/>
<path d="M29.6847 26.963H30.4254V32.1482H29.6847V26.963Z" fill="#2C2C34"/>
<path d="M32.6477 29.1852V29.926H27.4625L27.4625 29.1852H32.6477Z" fill="#2C2C34"/>
<path d="M35.6107 26.963H36.3514V32.1482H35.6107V26.963Z" fill="#2C2C34"/>
<path d="M38.5736 29.1852V29.926H33.3884L33.3884 29.1852H38.5736Z" fill="#2C2C34"/>
<path d="M41.5368 26.963H42.2775V32.1482H41.5368V26.963Z" fill="#2C2C34"/>
<path d="M44.4997 29.1852V29.926H39.3145L39.3145 29.1852H44.4997Z" fill="#2C2C34"/>
<path d="M47.4625 26.963H48.2033V32.1482H47.4625V26.963Z" fill="#2C2C34"/>
<path d="M50.4255 29.1852V29.926H45.2403L45.2403 29.1852H50.4255Z" fill="#2C2C34"/>
<path d="M53.3885 26.963H54.1292V32.1482H53.3885V26.963Z" fill="#2C2C34"/>
<path d="M56.3514 29.1852V29.926H51.1663L51.1663 29.1852H56.3514Z" fill="#2C2C34"/>
<path d="M59.3146 26.963H60.0553V32.1482H59.3146V26.963Z" fill="#2C2C34"/>
<path d="M62.2775 29.1852V29.926H57.0924L57.0924 29.1852H62.2775Z" fill="#2C2C34"/>
<path d="M65.2402 26.963H65.9809V32.1482H65.2402V26.963Z" fill="#2C2C34"/>
<path d="M68.2032 29.1852V29.926H63.018L63.018 29.1852H68.2032Z" fill="#2C2C34"/>
<path d="M71.1663 26.963H71.9071V32.1482H71.1663V26.963Z" fill="#2C2C34"/>
<path d="M74.1293 29.1852V29.926H68.9441L68.9441 29.1852H74.1293Z" fill="#2C2C34"/>
<path d="M77.0924 26.963H77.8332V32.1482H77.0924V26.963Z" fill="#2C2C34"/>
<path d="M80.0554 29.1852V29.926H74.8702L74.8702 29.1852H80.0554Z" fill="#2C2C34"/>
<path d="M83.0182 26.963H83.7589V32.1482H83.0182V26.963Z" fill="#2C2C34"/>
<path d="M85.9811 29.1852V29.926H80.7959L80.7959 29.1852H85.9811Z" fill="#2C2C34"/>
<path d="M88.944 26.963H89.6847V32.1482H88.944V26.963Z" fill="#2C2C34"/>
<path d="M91.9069 29.1852V29.926H86.7218L86.7218 29.1852H91.9069Z" fill="#2C2C34"/>
<path d="M94.8699 26.963H95.6107V32.1482H94.8699V26.963Z" fill="#2C2C34"/>
<path d="M97.8329 29.1852V29.926H92.6477L92.6477 29.1852H97.8329Z" fill="#2C2C34"/>
<path d="M100.796 26.963H101.537V32.1482H100.796V26.963Z" fill="#2C2C34"/>
<path d="M103.759 29.1852V29.926H98.5736L98.5736 29.1852H103.759Z" fill="#2C2C34"/>
<path d="M106.722 26.963H107.463V32.1482H106.722V26.963Z" fill="#2C2C34"/>
<path d="M109.685 29.1852V29.926H104.5L104.5 29.1852H109.685Z" fill="#2C2C34"/>
<path d="M112.648 26.963H113.389V32.1482H112.648V26.963Z" fill="#2C2C34"/>
<path d="M115.611 29.1852V29.926H110.426L110.426 29.1852H115.611Z" fill="#2C2C34"/>
<path d="M118.574 26.963H119.314V32.1482H118.574V26.963Z" fill="#2C2C34"/>
<path d="M121.537 29.1852V29.926H116.351L116.351 29.1852H121.537Z" fill="#2C2C34"/>
<path d="M0.0551846 32.8891H0.795925V38.0743H0.0551846V32.8891Z" fill="#2C2C34"/>
<path d="M3.01815 35.1113V35.8521H-2.16704L-2.16704 35.1113H3.01815Z" fill="#2C2C34"/>
<path d="M5.98109 32.8892H6.72183V38.0743H5.98109V32.8892Z" fill="#2C2C34"/>
<path d="M8.94405 35.1114V35.8521H3.75887L3.75887 35.1114H8.94405Z" fill="#2C2C34"/>
<path d="M11.9069 32.8892H12.6476V38.0743H11.9069V32.8892Z" fill="#2C2C34"/>
<path d="M14.8698 35.1114V35.8521H9.68465L9.68465 35.1114H14.8698Z" fill="#2C2C34"/>
<path d="M17.8331 32.8892H18.5739V38.0743H17.8331V32.8892Z" fill="#2C2C34"/>
<path d="M20.7961 35.1114V35.8521H15.6109L15.6109 35.1114H20.7961Z" fill="#2C2C34"/>
<path d="M23.7589 32.8892H24.4997V38.0743H23.7589V32.8892Z" fill="#2C2C34"/>
<path d="M26.7219 35.1114V35.8521H21.5367L21.5367 35.1114H26.7219Z" fill="#2C2C34"/>
<path d="M29.6847 32.8892H30.4254V38.0743H29.6847V32.8892Z" fill="#2C2C34"/>
<path d="M32.6477 35.1114V35.8521H27.4625L27.4625 35.1114H32.6477Z" fill="#2C2C34"/>
<path d="M35.6107 32.8892H36.3514V38.0743H35.6107V32.8892Z" fill="#2C2C34"/>
<path d="M38.5736 35.1114V35.8521H33.3884L33.3884 35.1114H38.5736Z" fill="#2C2C34"/>
<path d="M41.5368 32.8892H42.2775V38.0743H41.5368V32.8892Z" fill="#2C2C34"/>
<path d="M44.4997 35.1114V35.8521H39.3145L39.3145 35.1114H44.4997Z" fill="#2C2C34"/>
<path d="M47.4625 32.8892H48.2033V38.0743H47.4625V32.8892Z" fill="#2C2C34"/>
<path d="M50.4255 35.1114V35.8521H45.2403L45.2403 35.1114H50.4255Z" fill="#2C2C34"/>
<path d="M53.3885 32.8892H54.1292V38.0743H53.3885V32.8892Z" fill="#2C2C34"/>
<path d="M56.3514 35.1114V35.8521H51.1663L51.1663 35.1114H56.3514Z" fill="#2C2C34"/>
<path d="M59.3146 32.8892H60.0553V38.0743H59.3146V32.8892Z" fill="#2C2C34"/>
<path d="M62.2775 35.1114V35.8521H57.0924L57.0924 35.1114H62.2775Z" fill="#2C2C34"/>
<path d="M65.2402 32.8892H65.9809V38.0743H65.2402V32.8892Z" fill="#2C2C34"/>
<path d="M68.2032 35.1114V35.8521H63.018L63.018 35.1114H68.2032Z" fill="#2C2C34"/>
<path d="M71.1663 32.8892H71.9071V38.0743H71.1663V32.8892Z" fill="#2C2C34"/>
<path d="M74.1293 35.1114V35.8521H68.9441L68.9441 35.1114H74.1293Z" fill="#2C2C34"/>
<path d="M77.0924 32.8892H77.8332V38.0743H77.0924V32.8892Z" fill="#2C2C34"/>
<path d="M80.0554 35.1114V35.8521H74.8702L74.8702 35.1114H80.0554Z" fill="#2C2C34"/>
<path d="M83.0182 32.8891H83.7589V38.0743H83.0182V32.8891Z" fill="#2C2C34"/>
<path d="M85.9811 35.1113V35.8521H80.7959L80.7959 35.1113H85.9811Z" fill="#2C2C34"/>
<path d="M88.944 32.8892H89.6847V38.0743H88.944V32.8892Z" fill="#2C2C34"/>
<path d="M91.9069 35.1114V35.8521H86.7218L86.7218 35.1114H91.9069Z" fill="#2C2C34"/>
<path d="M94.8699 32.8892H95.6107V38.0743H94.8699V32.8892Z" fill="#2C2C34"/>
<path d="M97.8329 35.1114V35.8521H92.6477L92.6477 35.1114H97.8329Z" fill="#2C2C34"/>
<path d="M100.796 32.8892H101.537V38.0743H100.796V32.8892Z" fill="#2C2C34"/>
<path d="M103.759 35.1114V35.8521H98.5736L98.5736 35.1114H103.759Z" fill="#2C2C34"/>
<path d="M106.722 32.8892H107.463V38.0743H106.722V32.8892Z" fill="#2C2C34"/>
<path d="M109.685 35.1114V35.8521H104.5L104.5 35.1114H109.685Z" fill="#2C2C34"/>
<path d="M112.648 32.8892H113.389V38.0743H112.648V32.8892Z" fill="#2C2C34"/>
<path d="M115.611 35.1114V35.8521H110.426L110.426 35.1114H115.611Z" fill="#2C2C34"/>
<path d="M118.574 32.8892H119.314V38.0743H118.574V32.8892Z" fill="#2C2C34"/>
<path d="M121.537 35.1114V35.8521H116.351L116.351 35.1114H121.537Z" fill="#2C2C34"/>
<path d="M0.0551846 38.8149H0.795925V44.0001H0.0551846V38.8149Z" fill="#2C2C34"/>
<path d="M3.01815 41.0371V41.7778H-2.16704L-2.16704 41.0371H3.01815Z" fill="#2C2C34"/>
<path d="M5.98109 38.8149H6.72183V44.0001H5.98109V38.8149Z" fill="#2C2C34"/>
<path d="M8.94405 41.0372V41.7779H3.75887L3.75887 41.0372H8.94405Z" fill="#2C2C34"/>
<path d="M11.9069 38.8149H12.6476V44.0001H11.9069V38.8149Z" fill="#2C2C34"/>
<path d="M14.8698 41.0372V41.7779H9.68465L9.68465 41.0372H14.8698Z" fill="#2C2C34"/>
<path d="M17.8331 38.8149H18.5739V44.0001H17.8331V38.8149Z" fill="#2C2C34"/>
<path d="M20.7961 41.0372V41.7779H15.6109L15.6109 41.0372H20.7961Z" fill="#2C2C34"/>
<path d="M23.7589 38.8149H24.4997V44.0001H23.7589V38.8149Z" fill="#2C2C34"/>
<path d="M26.7219 41.0372V41.7779H21.5367L21.5367 41.0372H26.7219Z" fill="#2C2C34"/>
<path d="M29.6847 38.8149H30.4254V44.0001H29.6847V38.8149Z" fill="#2C2C34"/>
<path d="M32.6477 41.0372V41.7779H27.4625L27.4625 41.0372H32.6477Z" fill="#2C2C34"/>
<path d="M35.6107 38.8149H36.3514V44.0001H35.6107V38.8149Z" fill="#2C2C34"/>
<path d="M38.5736 41.0372V41.7779H33.3884L33.3884 41.0372H38.5736Z" fill="#2C2C34"/>
<path d="M41.5368 38.8149H42.2775V44.0001H41.5368V38.8149Z" fill="#2C2C34"/>
<path d="M44.4997 41.0372V41.7779H39.3145L39.3145 41.0372H44.4997Z" fill="#2C2C34"/>
<path d="M47.4625 38.8149H48.2033V44.0001H47.4625V38.8149Z" fill="#2C2C34"/>
<path d="M50.4255 41.0372V41.7779H45.2403L45.2403 41.0372H50.4255Z" fill="#2C2C34"/>
<path d="M53.3885 38.8149H54.1292V44.0001H53.3885V38.8149Z" fill="#2C2C34"/>
<path d="M56.3514 41.0372V41.7779H51.1663L51.1663 41.0372H56.3514Z" fill="#2C2C34"/>
<path d="M59.3146 38.8149H60.0553V44.0001H59.3146V38.8149Z" fill="#2C2C34"/>
<path d="M62.2775 41.0372V41.7779H57.0924L57.0924 41.0372H62.2775Z" fill="#2C2C34"/>
<path d="M65.2402 38.8149H65.9809V44.0001H65.2402V38.8149Z" fill="#2C2C34"/>
<path d="M68.2032 41.0372V41.7779H63.018L63.018 41.0372H68.2032Z" fill="#2C2C34"/>
<path d="M71.1663 38.8149H71.9071V44.0001H71.1663V38.8149Z" fill="#2C2C34"/>
<path d="M74.1293 41.0372V41.7779H68.9441L68.9441 41.0372H74.1293Z" fill="#2C2C34"/>
<path d="M77.0924 38.8149H77.8332V44.0001H77.0924V38.8149Z" fill="#2C2C34"/>
<path d="M80.0554 41.0372V41.7779H74.8702L74.8702 41.0372H80.0554Z" fill="#2C2C34"/>
<path d="M83.0182 38.8149H83.7589V44.0001H83.0182V38.8149Z" fill="#2C2C34"/>
<path d="M85.9811 41.0371V41.7778H80.7959L80.7959 41.0371H85.9811Z" fill="#2C2C34"/>
<path d="M88.944 38.8149H89.6847V44.0001H88.944V38.8149Z" fill="#2C2C34"/>
<path d="M91.9069 41.0372V41.7779H86.7218L86.7218 41.0372H91.9069Z" fill="#2C2C34"/>
<path d="M94.8699 38.8149H95.6107V44.0001H94.8699V38.8149Z" fill="#2C2C34"/>
<path d="M97.8329 41.0372V41.7779H92.6477L92.6477 41.0372H97.8329Z" fill="#2C2C34"/>
<path d="M100.796 38.8149H101.537V44.0001H100.796V38.8149Z" fill="#2C2C34"/>
<path d="M103.759 41.0372V41.7779H98.5736L98.5736 41.0372H103.759Z" fill="#2C2C34"/>
<path d="M106.722 38.8149H107.463V44.0001H106.722V38.8149Z" fill="#2C2C34"/>
<path d="M109.685 41.0372V41.7779H104.5L104.5 41.0372H109.685Z" fill="#2C2C34"/>
<path d="M112.648 38.8149H113.389V44.0001H112.648V38.8149Z" fill="#2C2C34"/>
<path d="M115.611 41.0372V41.7779H110.426L110.426 41.0372H115.611Z" fill="#2C2C34"/>
<path d="M118.574 38.8149H119.314V44.0001H118.574V38.8149Z" fill="#2C2C34"/>
<path d="M121.537 41.0372V41.7779H116.351L116.351 41.0372H121.537Z" fill="#2C2C34"/>
<path d="M0.0551846 44.741H0.795925V49.9262H0.0551846V44.741Z" fill="#2C2C34"/>
<path d="M3.01815 46.9633V47.704H-2.16704L-2.16704 46.9633H3.01815Z" fill="#2C2C34"/>
<path d="M5.98109 44.741H6.72183V49.9262H5.98109V44.741Z" fill="#2C2C34"/>
<path d="M8.94405 46.9632V47.7039H3.75887L3.75887 46.9632H8.94405Z" fill="#2C2C34"/>
<path d="M11.9069 44.741H12.6476V49.9262H11.9069V44.741Z" fill="#2C2C34"/>
<path d="M14.8698 46.9632V47.7039H9.68465L9.68465 46.9632H14.8698Z" fill="#2C2C34"/>
<path d="M17.8331 44.741H18.5739V49.9262H17.8331V44.741Z" fill="#2C2C34"/>
<path d="M20.7961 46.9632V47.7039H15.6109L15.6109 46.9632H20.7961Z" fill="#2C2C34"/>
<path d="M23.7589 44.741H24.4997V49.9262H23.7589V44.741Z" fill="#2C2C34"/>
<path d="M26.7219 46.9632V47.7039H21.5367L21.5367 46.9632H26.7219Z" fill="#2C2C34"/>
<path d="M29.6847 44.741H30.4254V49.9262H29.6847V44.741Z" fill="#2C2C34"/>
<path d="M32.6477 46.9632V47.7039H27.4625L27.4625 46.9632H32.6477Z" fill="#2C2C34"/>
<path d="M35.6107 44.741H36.3514V49.9262H35.6107V44.741Z" fill="#2C2C34"/>
<path d="M38.5736 46.9632V47.7039H33.3884L33.3884 46.9632H38.5736Z" fill="#2C2C34"/>
<path d="M41.5368 44.741H42.2775V49.9262H41.5368V44.741Z" fill="#2C2C34"/>
<path d="M44.4997 46.9632V47.7039H39.3145L39.3145 46.9632H44.4997Z" fill="#2C2C34"/>
<path d="M47.4625 44.741H48.2033V49.9262H47.4625V44.741Z" fill="#2C2C34"/>
<path d="M50.4255 46.9632V47.7039H45.2403L45.2403 46.9632H50.4255Z" fill="#2C2C34"/>
<path d="M53.3885 44.741H54.1292V49.9262H53.3885V44.741Z" fill="#2C2C34"/>
<path d="M56.3514 46.9632V47.7039H51.1663L51.1663 46.9632H56.3514Z" fill="#2C2C34"/>
<path d="M59.3146 44.741H60.0553V49.9262H59.3146V44.741Z" fill="#2C2C34"/>
<path d="M62.2775 46.9632V47.7039H57.0924L57.0924 46.9632H62.2775Z" fill="#2C2C34"/>
<path d="M65.2402 44.741H65.9809V49.9262H65.2402V44.741Z" fill="#2C2C34"/>
<path d="M68.2032 46.9632V47.7039H63.018L63.018 46.9632H68.2032Z" fill="#2C2C34"/>
<path d="M71.1663 44.741H71.9071V49.9262H71.1663V44.741Z" fill="#2C2C34"/>
<path d="M74.1293 46.9632V47.7039H68.9441L68.9441 46.9632H74.1293Z" fill="#2C2C34"/>
<path d="M77.0924 44.741H77.8332V49.9262H77.0924V44.741Z" fill="#2C2C34"/>
<path d="M80.0554 46.9632V47.7039H74.8702L74.8702 46.9632H80.0554Z" fill="#2C2C34"/>
<path d="M83.0182 44.741H83.7589V49.9262H83.0182V44.741Z" fill="#2C2C34"/>
<path d="M85.9811 46.9633V47.704H80.7959L80.7959 46.9633H85.9811Z" fill="#2C2C34"/>
<path d="M88.944 44.741H89.6847V49.9262H88.944V44.741Z" fill="#2C2C34"/>
<path d="M91.9069 46.9632V47.7039H86.7218L86.7218 46.9632H91.9069Z" fill="#2C2C34"/>
<path d="M94.8699 44.741H95.6107V49.9262H94.8699V44.741Z" fill="#2C2C34"/>
<path d="M97.8329 46.9632V47.7039H92.6477L92.6477 46.9632H97.8329Z" fill="#2C2C34"/>
<path d="M100.796 44.741H101.537V49.9262H100.796V44.741Z" fill="#2C2C34"/>
<path d="M103.759 46.9632V47.7039H98.5736L98.5736 46.9632H103.759Z" fill="#2C2C34"/>
<path d="M106.722 44.741H107.463V49.9262H106.722V44.741Z" fill="#2C2C34"/>
<path d="M109.685 46.9632V47.7039H104.5L104.5 46.9632H109.685Z" fill="#2C2C34"/>
<path d="M112.648 44.741H113.389V49.9262H112.648V44.741Z" fill="#2C2C34"/>
<path d="M115.611 46.9632V47.7039H110.426L110.426 46.9632H115.611Z" fill="#2C2C34"/>
<path d="M118.574 44.741H119.314V49.9262H118.574V44.741Z" fill="#2C2C34"/>
<path d="M121.537 46.9632V47.7039H116.351L116.351 46.9632H121.537Z" fill="#2C2C34"/>
<path d="M0.0551846 50.6668H0.795925V55.852H0.0551846V50.6668Z" fill="#2C2C34"/>
<path d="M3.01815 52.889V53.6298H-2.16704L-2.16704 52.889H3.01815Z" fill="#2C2C34"/>
<path d="M5.98109 50.6667H6.72183V55.8519H5.98109V50.6667Z" fill="#2C2C34"/>
<path d="M8.94405 52.889V53.6297H3.75887L3.75887 52.889H8.94405Z" fill="#2C2C34"/>
<path d="M11.9069 50.6667H12.6476V55.8519H11.9069V50.6667Z" fill="#2C2C34"/>
<path d="M14.8698 52.889V53.6297H9.68465L9.68465 52.889H14.8698Z" fill="#2C2C34"/>
<path d="M17.8331 50.6667H18.5739V55.8519H17.8331V50.6667Z" fill="#2C2C34"/>
<path d="M20.7961 52.889V53.6297H15.6109L15.6109 52.889H20.7961Z" fill="#2C2C34"/>
<path d="M23.7589 50.6667H24.4997V55.8519H23.7589V50.6667Z" fill="#2C2C34"/>
<path d="M26.7219 52.889V53.6297H21.5367L21.5367 52.889H26.7219Z" fill="#2C2C34"/>
<path d="M29.6847 50.6667H30.4254V55.8519H29.6847V50.6667Z" fill="#2C2C34"/>
<path d="M32.6477 52.889V53.6297H27.4625L27.4625 52.889H32.6477Z" fill="#2C2C34"/>
<path d="M35.6107 50.6667H36.3514V55.8519H35.6107V50.6667Z" fill="#2C2C34"/>
<path d="M38.5736 52.889V53.6297H33.3884L33.3884 52.889H38.5736Z" fill="#2C2C34"/>
<path d="M41.5368 50.6667H42.2775V55.8519H41.5368V50.6667Z" fill="#2C2C34"/>
<path d="M44.4997 52.889V53.6297H39.3145L39.3145 52.889H44.4997Z" fill="#2C2C34"/>
<path d="M47.4625 50.6667H48.2033V55.8519H47.4625V50.6667Z" fill="#2C2C34"/>
<path d="M50.4255 52.889V53.6297H45.2403L45.2403 52.889H50.4255Z" fill="#2C2C34"/>
<path d="M53.3885 50.6667H54.1292V55.8519H53.3885V50.6667Z" fill="#2C2C34"/>
<path d="M56.3514 52.889V53.6297H51.1663L51.1663 52.889H56.3514Z" fill="#2C2C34"/>
<path d="M59.3146 50.6667H60.0553V55.8519H59.3146V50.6667Z" fill="#2C2C34"/>
<path d="M62.2775 52.889V53.6297H57.0924L57.0924 52.889H62.2775Z" fill="#2C2C34"/>
<path d="M65.2402 50.6667H65.9809V55.8519H65.2402V50.6667Z" fill="#2C2C34"/>
<path d="M68.2032 52.889V53.6297H63.018L63.018 52.889H68.2032Z" fill="#2C2C34"/>
<path d="M71.1663 50.6667H71.9071V55.8519H71.1663V50.6667Z" fill="#2C2C34"/>
<path d="M74.1293 52.889V53.6297H68.9441L68.9441 52.889H74.1293Z" fill="#2C2C34"/>
<path d="M77.0924 50.6667H77.8332V55.8519H77.0924V50.6667Z" fill="#2C2C34"/>
<path d="M80.0554 52.889V53.6297H74.8702L74.8702 52.889H80.0554Z" fill="#2C2C34"/>
<path d="M83.0182 50.6668H83.7589V55.852H83.0182V50.6668Z" fill="#2C2C34"/>
<path d="M85.9811 52.889V53.6298H80.7959L80.7959 52.889H85.9811Z" fill="#2C2C34"/>
<path d="M88.944 50.6667H89.6847V55.8519H88.944V50.6667Z" fill="#2C2C34"/>
<path d="M91.9069 52.889V53.6297H86.7218L86.7218 52.889H91.9069Z" fill="#2C2C34"/>
<path d="M94.8699 50.6667H95.6107V55.8519H94.8699V50.6667Z" fill="#2C2C34"/>
<path d="M97.8329 52.889V53.6297H92.6477L92.6477 52.889H97.8329Z" fill="#2C2C34"/>
<path d="M100.796 50.6667H101.537V55.8519H100.796V50.6667Z" fill="#2C2C34"/>
<path d="M103.759 52.889V53.6297H98.5736L98.5736 52.889H103.759Z" fill="#2C2C34"/>
<path d="M106.722 50.6667H107.463V55.8519H106.722V50.6667Z" fill="#2C2C34"/>
<path d="M109.685 52.889V53.6297H104.5L104.5 52.889H109.685Z" fill="#2C2C34"/>
<path d="M112.648 50.6667H113.389V55.8519H112.648V50.6667Z" fill="#2C2C34"/>
<path d="M115.611 52.889V53.6297H110.426L110.426 52.889H115.611Z" fill="#2C2C34"/>
<path d="M118.574 50.6667H119.314V55.8519H118.574V50.6667Z" fill="#2C2C34"/>
<path d="M121.537 52.889V53.6297H116.351L116.351 52.889H121.537Z" fill="#2C2C34"/>
<path d="M0.0551846 56.5926H0.795925V61.7778H0.0551846V56.5926Z" fill="#2C2C34"/>
<path d="M3.01815 58.8148V59.5556H-2.16704L-2.16704 58.8148H3.01815Z" fill="#2C2C34"/>
<path d="M5.98109 56.5925H6.72183V61.7777H5.98109V56.5925Z" fill="#2C2C34"/>
<path d="M8.94405 58.8148V59.5555H3.75887L3.75887 58.8148H8.94405Z" fill="#2C2C34"/>
<path d="M11.9069 56.5925H12.6476V61.7777H11.9069V56.5925Z" fill="#2C2C34"/>
<path d="M14.8698 58.8148V59.5555H9.68465L9.68465 58.8148H14.8698Z" fill="#2C2C34"/>
<path d="M17.8331 56.5925H18.5739V61.7777H17.8331V56.5925Z" fill="#2C2C34"/>
<path d="M20.7961 58.8148V59.5555H15.6109L15.6109 58.8148H20.7961Z" fill="#2C2C34"/>
<path d="M23.7589 56.5925H24.4997V61.7777H23.7589V56.5925Z" fill="#2C2C34"/>
<path d="M26.7219 58.8148V59.5555H21.5367L21.5367 58.8148H26.7219Z" fill="#2C2C34"/>
<path d="M29.6847 56.5925H30.4254V61.7777H29.6847V56.5925Z" fill="#2C2C34"/>
<path d="M32.6477 58.8148V59.5555H27.4625L27.4625 58.8148H32.6477Z" fill="#2C2C34"/>
<path d="M35.6107 56.5925H36.3514V61.7777H35.6107V56.5925Z" fill="#2C2C34"/>
<path d="M38.5736 58.8148V59.5555H33.3884L33.3884 58.8148H38.5736Z" fill="#2C2C34"/>
<path d="M41.5368 56.5925H42.2775V61.7777H41.5368V56.5925Z" fill="#2C2C34"/>
<path d="M44.4997 58.8148V59.5555H39.3145L39.3145 58.8148H44.4997Z" fill="#2C2C34"/>
<path d="M47.4625 56.5925H48.2033V61.7777H47.4625V56.5925Z" fill="#2C2C34"/>
<path d="M50.4255 58.8148V59.5555H45.2403L45.2403 58.8148H50.4255Z" fill="#2C2C34"/>
<path d="M53.3885 56.5925H54.1292V61.7777H53.3885V56.5925Z" fill="#2C2C34"/>
<path d="M56.3514 58.8148V59.5555H51.1663L51.1663 58.8148H56.3514Z" fill="#2C2C34"/>
<path d="M59.3146 56.5925H60.0553V61.7777H59.3146V56.5925Z" fill="#2C2C34"/>
<path d="M62.2775 58.8148V59.5555H57.0924L57.0924 58.8148H62.2775Z" fill="#2C2C34"/>
<path d="M65.2402 56.5925H65.9809V61.7777H65.2402V56.5925Z" fill="#2C2C34"/>
<path d="M68.2032 58.8148V59.5555H63.018L63.018 58.8148H68.2032Z" fill="#2C2C34"/>
<path d="M71.1663 56.5925H71.9071V61.7777H71.1663V56.5925Z" fill="#2C2C34"/>
<path d="M74.1293 58.8148V59.5555H68.9441L68.9441 58.8148H74.1293Z" fill="#2C2C34"/>
<path d="M77.0924 56.5925H77.8332V61.7777H77.0924V56.5925Z" fill="#2C2C34"/>
<path d="M80.0554 58.8148V59.5555H74.8702L74.8702 58.8148H80.0554Z" fill="#2C2C34"/>
<path d="M83.0182 56.5926H83.7589V61.7778H83.0182V56.5926Z" fill="#2C2C34"/>
<path d="M85.9811 58.8148V59.5556H80.7959L80.7959 58.8148H85.9811Z" fill="#2C2C34"/>
<path d="M88.944 56.5925H89.6847V61.7777H88.944V56.5925Z" fill="#2C2C34"/>
<path d="M91.9069 58.8148V59.5555H86.7218L86.7218 58.8148H91.9069Z" fill="#2C2C34"/>
<path d="M94.8699 56.5925H95.6107V61.7777H94.8699V56.5925Z" fill="#2C2C34"/>
<path d="M97.8329 58.8148V59.5555H92.6477L92.6477 58.8148H97.8329Z" fill="#2C2C34"/>
<path d="M100.796 56.5925H101.537V61.7777H100.796V56.5925Z" fill="#2C2C34"/>
<path d="M103.759 58.8148V59.5555H98.5736L98.5736 58.8148H103.759Z" fill="#2C2C34"/>
<path d="M106.722 56.5925H107.463V61.7777H106.722V56.5925Z" fill="#2C2C34"/>
<path d="M109.685 58.8148V59.5555H104.5L104.5 58.8148H109.685Z" fill="#2C2C34"/>
<path d="M112.648 56.5925H113.389V61.7777H112.648V56.5925Z" fill="#2C2C34"/>
<path d="M115.611 58.8148V59.5555H110.426L110.426 58.8148H115.611Z" fill="#2C2C34"/>
<path d="M118.574 56.5925H119.314V61.7777H118.574V56.5925Z" fill="#2C2C34"/>
<path d="M121.537 58.8148V59.5555H116.351L116.351 58.8148H121.537Z" fill="#2C2C34"/>
<path d="M0.0551846 62.5187H0.795925V67.7039H0.0551846V62.5187Z" fill="#2C2C34"/>
<path d="M3.01815 64.7409V65.4816H-2.16704L-2.16704 64.7409H3.01815Z" fill="#2C2C34"/>
<path d="M5.98109 62.5187H6.72183V67.7039H5.98109V62.5187Z" fill="#2C2C34"/>
<path d="M8.94405 64.7409V65.4816H3.75887L3.75887 64.7409H8.94405Z" fill="#2C2C34"/>
<path d="M11.9069 62.5187H12.6476V67.7039H11.9069V62.5187Z" fill="#2C2C34"/>
<path d="M14.8698 64.7409V65.4816H9.68465L9.68465 64.7409H14.8698Z" fill="#2C2C34"/>
<path d="M17.8331 62.5187H18.5739V67.7039H17.8331V62.5187Z" fill="#2C2C34"/>
<path d="M20.7961 64.7409V65.4816H15.6109L15.6109 64.7409H20.7961Z" fill="#2C2C34"/>
<path d="M23.7589 62.5187H24.4997V67.7039H23.7589V62.5187Z" fill="#2C2C34"/>
<path d="M26.7219 64.7409V65.4816H21.5367L21.5367 64.7409H26.7219Z" fill="#2C2C34"/>
<path d="M29.6847 62.5187H30.4254V67.7039H29.6847V62.5187Z" fill="#2C2C34"/>
<path d="M32.6477 64.7409V65.4816H27.4625L27.4625 64.7409H32.6477Z" fill="#2C2C34"/>
<path d="M35.6107 62.5187H36.3514V67.7039H35.6107V62.5187Z" fill="#2C2C34"/>
<path d="M38.5736 64.7409V65.4816H33.3884L33.3884 64.7409H38.5736Z" fill="#2C2C34"/>
<path d="M41.5368 62.5187H42.2775V67.7039H41.5368V62.5187Z" fill="#2C2C34"/>
<path d="M44.4997 64.7409V65.4816H39.3145L39.3145 64.7409H44.4997Z" fill="#2C2C34"/>
<path d="M47.4625 62.5187H48.2033V67.7039H47.4625V62.5187Z" fill="#2C2C34"/>
<path d="M50.4255 64.7409V65.4816H45.2403L45.2403 64.7409H50.4255Z" fill="#2C2C34"/>
<path d="M53.3885 62.5187H54.1292V67.7039H53.3885V62.5187Z" fill="#2C2C34"/>
<path d="M56.3514 64.7409V65.4816H51.1663L51.1663 64.7409H56.3514Z" fill="#2C2C34"/>
<path d="M59.3146 62.5187H60.0553V67.7039H59.3146V62.5187Z" fill="#2C2C34"/>
<path d="M62.2775 64.7409V65.4816H57.0924L57.0924 64.7409H62.2775Z" fill="#2C2C34"/>
<path d="M65.2402 62.5187H65.9809V67.7039H65.2402V62.5187Z" fill="#2C2C34"/>
<path d="M68.2032 64.7409V65.4816H63.018L63.018 64.7409H68.2032Z" fill="#2C2C34"/>
<path d="M71.1663 62.5187H71.9071V67.7039H71.1663V62.5187Z" fill="#2C2C34"/>
<path d="M74.1293 64.7409V65.4816H68.9441L68.9441 64.7409H74.1293Z" fill="#2C2C34"/>
<path d="M77.0924 62.5187H77.8332V67.7039H77.0924V62.5187Z" fill="#2C2C34"/>
<path d="M80.0554 64.7409V65.4816H74.8702L74.8702 64.7409H80.0554Z" fill="#2C2C34"/>
<path d="M83.0182 62.5187H83.7589V67.7039H83.0182V62.5187Z" fill="#2C2C34"/>
<path d="M85.9811 64.7409V65.4816H80.7959L80.7959 64.7409H85.9811Z" fill="#2C2C34"/>
<path d="M88.944 62.5187H89.6847V67.7039H88.944V62.5187Z" fill="#2C2C34"/>
<path d="M91.9069 64.7409V65.4816H86.7218L86.7218 64.7409H91.9069Z" fill="#2C2C34"/>
<path d="M94.8699 62.5187H95.6107V67.7039H94.8699V62.5187Z" fill="#2C2C34"/>
<path d="M97.8329 64.7409V65.4816H92.6477L92.6477 64.7409H97.8329Z" fill="#2C2C34"/>
<path d="M100.796 62.5187H101.537V67.7039H100.796V62.5187Z" fill="#2C2C34"/>
<path d="M103.759 64.7409V65.4816H98.5736L98.5736 64.7409H103.759Z" fill="#2C2C34"/>
<path d="M106.722 62.5187H107.463V67.7039H106.722V62.5187Z" fill="#2C2C34"/>
<path d="M109.685 64.7409V65.4816H104.5L104.5 64.7409H109.685Z" fill="#2C2C34"/>
<path d="M112.648 62.5187H113.389V67.7039H112.648V62.5187Z" fill="#2C2C34"/>
<path d="M115.611 64.7409V65.4816H110.426L110.426 64.7409H115.611Z" fill="#2C2C34"/>
<path d="M118.574 62.5187H119.314V67.7039H118.574V62.5187Z" fill="#2C2C34"/>
<path d="M121.537 64.7409V65.4816H116.351L116.351 64.7409H121.537Z" fill="#2C2C34"/>
<path d="M0.0551846 68.4445H0.795925V73.6296H0.0551846V68.4445Z" fill="#2C2C34"/>
<path d="M3.01815 70.6667V71.4074H-2.16704L-2.16704 70.6667H3.01815Z" fill="#2C2C34"/>
<path d="M5.98109 68.4445H6.72183V73.6296H5.98109V68.4445Z" fill="#2C2C34"/>
<path d="M8.94405 70.6667V71.4074H3.75887L3.75887 70.6667H8.94405Z" fill="#2C2C34"/>
<path d="M11.9069 68.4445H12.6476V73.6296H11.9069V68.4445Z" fill="#2C2C34"/>
<path d="M14.8698 70.6667V71.4074H9.68465L9.68465 70.6667H14.8698Z" fill="#2C2C34"/>
<path d="M17.8331 68.4445H18.5739V73.6296H17.8331V68.4445Z" fill="#2C2C34"/>
<path d="M20.7961 70.6667V71.4074H15.6109L15.6109 70.6667H20.7961Z" fill="#2C2C34"/>
<path d="M23.7589 68.4445H24.4997V73.6296H23.7589V68.4445Z" fill="#2C2C34"/>
<path d="M26.7219 70.6667V71.4074H21.5367L21.5367 70.6667H26.7219Z" fill="#2C2C34"/>
<path d="M29.6847 68.4445H30.4254V73.6296H29.6847V68.4445Z" fill="#2C2C34"/>
<path d="M32.6477 70.6667V71.4074H27.4625L27.4625 70.6667H32.6477Z" fill="#2C2C34"/>
<path d="M35.6107 68.4445H36.3514V73.6296H35.6107V68.4445Z" fill="#2C2C34"/>
<path d="M38.5736 70.6667V71.4074H33.3884L33.3884 70.6667H38.5736Z" fill="#2C2C34"/>
<path d="M41.5368 68.4445H42.2775V73.6296H41.5368V68.4445Z" fill="#2C2C34"/>
<path d="M44.4997 70.6667V71.4074H39.3145L39.3145 70.6667H44.4997Z" fill="#2C2C34"/>
<path d="M47.4625 68.4445H48.2033V73.6296H47.4625V68.4445Z" fill="#2C2C34"/>
<path d="M50.4255 70.6667V71.4074H45.2403L45.2403 70.6667H50.4255Z" fill="#2C2C34"/>
<path d="M53.3885 68.4445H54.1292V73.6296H53.3885V68.4445Z" fill="#2C2C34"/>
<path d="M56.3514 70.6667V71.4074H51.1663L51.1663 70.6667H56.3514Z" fill="#2C2C34"/>
<path d="M59.3146 68.4445H60.0553V73.6296H59.3146V68.4445Z" fill="#2C2C34"/>
<path d="M62.2775 70.6667V71.4074H57.0924L57.0924 70.6667H62.2775Z" fill="#2C2C34"/>
<path d="M65.2402 68.4445H65.9809V73.6296H65.2402V68.4445Z" fill="#2C2C34"/>
<path d="M68.2032 70.6667V71.4074H63.018L63.018 70.6667H68.2032Z" fill="#2C2C34"/>
<path d="M71.1663 68.4445H71.9071V73.6296H71.1663V68.4445Z" fill="#2C2C34"/>
<path d="M74.1293 70.6667V71.4074H68.9441L68.9441 70.6667H74.1293Z" fill="#2C2C34"/>
<path d="M77.0924 68.4445H77.8332V73.6296H77.0924V68.4445Z" fill="#2C2C34"/>
<path d="M80.0554 70.6667V71.4074H74.8702L74.8702 70.6667H80.0554Z" fill="#2C2C34"/>
<path d="M83.0182 68.4445H83.7589V73.6296H83.0182V68.4445Z" fill="#2C2C34"/>
<path d="M85.9811 70.6667V71.4074H80.7959L80.7959 70.6667H85.9811Z" fill="#2C2C34"/>
<path d="M88.944 68.4445H89.6847V73.6296H88.944V68.4445Z" fill="#2C2C34"/>
<path d="M91.9069 70.6667V71.4074H86.7218L86.7218 70.6667H91.9069Z" fill="#2C2C34"/>
<path d="M94.8699 68.4445H95.6107V73.6296H94.8699V68.4445Z" fill="#2C2C34"/>
<path d="M97.8329 70.6667V71.4074H92.6477L92.6477 70.6667H97.8329Z" fill="#2C2C34"/>
<path d="M100.796 68.4445H101.537V73.6296H100.796V68.4445Z" fill="#2C2C34"/>
<path d="M103.759 70.6667V71.4074H98.5736L98.5736 70.6667H103.759Z" fill="#2C2C34"/>
<path d="M106.722 68.4445H107.463V73.6296H106.722V68.4445Z" fill="#2C2C34"/>
<path d="M109.685 70.6667V71.4074H104.5L104.5 70.6667H109.685Z" fill="#2C2C34"/>
<path d="M112.648 68.4445H113.389V73.6296H112.648V68.4445Z" fill="#2C2C34"/>
<path d="M115.611 70.6667V71.4074H110.426L110.426 70.6667H115.611Z" fill="#2C2C34"/>
<path d="M118.574 68.4445H119.314V73.6296H118.574V68.4445Z" fill="#2C2C34"/>
<path d="M121.537 70.6667V71.4074H116.351L116.351 70.6667H121.537Z" fill="#2C2C34"/>
<path d="M0.0551846 74.3705H0.795925V79.5557H0.0551846V74.3705Z" fill="#2C2C34"/>
<path d="M3.01815 76.5928V77.3335H-2.16704L-2.16704 76.5928H3.01815Z" fill="#2C2C34"/>
<path d="M5.98109 74.3706H6.72183V79.5558H5.98109V74.3706Z" fill="#2C2C34"/>
<path d="M8.94405 76.5928V77.3336H3.75887L3.75887 76.5928H8.94405Z" fill="#2C2C34"/>
<path d="M11.9069 74.3706H12.6476V79.5558H11.9069V74.3706Z" fill="#2C2C34"/>
<path d="M14.8698 76.5928V77.3336H9.68465L9.68465 76.5928H14.8698Z" fill="#2C2C34"/>
<path d="M17.8331 74.3706H18.5739V79.5558H17.8331V74.3706Z" fill="#2C2C34"/>
<path d="M20.7961 76.5928V77.3336H15.6109L15.6109 76.5928H20.7961Z" fill="#2C2C34"/>
<path d="M23.7589 74.3706H24.4997V79.5558H23.7589V74.3706Z" fill="#2C2C34"/>
<path d="M26.7219 76.5928V77.3336H21.5367L21.5367 76.5928H26.7219Z" fill="#2C2C34"/>
<path d="M29.6847 74.3706H30.4254V79.5558H29.6847V74.3706Z" fill="#2C2C34"/>
<path d="M32.6477 76.5928V77.3336H27.4625L27.4625 76.5928H32.6477Z" fill="#2C2C34"/>
<path d="M35.6107 74.3706H36.3514V79.5558H35.6107V74.3706Z" fill="#2C2C34"/>
<path d="M38.5736 76.5928V77.3336H33.3884L33.3884 76.5928H38.5736Z" fill="#2C2C34"/>
<path d="M41.5368 74.3706H42.2775V79.5558H41.5368V74.3706Z" fill="#2C2C34"/>
<path d="M44.4997 76.5928V77.3336H39.3145L39.3145 76.5928H44.4997Z" fill="#2C2C34"/>
<path d="M47.4625 74.3706H48.2033V79.5558H47.4625V74.3706Z" fill="#2C2C34"/>
<path d="M50.4255 76.5928V77.3336H45.2403L45.2403 76.5928H50.4255Z" fill="#2C2C34"/>
<path d="M53.3885 74.3706H54.1292V79.5558H53.3885V74.3706Z" fill="#2C2C34"/>
<path d="M56.3514 76.5928V77.3336H51.1663L51.1663 76.5928H56.3514Z" fill="#2C2C34"/>
<path d="M59.3146 74.3706H60.0553V79.5558H59.3146V74.3706Z" fill="#2C2C34"/>
<path d="M62.2775 76.5928V77.3336H57.0924L57.0924 76.5928H62.2775Z" fill="#2C2C34"/>
<path d="M65.2402 74.3706H65.9809V79.5558H65.2402V74.3706Z" fill="#2C2C34"/>
<path d="M68.2032 76.5928V77.3336H63.018L63.018 76.5928H68.2032Z" fill="#2C2C34"/>
<path d="M71.1663 74.3706H71.9071V79.5558H71.1663V74.3706Z" fill="#2C2C34"/>
<path d="M74.1293 76.5928V77.3336H68.9441L68.9441 76.5928H74.1293Z" fill="#2C2C34"/>
<path d="M77.0924 74.3706H77.8332V79.5558H77.0924V74.3706Z" fill="#2C2C34"/>
<path d="M80.0554 76.5928V77.3336H74.8702L74.8702 76.5928H80.0554Z" fill="#2C2C34"/>
<path d="M83.0182 74.3705H83.7589V79.5557H83.0182V74.3705Z" fill="#2C2C34"/>
<path d="M85.9811 76.5928V77.3335H80.7959L80.7959 76.5928H85.9811Z" fill="#2C2C34"/>
<path d="M88.944 74.3706H89.6847V79.5558H88.944V74.3706Z" fill="#2C2C34"/>
<path d="M91.9069 76.5928V77.3336H86.7218L86.7218 76.5928H91.9069Z" fill="#2C2C34"/>
<path d="M94.8699 74.3706H95.6107V79.5558H94.8699V74.3706Z" fill="#2C2C34"/>
<path d="M97.8329 76.5928V77.3336H92.6477L92.6477 76.5928H97.8329Z" fill="#2C2C34"/>
<path d="M100.796 74.3706H101.537V79.5558H100.796V74.3706Z" fill="#2C2C34"/>
<path d="M103.759 76.5928V77.3336H98.5736L98.5736 76.5928H103.759Z" fill="#2C2C34"/>
<path d="M106.722 74.3706H107.463V79.5558H106.722V74.3706Z" fill="#2C2C34"/>
<path d="M109.685 76.5928V77.3336H104.5L104.5 76.5928H109.685Z" fill="#2C2C34"/>
<path d="M112.648 74.3706H113.389V79.5558H112.648V74.3706Z" fill="#2C2C34"/>
<path d="M115.611 76.5928V77.3336H110.426L110.426 76.5928H115.611Z" fill="#2C2C34"/>
<path d="M118.574 74.3706H119.314V79.5558H118.574V74.3706Z" fill="#2C2C34"/>
<path d="M121.537 76.5928V77.3336H116.351L116.351 76.5928H121.537Z" fill="#2C2C34"/>
<path d="M0.0551846 80.2963H0.795925V85.4815H0.0551846V80.2963Z" fill="#2C2C34"/>
<path d="M3.01815 82.5185V83.2593H-2.16704L-2.16704 82.5185H3.01815Z" fill="#2C2C34"/>
<path d="M5.98109 80.2964H6.72183V85.4816H5.98109V80.2964Z" fill="#2C2C34"/>
<path d="M8.94405 82.5186V83.2594H3.75887L3.75887 82.5186H8.94405Z" fill="#2C2C34"/>
<path d="M11.9069 80.2964H12.6476V85.4816H11.9069V80.2964Z" fill="#2C2C34"/>
<path d="M14.8698 82.5186V83.2594H9.68465L9.68465 82.5186H14.8698Z" fill="#2C2C34"/>
<path d="M17.8331 80.2964H18.5739V85.4816H17.8331V80.2964Z" fill="#2C2C34"/>
<path d="M20.7961 82.5186V83.2594H15.6109L15.6109 82.5186H20.7961Z" fill="#2C2C34"/>
<path d="M23.7589 80.2964H24.4997V85.4816H23.7589V80.2964Z" fill="#2C2C34"/>
<path d="M26.7219 82.5186V83.2594H21.5367L21.5367 82.5186H26.7219Z" fill="#2C2C34"/>
<path d="M29.6847 80.2964H30.4254V85.4816H29.6847V80.2964Z" fill="#2C2C34"/>
<path d="M32.6477 82.5186V83.2594H27.4625L27.4625 82.5186H32.6477Z" fill="#2C2C34"/>
<path d="M35.6107 80.2964H36.3514V85.4816H35.6107V80.2964Z" fill="#2C2C34"/>
<path d="M38.5736 82.5186V83.2594H33.3884L33.3884 82.5186H38.5736Z" fill="#2C2C34"/>
<path d="M41.5368 80.2964H42.2775V85.4816H41.5368V80.2964Z" fill="#2C2C34"/>
<path d="M44.4997 82.5186V83.2594H39.3145L39.3145 82.5186H44.4997Z" fill="#2C2C34"/>
<path d="M47.4625 80.2964H48.2033V85.4816H47.4625V80.2964Z" fill="#2C2C34"/>
<path d="M50.4255 82.5186V83.2594H45.2403L45.2403 82.5186H50.4255Z" fill="#2C2C34"/>
<path d="M53.3885 80.2964H54.1292V85.4816H53.3885V80.2964Z" fill="#2C2C34"/>
<path d="M56.3514 82.5186V83.2594H51.1663L51.1663 82.5186H56.3514Z" fill="#2C2C34"/>
<path d="M59.3146 80.2964H60.0553V85.4816H59.3146V80.2964Z" fill="#2C2C34"/>
<path d="M62.2775 82.5186V83.2594H57.0924L57.0924 82.5186H62.2775Z" fill="#2C2C34"/>
<path d="M65.2402 80.2964H65.9809V85.4816H65.2402V80.2964Z" fill="#2C2C34"/>
<path d="M68.2032 82.5186V83.2594H63.018L63.018 82.5186H68.2032Z" fill="#2C2C34"/>
<path d="M71.1663 80.2964H71.9071V85.4816H71.1663V80.2964Z" fill="#2C2C34"/>
<path d="M74.1293 82.5186V83.2594H68.9441L68.9441 82.5186H74.1293Z" fill="#2C2C34"/>
<path d="M77.0924 80.2964H77.8332V85.4816H77.0924V80.2964Z" fill="#2C2C34"/>
<path d="M80.0554 82.5186V83.2594H74.8702L74.8702 82.5186H80.0554Z" fill="#2C2C34"/>
<path d="M83.0182 80.2963H83.7589V85.4815H83.0182V80.2963Z" fill="#2C2C34"/>
<path d="M85.9811 82.5185V83.2593H80.7959L80.7959 82.5185H85.9811Z" fill="#2C2C34"/>
<path d="M88.944 80.2964H89.6847V85.4816H88.944V80.2964Z" fill="#2C2C34"/>
<path d="M91.9069 82.5186V83.2594H86.7218L86.7218 82.5186H91.9069Z" fill="#2C2C34"/>
<path d="M94.8699 80.2964H95.6107V85.4816H94.8699V80.2964Z" fill="#2C2C34"/>
<path d="M97.8329 82.5186V83.2594H92.6477L92.6477 82.5186H97.8329Z" fill="#2C2C34"/>
<path d="M100.796 80.2964H101.537V85.4816H100.796V80.2964Z" fill="#2C2C34"/>
<path d="M103.759 82.5186V83.2594H98.5736L98.5736 82.5186H103.759Z" fill="#2C2C34"/>
<path d="M106.722 80.2964H107.463V85.4816H106.722V80.2964Z" fill="#2C2C34"/>
<path d="M109.685 82.5186V83.2594H104.5L104.5 82.5186H109.685Z" fill="#2C2C34"/>
<path d="M112.648 80.2964H113.389V85.4816H112.648V80.2964Z" fill="#2C2C34"/>
<path d="M115.611 82.5186V83.2594H110.426L110.426 82.5186H115.611Z" fill="#2C2C34"/>
<path d="M118.574 80.2964H119.314V85.4816H118.574V80.2964Z" fill="#2C2C34"/>
<path d="M121.537 82.5186V83.2594H116.351L116.351 82.5186H121.537Z" fill="#2C2C34"/>
<path d="M0.0551846 86.2225H0.795925V91.4077H0.0551846V86.2225Z" fill="#2C2C34"/>
<path d="M3.01815 88.4447V89.1854H-2.16704L-2.16704 88.4447H3.01815Z" fill="#2C2C34"/>
<path d="M5.98109 86.2224H6.72183V91.4076H5.98109V86.2224Z" fill="#2C2C34"/>
<path d="M8.94405 88.4446V89.1854H3.75887L3.75887 88.4446H8.94405Z" fill="#2C2C34"/>
<path d="M11.9069 86.2224H12.6476V91.4076H11.9069V86.2224Z" fill="#2C2C34"/>
<path d="M14.8698 88.4446V89.1854H9.68465L9.68465 88.4446H14.8698Z" fill="#2C2C34"/>
<path d="M17.8331 86.2224H18.5739V91.4076H17.8331V86.2224Z" fill="#2C2C34"/>
<path d="M20.7961 88.4446V89.1854H15.6109L15.6109 88.4446H20.7961Z" fill="#2C2C34"/>
<path d="M23.7589 86.2224H24.4997V91.4076H23.7589V86.2224Z" fill="#2C2C34"/>
<path d="M26.7219 88.4446V89.1854H21.5367L21.5367 88.4446H26.7219Z" fill="#2C2C34"/>
<path d="M29.6847 86.2224H30.4254V91.4076H29.6847V86.2224Z" fill="#2C2C34"/>
<path d="M32.6477 88.4446V89.1854H27.4625L27.4625 88.4446H32.6477Z" fill="#2C2C34"/>
<path d="M35.6107 86.2224H36.3514V91.4076H35.6107V86.2224Z" fill="#2C2C34"/>
<path d="M38.5736 88.4446V89.1854H33.3884L33.3884 88.4446H38.5736Z" fill="#2C2C34"/>
<path d="M41.5368 86.2224H42.2775V91.4076H41.5368V86.2224Z" fill="#2C2C34"/>
<path d="M44.4997 88.4446V89.1854H39.3145L39.3145 88.4446H44.4997Z" fill="#2C2C34"/>
<path d="M47.4625 86.2224H48.2033V91.4076H47.4625V86.2224Z" fill="#2C2C34"/>
<path d="M50.4255 88.4446V89.1854H45.2403L45.2403 88.4446H50.4255Z" fill="#2C2C34"/>
<path d="M53.3885 86.2224H54.1292V91.4076H53.3885V86.2224Z" fill="#2C2C34"/>
<path d="M56.3514 88.4446V89.1854H51.1663L51.1663 88.4446H56.3514Z" fill="#2C2C34"/>
<path d="M59.3146 86.2224H60.0553V91.4076H59.3146V86.2224Z" fill="#2C2C34"/>
<path d="M62.2775 88.4446V89.1854H57.0924L57.0924 88.4446H62.2775Z" fill="#2C2C34"/>
<path d="M65.2402 86.2224H65.9809V91.4076H65.2402V86.2224Z" fill="#2C2C34"/>
<path d="M68.2032 88.4446V89.1854H63.018L63.018 88.4446H68.2032Z" fill="#2C2C34"/>
<path d="M71.1663 86.2224H71.9071V91.4076H71.1663V86.2224Z" fill="#2C2C34"/>
<path d="M74.1293 88.4446V89.1854H68.9441L68.9441 88.4446H74.1293Z" fill="#2C2C34"/>
<path d="M77.0924 86.2224H77.8332V91.4076H77.0924V86.2224Z" fill="#2C2C34"/>
<path d="M80.0554 88.4446V89.1854H74.8702L74.8702 88.4446H80.0554Z" fill="#2C2C34"/>
<path d="M83.0182 86.2225H83.7589V91.4077H83.0182V86.2225Z" fill="#2C2C34"/>
<path d="M85.9811 88.4447V89.1854H80.7959L80.7959 88.4447H85.9811Z" fill="#2C2C34"/>
<path d="M88.944 86.2224H89.6847V91.4076H88.944V86.2224Z" fill="#2C2C34"/>
<path d="M91.9069 88.4446V89.1854H86.7218L86.7218 88.4446H91.9069Z" fill="#2C2C34"/>
<path d="M94.8699 86.2224H95.6107V91.4076H94.8699V86.2224Z" fill="#2C2C34"/>
<path d="M97.8329 88.4446V89.1854H92.6477L92.6477 88.4446H97.8329Z" fill="#2C2C34"/>
<path d="M100.796 86.2224H101.537V91.4076H100.796V86.2224Z" fill="#2C2C34"/>
<path d="M103.759 88.4446V89.1854H98.5736L98.5736 88.4446H103.759Z" fill="#2C2C34"/>
<path d="M106.722 86.2224H107.463V91.4076H106.722V86.2224Z" fill="#2C2C34"/>
<path d="M109.685 88.4446V89.1854H104.5L104.5 88.4446H109.685Z" fill="#2C2C34"/>
<path d="M112.648 86.2224H113.389V91.4076H112.648V86.2224Z" fill="#2C2C34"/>
<path d="M115.611 88.4446V89.1854H110.426L110.426 88.4446H115.611Z" fill="#2C2C34"/>
<path d="M118.574 86.2224H119.314V91.4076H118.574V86.2224Z" fill="#2C2C34"/>
<path d="M121.537 88.4446V89.1854H116.351L116.351 88.4446H121.537Z" fill="#2C2C34"/>
<path d="M0.0551846 92.1482H0.795925V97.3334H0.0551846V92.1482Z" fill="#2C2C34"/>
<path d="M3.01815 94.3704V95.1112H-2.16704L-2.16704 94.3704H3.01815Z" fill="#2C2C34"/>
<path d="M5.98109 92.1481H6.72183V97.3333H5.98109V92.1481Z" fill="#2C2C34"/>
<path d="M8.94405 94.3704V95.1111H3.75887L3.75887 94.3704H8.94405Z" fill="#2C2C34"/>
<path d="M11.9069 92.1481H12.6476V97.3333H11.9069V92.1481Z" fill="#2C2C34"/>
<path d="M14.8698 94.3704V95.1111H9.68465L9.68465 94.3704H14.8698Z" fill="#2C2C34"/>
<path d="M17.8331 92.1481H18.5739V97.3333H17.8331V92.1481Z" fill="#2C2C34"/>
<path d="M20.7961 94.3704V95.1111H15.6109L15.6109 94.3704H20.7961Z" fill="#2C2C34"/>
<path d="M23.7589 92.1481H24.4997V97.3333H23.7589V92.1481Z" fill="#2C2C34"/>
<path d="M26.7219 94.3704V95.1111H21.5367L21.5367 94.3704H26.7219Z" fill="#2C2C34"/>
<path d="M29.6847 92.1481H30.4254V97.3333H29.6847V92.1481Z" fill="#2C2C34"/>
<path d="M32.6477 94.3704V95.1111H27.4625L27.4625 94.3704H32.6477Z" fill="#2C2C34"/>
<path d="M35.6107 92.1481H36.3514V97.3333H35.6107V92.1481Z" fill="#2C2C34"/>
<path d="M38.5736 94.3704V95.1111H33.3884L33.3884 94.3704H38.5736Z" fill="#2C2C34"/>
<path d="M41.5368 92.1481H42.2775V97.3333H41.5368V92.1481Z" fill="#2C2C34"/>
<path d="M44.4997 94.3704V95.1111H39.3145L39.3145 94.3704H44.4997Z" fill="#2C2C34"/>
<path d="M47.4625 92.1481H48.2033V97.3333H47.4625V92.1481Z" fill="#2C2C34"/>
<path d="M50.4255 94.3704V95.1111H45.2403L45.2403 94.3704H50.4255Z" fill="#2C2C34"/>
<path d="M53.3885 92.1481H54.1292V97.3333H53.3885V92.1481Z" fill="#2C2C34"/>
<path d="M56.3514 94.3704V95.1111H51.1663L51.1663 94.3704H56.3514Z" fill="#2C2C34"/>
<path d="M59.3146 92.1481H60.0553V97.3333H59.3146V92.1481Z" fill="#2C2C34"/>
<path d="M62.2775 94.3704V95.1111H57.0924L57.0924 94.3704H62.2775Z" fill="#2C2C34"/>
<path d="M65.2402 92.1481H65.9809V97.3333H65.2402V92.1481Z" fill="#2C2C34"/>
<path d="M68.2032 94.3704V95.1111H63.018L63.018 94.3704H68.2032Z" fill="#2C2C34"/>
<path d="M71.1663 92.1481H71.9071V97.3333H71.1663V92.1481Z" fill="#2C2C34"/>
<path d="M74.1293 94.3704V95.1111H68.9441L68.9441 94.3704H74.1293Z" fill="#2C2C34"/>
<path d="M77.0924 92.1481H77.8332V97.3333H77.0924V92.1481Z" fill="#2C2C34"/>
<path d="M80.0554 94.3704V95.1111H74.8702L74.8702 94.3704H80.0554Z" fill="#2C2C34"/>
<path d="M83.0182 92.1482H83.7589V97.3334H83.0182V92.1482Z" fill="#2C2C34"/>
<path d="M85.9811 94.3704V95.1112H80.7959L80.7959 94.3704H85.9811Z" fill="#2C2C34"/>
<path d="M88.944 92.1481H89.6847V97.3333H88.944V92.1481Z" fill="#2C2C34"/>
<path d="M91.9069 94.3704V95.1111H86.7218L86.7218 94.3704H91.9069Z" fill="#2C2C34"/>
<path d="M94.8699 92.1481H95.6107V97.3333H94.8699V92.1481Z" fill="#2C2C34"/>
<path d="M97.8329 94.3704V95.1111H92.6477L92.6477 94.3704H97.8329Z" fill="#2C2C34"/>
<path d="M100.796 92.1481H101.537V97.3333H100.796V92.1481Z" fill="#2C2C34"/>
<path d="M103.759 94.3704V95.1111H98.5736L98.5736 94.3704H103.759Z" fill="#2C2C34"/>
<path d="M106.722 92.1481H107.463V97.3333H106.722V92.1481Z" fill="#2C2C34"/>
<path d="M109.685 94.3704V95.1111H104.5L104.5 94.3704H109.685Z" fill="#2C2C34"/>
<path d="M112.648 92.1481H113.389V97.3333H112.648V92.1481Z" fill="#2C2C34"/>
<path d="M115.611 94.3704V95.1111H110.426L110.426 94.3704H115.611Z" fill="#2C2C34"/>
<path d="M118.574 92.1481H119.314V97.3333H118.574V92.1481Z" fill="#2C2C34"/>
<path d="M121.537 94.3704V95.1111H116.351L116.351 94.3704H121.537Z" fill="#2C2C34"/>
<path d="M0.0551846 98.0743H0.795925V103.26H0.0551846V98.0743Z" fill="#2C2C34"/>
<path d="M3.01815 100.297V101.037H-2.16704L-2.16704 100.297H3.01815Z" fill="#2C2C34"/>
<path d="M5.98109 98.0743H6.72183V103.26H5.98109V98.0743Z" fill="#2C2C34"/>
<path d="M8.94405 100.297V101.037H3.75887L3.75887 100.297H8.94405Z" fill="#2C2C34"/>
<path d="M11.9069 98.0743H12.6476V103.26H11.9069V98.0743Z" fill="#2C2C34"/>
<path d="M14.8698 100.297V101.037H9.68465L9.68465 100.297H14.8698Z" fill="#2C2C34"/>
<path d="M17.8331 98.0743H18.5739V103.26H17.8331V98.0743Z" fill="#2C2C34"/>
<path d="M20.7961 100.297V101.037H15.6109L15.6109 100.297H20.7961Z" fill="#2C2C34"/>
<path d="M23.7589 98.0743H24.4997V103.26H23.7589V98.0743Z" fill="#2C2C34"/>
<path d="M26.7219 100.297V101.037H21.5367L21.5367 100.297H26.7219Z" fill="#2C2C34"/>
<path d="M29.6847 98.0743H30.4254V103.26H29.6847V98.0743Z" fill="#2C2C34"/>
<path d="M32.6477 100.297V101.037H27.4625L27.4625 100.297H32.6477Z" fill="#2C2C34"/>
<path d="M35.6107 98.0743H36.3514V103.26H35.6107V98.0743Z" fill="#2C2C34"/>
<path d="M38.5736 100.297V101.037H33.3884L33.3884 100.297H38.5736Z" fill="#2C2C34"/>
<path d="M41.5368 98.0743H42.2775V103.26H41.5368V98.0743Z" fill="#2C2C34"/>
<path d="M44.4997 100.297V101.037H39.3145L39.3145 100.297H44.4997Z" fill="#2C2C34"/>
<path d="M47.4625 98.0743H48.2033V103.26H47.4625V98.0743Z" fill="#2C2C34"/>
<path d="M50.4255 100.297V101.037H45.2403L45.2403 100.297H50.4255Z" fill="#2C2C34"/>
<path d="M53.3885 98.0743H54.1292V103.26H53.3885V98.0743Z" fill="#2C2C34"/>
<path d="M56.3514 100.297V101.037H51.1663L51.1663 100.297H56.3514Z" fill="#2C2C34"/>
<path d="M59.3146 98.0743H60.0553V103.26H59.3146V98.0743Z" fill="#2C2C34"/>
<path d="M62.2775 100.297V101.037H57.0924L57.0924 100.297H62.2775Z" fill="#2C2C34"/>
<path d="M65.2402 98.0743H65.9809V103.26H65.2402V98.0743Z" fill="#2C2C34"/>
<path d="M68.2032 100.297V101.037H63.018L63.018 100.297H68.2032Z" fill="#2C2C34"/>
<path d="M71.1663 98.0743H71.9071V103.26H71.1663V98.0743Z" fill="#2C2C34"/>
<path d="M74.1293 100.297V101.037H68.9441L68.9441 100.297H74.1293Z" fill="#2C2C34"/>
<path d="M77.0924 98.0743H77.8332V103.26H77.0924V98.0743Z" fill="#2C2C34"/>
<path d="M80.0554 100.297V101.037H74.8702L74.8702 100.297H80.0554Z" fill="#2C2C34"/>
<path d="M83.0182 98.0743H83.7589V103.26H83.0182V98.0743Z" fill="#2C2C34"/>
<path d="M85.9811 100.297V101.037H80.7959L80.7959 100.297H85.9811Z" fill="#2C2C34"/>
<path d="M88.944 98.0743H89.6847V103.26H88.944V98.0743Z" fill="#2C2C34"/>
<path d="M91.9069 100.297V101.037H86.7218L86.7218 100.297H91.9069Z" fill="#2C2C34"/>
<path d="M94.8699 98.0743H95.6107V103.26H94.8699V98.0743Z" fill="#2C2C34"/>
<path d="M97.8329 100.297V101.037H92.6477L92.6477 100.297H97.8329Z" fill="#2C2C34"/>
<path d="M100.796 98.0743H101.537V103.26H100.796V98.0743Z" fill="#2C2C34"/>
<path d="M103.759 100.297V101.037H98.5736L98.5736 100.297H103.759Z" fill="#2C2C34"/>
<path d="M106.722 98.0743H107.463V103.26H106.722V98.0743Z" fill="#2C2C34"/>
<path d="M109.685 100.297V101.037H104.5L104.5 100.297H109.685Z" fill="#2C2C34"/>
<path d="M112.648 98.0743H113.389V103.26H112.648V98.0743Z" fill="#2C2C34"/>
<path d="M115.611 100.297V101.037H110.426L110.426 100.297H115.611Z" fill="#2C2C34"/>
<path d="M118.574 98.0743H119.314V103.26H118.574V98.0743Z" fill="#2C2C34"/>
<path d="M121.537 100.297V101.037H116.351L116.351 100.297H121.537Z" fill="#2C2C34"/>
<path d="M0.0551846 104H0.795925V109.185H0.0551846V104Z" fill="#2C2C34"/>
<path d="M3.01815 106.222V106.963H-2.16704L-2.16704 106.222H3.01815Z" fill="#2C2C34"/>
<path d="M5.98109 104H6.72183V109.185H5.98109V104Z" fill="#2C2C34"/>
<path d="M8.94405 106.222V106.963H3.75887L3.75887 106.222H8.94405Z" fill="#2C2C34"/>
<path d="M11.9069 104H12.6476V109.185H11.9069V104Z" fill="#2C2C34"/>
<path d="M14.8698 106.222V106.963H9.68465L9.68465 106.222H14.8698Z" fill="#2C2C34"/>
<path d="M17.8331 104H18.5739V109.185H17.8331V104Z" fill="#2C2C34"/>
<path d="M20.7961 106.222V106.963H15.6109L15.6109 106.222H20.7961Z" fill="#2C2C34"/>
<path d="M23.7589 104H24.4997V109.185H23.7589V104Z" fill="#2C2C34"/>
<path d="M26.7219 106.222V106.963H21.5367L21.5367 106.222H26.7219Z" fill="#2C2C34"/>
<path d="M29.6847 104H30.4254V109.185H29.6847V104Z" fill="#2C2C34"/>
<path d="M32.6477 106.222V106.963H27.4625L27.4625 106.222H32.6477Z" fill="#2C2C34"/>
<path d="M35.6107 104H36.3514V109.185H35.6107V104Z" fill="#2C2C34"/>
<path d="M38.5736 106.222V106.963H33.3884L33.3884 106.222H38.5736Z" fill="#2C2C34"/>
<path d="M41.5368 104H42.2775V109.185H41.5368V104Z" fill="#2C2C34"/>
<path d="M44.4997 106.222V106.963H39.3145L39.3145 106.222H44.4997Z" fill="#2C2C34"/>
<path d="M47.4625 104H48.2033V109.185H47.4625V104Z" fill="#2C2C34"/>
<path d="M50.4255 106.222V106.963H45.2403L45.2403 106.222H50.4255Z" fill="#2C2C34"/>
<path d="M53.3885 104H54.1292V109.185H53.3885V104Z" fill="#2C2C34"/>
<path d="M56.3514 106.222V106.963H51.1663L51.1663 106.222H56.3514Z" fill="#2C2C34"/>
<path d="M59.3146 104H60.0553V109.185H59.3146V104Z" fill="#2C2C34"/>
<path d="M62.2775 106.222V106.963H57.0924L57.0924 106.222H62.2775Z" fill="#2C2C34"/>
<path d="M65.2402 104H65.9809V109.185H65.2402V104Z" fill="#2C2C34"/>
<path d="M68.2032 106.222V106.963H63.018L63.018 106.222H68.2032Z" fill="#2C2C34"/>
<path d="M71.1663 104H71.9071V109.185H71.1663V104Z" fill="#2C2C34"/>
<path d="M74.1293 106.222V106.963H68.9441L68.9441 106.222H74.1293Z" fill="#2C2C34"/>
<path d="M77.0924 104H77.8332V109.185H77.0924V104Z" fill="#2C2C34"/>
<path d="M80.0554 106.222V106.963H74.8702L74.8702 106.222H80.0554Z" fill="#2C2C34"/>
<path d="M83.0182 104H83.7589V109.185H83.0182V104Z" fill="#2C2C34"/>
<path d="M85.9811 106.222V106.963H80.7959L80.7959 106.222H85.9811Z" fill="#2C2C34"/>
<path d="M88.944 104H89.6847V109.185H88.944V104Z" fill="#2C2C34"/>
<path d="M91.9069 106.222V106.963H86.7218L86.7218 106.222H91.9069Z" fill="#2C2C34"/>
<path d="M94.8699 104H95.6107V109.185H94.8699V104Z" fill="#2C2C34"/>
<path d="M97.8329 106.222V106.963H92.6477L92.6477 106.222H97.8329Z" fill="#2C2C34"/>
<path d="M100.796 104H101.537V109.185H100.796V104Z" fill="#2C2C34"/>
<path d="M103.759 106.222V106.963H98.5736L98.5736 106.222H103.759Z" fill="#2C2C34"/>
<path d="M106.722 104H107.463V109.185H106.722V104Z" fill="#2C2C34"/>
<path d="M109.685 106.222V106.963H104.5L104.5 106.222H109.685Z" fill="#2C2C34"/>
<path d="M112.648 104H113.389V109.185H112.648V104Z" fill="#2C2C34"/>
<path d="M115.611 106.222V106.963H110.426L110.426 106.222H115.611Z" fill="#2C2C34"/>
<path d="M118.574 104H119.314V109.185H118.574V104Z" fill="#2C2C34"/>
<path d="M121.537 106.222V106.963H116.351L116.351 106.222H121.537Z" fill="#2C2C34"/>
<path d="M0.0551846 109.926H0.795925V115.111H0.0551846V109.926Z" fill="#2C2C34"/>
<path d="M3.01815 112.148V112.889H-2.16704L-2.16704 112.148H3.01815Z" fill="#2C2C34"/>
<path d="M5.98109 109.926H6.72183V115.111H5.98109V109.926Z" fill="#2C2C34"/>
<path d="M8.94405 112.148V112.889H3.75887L3.75887 112.148H8.94405Z" fill="#2C2C34"/>
<path d="M11.9069 109.926H12.6476V115.111H11.9069V109.926Z" fill="#2C2C34"/>
<path d="M14.8698 112.148V112.889H9.68465L9.68465 112.148H14.8698Z" fill="#2C2C34"/>
<path d="M17.8331 109.926H18.5739V115.111H17.8331V109.926Z" fill="#2C2C34"/>
<path d="M20.7961 112.148V112.889H15.6109L15.6109 112.148H20.7961Z" fill="#2C2C34"/>
<path d="M23.7589 109.926H24.4997V115.111H23.7589V109.926Z" fill="#2C2C34"/>
<path d="M26.7219 112.148V112.889H21.5367L21.5367 112.148H26.7219Z" fill="#2C2C34"/>
<path d="M29.6847 109.926H30.4254V115.111H29.6847V109.926Z" fill="#2C2C34"/>
<path d="M32.6477 112.148V112.889H27.4625L27.4625 112.148H32.6477Z" fill="#2C2C34"/>
<path d="M35.6107 109.926H36.3514V115.111H35.6107V109.926Z" fill="#2C2C34"/>
<path d="M38.5736 112.148V112.889H33.3884L33.3884 112.148H38.5736Z" fill="#2C2C34"/>
<path d="M41.5368 109.926H42.2775V115.111H41.5368V109.926Z" fill="#2C2C34"/>
<path d="M44.4997 112.148V112.889H39.3145L39.3145 112.148H44.4997Z" fill="#2C2C34"/>
<path d="M47.4625 109.926H48.2033V115.111H47.4625V109.926Z" fill="#2C2C34"/>
<path d="M50.4255 112.148V112.889H45.2403L45.2403 112.148H50.4255Z" fill="#2C2C34"/>
<path d="M53.3885 109.926H54.1292V115.111H53.3885V109.926Z" fill="#2C2C34"/>
<path d="M56.3514 112.148V112.889H51.1663L51.1663 112.148H56.3514Z" fill="#2C2C34"/>
<path d="M59.3146 109.926H60.0553V115.111H59.3146V109.926Z" fill="#2C2C34"/>
<path d="M62.2775 112.148V112.889H57.0924L57.0924 112.148H62.2775Z" fill="#2C2C34"/>
<path d="M65.2402 109.926H65.9809V115.111H65.2402V109.926Z" fill="#2C2C34"/>
<path d="M68.2032 112.148V112.889H63.018L63.018 112.148H68.2032Z" fill="#2C2C34"/>
<path d="M71.1663 109.926H71.9071V115.111H71.1663V109.926Z" fill="#2C2C34"/>
<path d="M74.1293 112.148V112.889H68.9441L68.9441 112.148H74.1293Z" fill="#2C2C34"/>
<path d="M77.0924 109.926H77.8332V115.111H77.0924V109.926Z" fill="#2C2C34"/>
<path d="M80.0554 112.148V112.889H74.8702L74.8702 112.148H80.0554Z" fill="#2C2C34"/>
<path d="M83.0182 109.926H83.7589V115.111H83.0182V109.926Z" fill="#2C2C34"/>
<path d="M85.9811 112.148V112.889H80.7959L80.7959 112.148H85.9811Z" fill="#2C2C34"/>
<path d="M88.944 109.926H89.6847V115.111H88.944V109.926Z" fill="#2C2C34"/>
<path d="M91.9069 112.148V112.889H86.7218L86.7218 112.148H91.9069Z" fill="#2C2C34"/>
<path d="M94.8699 109.926H95.6107V115.111H94.8699V109.926Z" fill="#2C2C34"/>
<path d="M97.8329 112.148V112.889H92.6477L92.6477 112.148H97.8329Z" fill="#2C2C34"/>
<path d="M100.796 109.926H101.537V115.111H100.796V109.926Z" fill="#2C2C34"/>
<path d="M103.759 112.148V112.889H98.5736L98.5736 112.148H103.759Z" fill="#2C2C34"/>
<path d="M106.722 109.926H107.463V115.111H106.722V109.926Z" fill="#2C2C34"/>
<path d="M109.685 112.148V112.889H104.5L104.5 112.148H109.685Z" fill="#2C2C34"/>
<path d="M112.648 109.926H113.389V115.111H112.648V109.926Z" fill="#2C2C34"/>
<path d="M115.611 112.148V112.889H110.426L110.426 112.148H115.611Z" fill="#2C2C34"/>
<path d="M118.574 109.926H119.314V115.111H118.574V109.926Z" fill="#2C2C34"/>
<path d="M121.537 112.148V112.889H116.351L116.351 112.148H121.537Z" fill="#2C2C34"/>
<path d="M0.0551846 115.852H0.795925V121.037H0.0551846V115.852Z" fill="#2C2C34"/>
<path d="M3.01815 118.074V118.815H-2.16704L-2.16704 118.074H3.01815Z" fill="#2C2C34"/>
<path d="M5.98109 115.852H6.72183V121.037H5.98109V115.852Z" fill="#2C2C34"/>
<path d="M8.94405 118.074V118.815H3.75887L3.75887 118.074H8.94405Z" fill="#2C2C34"/>
<path d="M11.9069 115.852H12.6476V121.037H11.9069V115.852Z" fill="#2C2C34"/>
<path d="M14.8698 118.074V118.815H9.68465L9.68465 118.074H14.8698Z" fill="#2C2C34"/>
<path d="M17.8331 115.852H18.5739V121.037H17.8331V115.852Z" fill="#2C2C34"/>
<path d="M20.7961 118.074V118.815H15.6109L15.6109 118.074H20.7961Z" fill="#2C2C34"/>
<path d="M23.7589 115.852H24.4997V121.037H23.7589V115.852Z" fill="#2C2C34"/>
<path d="M26.7219 118.074V118.815H21.5367L21.5367 118.074H26.7219Z" fill="#2C2C34"/>
<path d="M29.6847 115.852H30.4254V121.037H29.6847V115.852Z" fill="#2C2C34"/>
<path d="M32.6477 118.074V118.815H27.4625L27.4625 118.074H32.6477Z" fill="#2C2C34"/>
<path d="M35.6107 115.852H36.3514V121.037H35.6107V115.852Z" fill="#2C2C34"/>
<path d="M38.5736 118.074V118.815H33.3884L33.3884 118.074H38.5736Z" fill="#2C2C34"/>
<path d="M41.5368 115.852H42.2775V121.037H41.5368V115.852Z" fill="#2C2C34"/>
<path d="M44.4997 118.074V118.815H39.3145L39.3145 118.074H44.4997Z" fill="#2C2C34"/>
<path d="M47.4625 115.852H48.2033V121.037H47.4625V115.852Z" fill="#2C2C34"/>
<path d="M50.4255 118.074V118.815H45.2403L45.2403 118.074H50.4255Z" fill="#2C2C34"/>
<path d="M53.3885 115.852H54.1292V121.037H53.3885V115.852Z" fill="#2C2C34"/>
<path d="M56.3514 118.074V118.815H51.1663L51.1663 118.074H56.3514Z" fill="#2C2C34"/>
<path d="M59.3146 115.852H60.0553V121.037H59.3146V115.852Z" fill="#2C2C34"/>
<path d="M62.2775 118.074V118.815H57.0924L57.0924 118.074H62.2775Z" fill="#2C2C34"/>
<path d="M65.2402 115.852H65.9809V121.037H65.2402V115.852Z" fill="#2C2C34"/>
<path d="M68.2032 118.074V118.815H63.018L63.018 118.074H68.2032Z" fill="#2C2C34"/>
<path d="M71.1663 115.852H71.9071V121.037H71.1663V115.852Z" fill="#2C2C34"/>
<path d="M74.1293 118.074V118.815H68.9441L68.9441 118.074H74.1293Z" fill="#2C2C34"/>
<path d="M77.0924 115.852H77.8332V121.037H77.0924V115.852Z" fill="#2C2C34"/>
<path d="M80.0554 118.074V118.815H74.8702L74.8702 118.074H80.0554Z" fill="#2C2C34"/>
<path d="M83.0182 115.852H83.7589V121.037H83.0182V115.852Z" fill="#2C2C34"/>
<path d="M85.9811 118.074V118.815H80.7959L80.7959 118.074H85.9811Z" fill="#2C2C34"/>
<path d="M88.944 115.852H89.6847V121.037H88.944V115.852Z" fill="#2C2C34"/>
<path d="M91.9069 118.074V118.815H86.7218L86.7218 118.074H91.9069Z" fill="#2C2C34"/>
<path d="M94.8699 115.852H95.6107V121.037H94.8699V115.852Z" fill="#2C2C34"/>
<path d="M97.8329 118.074V118.815H92.6477L92.6477 118.074H97.8329Z" fill="#2C2C34"/>
<path d="M100.796 115.852H101.537V121.037H100.796V115.852Z" fill="#2C2C34"/>
<path d="M103.759 118.074V118.815H98.5736L98.5736 118.074H103.759Z" fill="#2C2C34"/>
<path d="M106.722 115.852H107.463V121.037H106.722V115.852Z" fill="#2C2C34"/>
<path d="M109.685 118.074V118.815H104.5L104.5 118.074H109.685Z" fill="#2C2C34"/>
<path d="M112.648 115.852H113.389V121.037H112.648V115.852Z" fill="#2C2C34"/>
<path d="M115.611 118.074V118.815H110.426L110.426 118.074H115.611Z" fill="#2C2C34"/>
<path d="M118.574 115.852H119.314V121.037H118.574V115.852Z" fill="#2C2C34"/>
<path d="M121.537 118.074V118.815H116.351L116.351 118.074H121.537Z" fill="#2C2C34"/>
</g>
<rect x="16.5" y="20" width="47.0745" height="46.3733" rx="5.33333" fill="white"/>
<path d="M35.3532 39.6906L41.2092 35.3066H29.9772V30.1866H50.1052V34.3466L41.8492 40.3306H42.1372C43.6519 40.3306 44.9212 40.48 45.9452 40.7786C46.9692 41.056 47.7906 41.44 48.4092 41.9306C49.0279 42.4 49.4652 42.9546 49.7212 43.5946C49.9986 44.2346 50.1372 44.9066 50.1372 45.6106V47.9466C50.1372 50.0586 49.3586 51.6266 47.8012 52.6506C46.2439 53.6746 43.9506 54.1866 40.9212 54.1866H30.4572V49.0666H41.7532C42.4359 49.0666 42.9266 48.9493 43.2252 48.7146C43.5452 48.4586 43.7052 47.968 43.7052 47.2426V46.3786C43.7052 45.6533 43.5346 45.184 43.1932 44.9706C42.8732 44.736 42.4146 44.6186 41.8172 44.6186H35.8972C35.0866 44.6186 34.4679 44.4053 34.0412 43.9786C33.6146 43.552 33.4012 43.008 33.4012 42.3466C33.4012 41.792 33.5719 41.3226 33.9132 40.9386C34.2759 40.5333 34.7559 40.1173 35.3532 39.6906Z" fill="#15151E"/>
<g clip-path="url(#clip1_4128_92559)">
<path d="M30.3662 83.0173C30.7396 82.3766 31.2627 81.9744 32.0371 81.9744C34.7428 81.9744 37.4485 81.9664 40.1542 81.9813C40.8029 81.9848 41.5358 82.1888 41.6349 82.8548C41.787 83.8735 41.9668 85.0512 41.5992 85.9408C41.1786 86.9571 40.3328 87.8237 38.9834 88.0645C36.3584 88.5324 34.6241 90.1549 33.8198 92.7027C33.6008 93.3976 33.5455 94.1443 33.4038 94.9279C32.3701 94.9279 31.3676 94.9279 30.3662 94.9279C30.3662 90.9569 30.3662 86.9871 30.3662 83.0173ZM64.3349 86.7739C64.1828 86.2899 64.2127 86.0572 64.7497 85.9926C65.6289 85.8866 65.8375 85.451 65.7407 84.1823C65.6808 83.4045 65.3662 83.0738 64.5561 83.0691C62.0567 83.0519 59.5584 83.0599 57.059 83.068C56.8596 83.0691 56.6442 83.1083 56.4621 83.1878C52.2537 85.0443 48.0489 86.9087 43.7817 88.7997C47.316 91.6322 47.9117 94.9555 45.554 98.847C58.7161 98.847 71.8539 98.847 85.0562 98.847C85.266 95.7057 84.419 92.3397 87.18 89.808C87.1477 89.7308 87.1155 89.6548 87.082 89.5776C85.5794 89.5776 84.0767 89.5637 82.5741 89.581C80.7972 89.6018 79.0191 89.6329 77.2434 89.6986C76.7698 89.7158 76.5739 89.5626 76.4367 89.1155C76.2985 88.6626 76.1302 88.0369 75.7868 87.8652C75.0021 87.4734 74.1655 87.7281 73.4844 88.2743C73.1272 88.56 72.8195 88.9242 72.5476 89.2941C72.2457 89.7032 71.9161 89.7804 71.4886 89.5441C71.0611 89.3079 70.6485 89.0394 70.2072 88.8366C69.5342 88.5266 68.8613 88.1913 68.1526 87.9954C67.5119 87.8179 66.8032 87.9355 66.439 87.1288C66.3411 86.911 65.8156 86.8408 65.4734 86.7889C65.1012 86.7301 64.714 86.7739 64.3349 86.7739ZM105.38 95.6331C105.695 95.3888 105.975 95.0281 106.331 94.9233C107.09 94.6997 107.889 94.6167 108.669 94.4589C108.958 94.4001 109.238 94.2964 109.53 94.1051C105.727 91.9571 101.553 91.1816 97.1708 90.5029C98.269 92.1046 98.6976 93.7352 98.5225 95.5709C99.0122 95.6054 99.4616 95.6366 100.001 95.6746C100.001 96.4351 100.017 97.1772 99.9963 97.917C99.9779 98.5935 100.26 98.9161 100.954 98.9127C103.403 98.9011 105.851 98.9046 108.299 98.9115C108.943 98.9138 109.218 98.6257 109.236 97.9747C109.29 95.9604 109.304 95.9604 107.306 95.9604C106.721 95.9604 106.137 95.9604 105.554 95.9604C105.495 95.8509 105.438 95.7426 105.38 95.6331ZM13.6896 98.2328C13.4165 98.2328 13.1434 98.2259 12.8702 98.2431C12.3851 98.2743 12.0463 98.6165 12.006 99.0959C11.9449 99.808 12.3528 100.221 13.133 100.222C18.4649 100.223 23.7967 100.223 29.1274 100.223C29.6448 100.223 30.1622 100.23 30.6796 100.219C31.1083 100.21 31.4206 100.006 31.575 99.6006C31.8493 98.8804 31.3941 98.2397 30.5898 98.2385C27.672 98.2316 24.7555 98.2362 21.8378 98.2351C19.1217 98.2328 16.4056 98.2316 13.6896 98.2328ZM18.277 94.2491C17.838 94.248 17.4865 94.3943 17.3021 94.8149C16.9968 95.5075 17.4439 96.2254 18.2102 96.2438C19.071 96.2646 19.9318 96.2496 20.7937 96.2496C22.3148 96.2496 23.8359 96.2542 25.357 96.2473C26.015 96.2438 26.4068 95.8636 26.4125 95.2574C26.4183 94.6409 26.0484 94.263 25.3812 94.2549C24.1897 94.2411 22.9993 94.2514 21.8078 94.2514C20.6301 94.2503 19.4536 94.2526 18.277 94.2491ZM76.1682 65.3819C76.9161 66.8016 77.4612 68.2339 77.7757 69.74C79.0456 75.8232 77.687 81.2588 73.6988 86.0295C73.1341 86.7048 72.5637 86.7244 71.9392 86.1217C71.2259 85.4337 70.5103 84.747 69.8027 84.0532C69.2288 83.4909 69.2093 83.0173 69.729 82.3996C71.8493 79.8783 72.8714 76.9583 72.8576 73.6776C72.8518 72.4388 72.6329 71.2254 72.2676 70.0385C72.2203 69.8852 72.2123 69.6363 72.3021 69.5384C73.5616 68.1602 74.8419 66.8016 76.1682 65.3819Z" fill="#44444B"/>
<path d="M86.3406 94.5445C86.2646 97.5314 88.7006 100.039 91.7704 100.136C94.6409 100.227 97.2705 97.7169 97.3351 94.8257C97.4042 91.689 95.0154 89.1654 91.8949 89.0801C88.9322 89.0006 86.419 91.4724 86.3406 94.5445ZM95.3288 94.3025C94.596 94.1274 94.0935 94.0064 93.59 93.8865C93.8919 93.4867 94.1926 93.0845 94.5003 92.6892C94.5188 92.6662 94.5925 92.6858 94.7193 92.6858C94.8864 93.1271 95.0604 93.5892 95.3288 94.3025ZM94.6478 96.7051C94.2583 96.3295 93.9126 96.0656 93.6752 95.7257C93.6038 95.6231 93.7985 95.1529 93.9311 95.1241C94.3159 95.04 94.7319 95.0942 95.2781 95.0942C95.058 95.6588 94.8783 96.1186 94.6478 96.7051ZM91.3279 91.1589C91.3279 91.6729 91.3533 92.0082 91.3176 92.3378C91.298 92.5187 91.2208 92.7768 91.0929 92.839C90.9742 92.8967 90.7333 92.7664 90.5789 92.6685C90.2793 92.4784 90.0016 92.2525 89.7158 92.0405C89.7561 91.9564 89.7976 91.8711 89.838 91.787C90.2954 91.5934 90.7541 91.4009 91.3279 91.1589ZM89.6663 97.3723C90.118 96.9656 90.3911 96.6959 90.6895 96.4585C91.0306 96.1866 91.2749 96.3053 91.3176 96.7178C91.3579 97.1154 91.3268 97.521 91.3268 98.0476C90.7644 97.8195 90.3081 97.6339 89.6663 97.3723ZM88.9714 92.6351C89.0624 92.6143 89.1535 92.5947 89.2434 92.574C89.5165 93.028 89.7907 93.4821 90.0638 93.9372C89.566 94.0329 89.0682 94.1285 88.3572 94.2656C88.6199 93.5696 88.7962 93.1029 88.9714 92.6351ZM88.4436 95.2394C88.4989 95.1564 88.5542 95.0746 88.6096 94.9916C89.0993 95.1068 89.5879 95.2221 90.0776 95.3362C89.7907 95.7291 89.5049 96.1244 89.2145 96.515C89.188 96.5507 89.1247 96.5588 88.9979 96.6176C88.8112 96.1543 88.628 95.6968 88.4436 95.2394ZM93.8308 97.4254C93.3687 97.6201 92.9193 97.8102 92.2556 98.0903C92.3673 97.3839 92.4469 96.8815 92.5264 96.379C92.917 96.651 93.31 96.9218 93.6983 97.1972C93.734 97.2225 93.749 97.2825 93.8308 97.4254ZM93.7928 91.7616C93.8101 91.8503 93.8285 91.9391 93.8458 92.0266C93.4217 92.3067 92.9977 92.5867 92.5736 92.8667C92.516 92.3608 92.4572 91.8549 92.4019 91.3491C92.4008 91.3341 92.4307 91.3145 92.5033 91.2361C92.9182 91.4055 93.3549 91.583 93.7928 91.7616ZM34.5107 94.4339C34.3183 97.385 36.7451 99.9594 39.8829 100.133C42.6635 100.288 45.3243 97.8494 45.5075 94.9778C45.7057 91.8849 43.3538 89.223 40.1526 89.1078C37.1415 88.9983 34.6017 91.3387 34.5107 94.4339ZM43.4494 94.1446C42.9159 94.1446 42.4999 94.2011 42.1161 94.1147C41.9756 94.0836 41.7727 93.6445 41.8384 93.5109C42.0228 93.1387 42.3339 92.8298 42.5955 92.4957C42.6842 92.5498 42.7741 92.604 42.8629 92.6581C43.0438 93.1191 43.2258 93.58 43.4494 94.1446ZM42.8536 96.5784C42.7568 96.6014 42.6612 96.6256 42.5644 96.6487C42.2971 96.205 42.0297 95.7614 41.7624 95.3177C42.2809 95.2682 42.7995 95.2186 43.431 95.1587C43.2258 95.6646 43.0392 96.1221 42.8536 96.5784ZM41.979 91.7743C41.9882 91.863 41.9963 91.9517 42.0055 92.0405C41.5826 92.3147 41.1585 92.5901 40.7356 92.8644C40.67 92.3643 40.6031 91.8642 40.5397 91.3629C40.5374 91.3479 40.5709 91.3283 40.663 91.2315C41.0767 91.4032 41.5284 91.5888 41.979 91.7743ZM37.7465 91.8884C38.4667 91.5934 38.9414 91.3986 39.5038 91.1693C39.5038 91.6798 39.5257 92.0624 39.4923 92.4403C39.4796 92.589 39.3713 92.8022 39.2526 92.8494C39.1339 92.8967 38.9242 92.8056 38.7951 92.7157C38.4851 92.5003 38.1982 92.249 37.7465 91.8884ZM42.1853 97.3781C41.5146 97.6362 41.0537 97.8125 40.4936 98.0269C40.4936 97.4933 40.4706 97.1373 40.5052 96.7881C40.5201 96.6383 40.6262 96.4251 40.7449 96.3767C40.8578 96.3306 41.0675 96.4286 41.192 96.5219C41.4754 96.7351 41.7324 96.9829 42.1853 97.3781ZM36.548 94.1458C36.7866 93.5604 36.979 93.0856 37.259 92.4C37.6174 92.8333 37.8675 93.1214 38.1014 93.4233C38.3952 93.8047 38.363 94.0939 37.8248 94.14C37.4503 94.1723 37.0712 94.1458 36.548 94.1458ZM38.023 97.4507C38.0023 97.3643 37.9815 97.2779 37.9608 97.1914C38.4068 96.9172 38.8527 96.6418 39.2998 96.3675C39.3644 96.848 39.4312 97.3286 39.49 97.8091C39.4946 97.8471 39.4496 97.8909 39.3862 98.0084C38.9357 97.8241 38.4794 97.6374 38.023 97.4507ZM37.1611 96.6498C36.9652 96.1324 36.79 95.668 36.525 94.9686C37.2452 95.1103 37.7419 95.2094 38.2397 95.3074C37.9643 95.7049 37.69 96.1025 37.4111 96.4977C37.3835 96.5346 37.3259 96.5507 37.1611 96.6498ZM70.5893 66.4908C68.7236 63.8036 66.245 62.0313 63.1187 61.1728C62.705 61.0587 62.274 61.0068 61.8603 60.8928C61.7497 60.8628 61.5884 60.7072 61.593 60.6173C61.6909 58.9257 61.8119 57.2364 61.9318 55.4825C63.9818 55.7188 65.897 56.3018 67.7246 57.1799C70.8474 58.6803 73.5589 61.167 75.0984 63.6376C73.9944 64.8165 72.8882 66.0034 71.7762 67.1834C68.2984 70.8743 64.8138 74.5583 61.3406 78.2539C60.5674 79.0767 59.6605 79.4039 58.5796 79.0502C57.6416 78.7425 57.0666 78.0511 56.9272 77.0774C56.7843 76.0748 57.1277 75.229 57.9988 74.6609C61.4282 72.4254 64.8622 70.199 68.295 67.9693C69.0521 67.4784 69.8126 66.9909 70.5893 66.4908ZM46.7704 60.6761C44.2941 62.468 41.1643 68.739 41.3464 71.5899C43.1141 71.7109 44.8829 71.8319 46.646 71.9517C47.5471 68.2389 47.8294 67.6766 50.2689 64.6978C49.0843 63.3357 47.9285 62.0071 46.7704 60.6761ZM48.3745 59.2415C49.5579 60.6116 50.716 61.9518 51.8638 63.2804C52.3835 62.9589 52.9066 62.604 53.4586 62.2998C55.2597 61.3064 57.1922 60.7821 59.2514 60.7141C59.3724 60.7107 59.5856 60.5666 59.5925 60.4756C59.7273 58.7874 59.838 57.0969 59.9578 55.335C55.5916 55.3362 51.7439 56.651 48.3745 59.2415ZM41.1643 73.6296C41.1585 73.7194 41.1505 73.7759 41.1505 73.8335C41.1747 77.5095 42.1415 80.9089 44.1454 84.0018C44.6513 84.7819 45.1756 84.8775 45.9384 84.3198C46.7151 83.7517 47.4895 83.1813 48.265 82.6109C48.9138 82.1338 48.9737 81.6579 48.5808 80.9354C48.1233 80.093 47.6716 79.2403 47.3155 78.353C46.7635 76.9725 46.5434 75.5125 46.5227 73.996C44.7089 73.8715 42.9424 73.7506 41.1643 73.6296Z" fill="#E10600"/>
</g>
</g>
<defs>
<clipPath id="clip0_4128_92559">
<rect width="120" height="120" fill="white" transform="translate(0.5)"/>
</clipPath>
<clipPath id="clip1_4128_92559">
<rect width="97.5282" height="44.8871" fill="white" transform="translate(12 55.335)"/>
</clipPath>
</defs>
</svg>
