<svg width="121" height="120" viewBox="0 0 121 120" fill="none" xmlns="http://www.w3.org/2000/svg">
<g clip-path="url(#clip0_4128_90724)">
<g opacity="0.1">
<path d="M0.0552304 -2.66663H0.795971V2.51856H0.0552304V-2.66663Z" fill="#2C2C34"/>
<path d="M3.01819 -0.444403V0.296337H-2.16699L-2.16699 -0.444403H3.01819Z" fill="#2C2C34"/>
<path d="M5.98119 -2.66669H6.72194V2.5185H5.98119V-2.66669Z" fill="#2C2C34"/>
<path d="M8.94416 -0.444464V0.296276H3.75897L3.75897 -0.444464H8.94416Z" fill="#2C2C34"/>
<path d="M11.907 -2.66669H12.6477V2.5185H11.907V-2.66669Z" fill="#2C2C34"/>
<path d="M14.8699 -0.444464V0.296276H9.68475L9.68475 -0.444464H14.8699Z" fill="#2C2C34"/>
<path d="M17.8332 -2.66669H18.5739V2.5185H17.8332V-2.66669Z" fill="#2C2C34"/>
<path d="M20.7961 -0.444464V0.296276H15.611L15.611 -0.444464H20.7961Z" fill="#2C2C34"/>
<path d="M23.759 -2.66669H24.4997V2.5185H23.759V-2.66669Z" fill="#2C2C34"/>
<path d="M26.7219 -0.444464V0.296276H21.5367L21.5367 -0.444464H26.7219Z" fill="#2C2C34"/>
<path d="M29.6849 -2.66669H30.4256V2.5185H29.6849V-2.66669Z" fill="#2C2C34"/>
<path d="M32.6478 -0.444464V0.296276H27.4626L27.4626 -0.444464H32.6478Z" fill="#2C2C34"/>
<path d="M35.6108 -2.66669H36.3515V2.5185H35.6108V-2.66669Z" fill="#2C2C34"/>
<path d="M38.5737 -0.444464V0.296276H33.3885L33.3885 -0.444464H38.5737Z" fill="#2C2C34"/>
<path d="M41.5369 -2.66669H42.2776V2.5185H41.5369V-2.66669Z" fill="#2C2C34"/>
<path d="M44.4998 -0.444464V0.296276H39.3146L39.3146 -0.444464H44.4998Z" fill="#2C2C34"/>
<path d="M47.4627 -2.66669H48.2034V2.5185H47.4627V-2.66669Z" fill="#2C2C34"/>
<path d="M50.4257 -0.444464V0.296276H45.2405L45.2405 -0.444464H50.4257Z" fill="#2C2C34"/>
<path d="M53.3885 -2.66669H54.1292V2.5185H53.3885V-2.66669Z" fill="#2C2C34"/>
<path d="M56.3514 -0.444464V0.296276H51.1663L51.1663 -0.444464H56.3514Z" fill="#2C2C34"/>
<path d="M59.3145 -2.66663H60.0552V2.51856H59.3145V-2.66663Z" fill="#2C2C34"/>
<path d="M62.2775 -0.444403V0.296337H57.0923L57.0923 -0.444403H62.2775Z" fill="#2C2C34"/>
<path d="M65.2403 -2.66669H65.981V2.5185H65.2403V-2.66669Z" fill="#2C2C34"/>
<path d="M68.2033 -0.444464V0.296276H63.0181L63.0181 -0.444464H68.2033Z" fill="#2C2C34"/>
<path d="M71.1664 -2.66669H71.9072V2.5185H71.1664V-2.66669Z" fill="#2C2C34"/>
<path d="M74.1294 -0.444464V0.296276H68.9442L68.9442 -0.444464H74.1294Z" fill="#2C2C34"/>
<path d="M77.0923 -2.66663H77.833V2.51856H77.0923V-2.66663Z" fill="#2C2C34"/>
<path d="M80.0552 -0.444403V0.296337H74.8701L74.8701 -0.444403H80.0552Z" fill="#2C2C34"/>
<path d="M83.0181 -2.66669H83.7588V2.5185H83.0181V-2.66669Z" fill="#2C2C34"/>
<path d="M85.981 -0.444464V0.296276H80.7958L80.7958 -0.444464H85.981Z" fill="#2C2C34"/>
<path d="M88.9441 -2.66669H89.6849V2.5185H88.9441V-2.66669Z" fill="#2C2C34"/>
<path d="M91.9071 -0.444464V0.296276H86.7219L86.7219 -0.444464H91.9071Z" fill="#2C2C34"/>
<path d="M94.8701 -2.66669H95.6109V2.5185H94.8701V-2.66669Z" fill="#2C2C34"/>
<path d="M97.8331 -0.444464V0.296276H92.6479L92.6479 -0.444464H97.8331Z" fill="#2C2C34"/>
<path d="M100.796 -2.66669H101.537V2.5185H100.796V-2.66669Z" fill="#2C2C34"/>
<path d="M103.759 -0.444464V0.296276H98.5737L98.5737 -0.444464H103.759Z" fill="#2C2C34"/>
<path d="M106.722 -2.66669H107.463V2.5185H106.722V-2.66669Z" fill="#2C2C34"/>
<path d="M109.685 -0.444464V0.296276H104.5L104.5 -0.444464H109.685Z" fill="#2C2C34"/>
<path d="M112.648 -2.66669H113.389V2.5185H112.648V-2.66669Z" fill="#2C2C34"/>
<path d="M115.611 -0.444464V0.296276H110.426L110.426 -0.444464H115.611Z" fill="#2C2C34"/>
<path d="M118.574 -2.66669H119.315V2.5185H118.574V-2.66669Z" fill="#2C2C34"/>
<path d="M121.537 -0.444464V0.296276H116.352L116.352 -0.444464H121.537Z" fill="#2C2C34"/>
<path d="M0.0552304 3.25928H0.795971V8.44446H0.0552304V3.25928Z" fill="#2C2C34"/>
<path d="M3.01819 5.4815V6.22224H-2.16699L-2.16699 5.4815H3.01819Z" fill="#2C2C34"/>
<path d="M5.98119 3.25928H6.72194V8.44446H5.98119V3.25928Z" fill="#2C2C34"/>
<path d="M8.94416 5.4815V6.22224H3.75897L3.75897 5.4815H8.94416Z" fill="#2C2C34"/>
<path d="M11.907 3.25928H12.6477V8.44446H11.907V3.25928Z" fill="#2C2C34"/>
<path d="M14.8699 5.4815V6.22224H9.68475L9.68475 5.4815H14.8699Z" fill="#2C2C34"/>
<path d="M17.8332 3.25928H18.5739V8.44446H17.8332V3.25928Z" fill="#2C2C34"/>
<path d="M20.7961 5.4815V6.22224H15.611L15.611 5.4815H20.7961Z" fill="#2C2C34"/>
<path d="M23.759 3.25928H24.4997V8.44446H23.759V3.25928Z" fill="#2C2C34"/>
<path d="M26.7219 5.4815V6.22224H21.5367L21.5367 5.4815H26.7219Z" fill="#2C2C34"/>
<path d="M29.6849 3.25928H30.4256V8.44446H29.6849V3.25928Z" fill="#2C2C34"/>
<path d="M32.6478 5.4815V6.22224H27.4626L27.4626 5.4815H32.6478Z" fill="#2C2C34"/>
<path d="M35.6108 3.25928H36.3515V8.44446H35.6108V3.25928Z" fill="#2C2C34"/>
<path d="M38.5737 5.4815V6.22224H33.3885L33.3885 5.4815H38.5737Z" fill="#2C2C34"/>
<path d="M41.5369 3.25928H42.2776V8.44446H41.5369V3.25928Z" fill="#2C2C34"/>
<path d="M44.4998 5.4815V6.22224H39.3146L39.3146 5.4815H44.4998Z" fill="#2C2C34"/>
<path d="M47.4627 3.25928H48.2034V8.44446H47.4627V3.25928Z" fill="#2C2C34"/>
<path d="M50.4257 5.4815V6.22224H45.2405L45.2405 5.4815H50.4257Z" fill="#2C2C34"/>
<path d="M53.3885 3.25928H54.1292V8.44446H53.3885V3.25928Z" fill="#2C2C34"/>
<path d="M56.3514 5.4815V6.22224H51.1663L51.1663 5.4815H56.3514Z" fill="#2C2C34"/>
<path d="M59.3145 3.25928H60.0552V8.44446H59.3145V3.25928Z" fill="#2C2C34"/>
<path d="M62.2775 5.4815V6.22224H57.0923L57.0923 5.4815H62.2775Z" fill="#2C2C34"/>
<path d="M65.2403 3.25928H65.981V8.44446H65.2403V3.25928Z" fill="#2C2C34"/>
<path d="M68.2033 5.4815V6.22224H63.0181L63.0181 5.4815H68.2033Z" fill="#2C2C34"/>
<path d="M71.1664 3.25928H71.9072V8.44446H71.1664V3.25928Z" fill="#2C2C34"/>
<path d="M74.1294 5.4815V6.22224H68.9442L68.9442 5.4815H74.1294Z" fill="#2C2C34"/>
<path d="M77.0923 3.25928H77.833V8.44446H77.0923V3.25928Z" fill="#2C2C34"/>
<path d="M80.0552 5.4815V6.22224H74.8701L74.8701 5.4815H80.0552Z" fill="#2C2C34"/>
<path d="M83.0181 3.25928H83.7588V8.44446H83.0181V3.25928Z" fill="#2C2C34"/>
<path d="M85.981 5.4815V6.22224H80.7958L80.7958 5.4815H85.981Z" fill="#2C2C34"/>
<path d="M88.9441 3.25928H89.6849V8.44446H88.9441V3.25928Z" fill="#2C2C34"/>
<path d="M91.9071 5.4815V6.22224H86.7219L86.7219 5.4815H91.9071Z" fill="#2C2C34"/>
<path d="M94.8701 3.25928H95.6109V8.44446H94.8701V3.25928Z" fill="#2C2C34"/>
<path d="M97.8331 5.4815V6.22224H92.6479L92.6479 5.4815H97.8331Z" fill="#2C2C34"/>
<path d="M100.796 3.25928H101.537V8.44446H100.796V3.25928Z" fill="#2C2C34"/>
<path d="M103.759 5.4815V6.22224H98.5737L98.5737 5.4815H103.759Z" fill="#2C2C34"/>
<path d="M106.722 3.25928H107.463V8.44446H106.722V3.25928Z" fill="#2C2C34"/>
<path d="M109.685 5.4815V6.22224H104.5L104.5 5.4815H109.685Z" fill="#2C2C34"/>
<path d="M112.648 3.25928H113.389V8.44446H112.648V3.25928Z" fill="#2C2C34"/>
<path d="M115.611 5.4815V6.22224H110.426L110.426 5.4815H115.611Z" fill="#2C2C34"/>
<path d="M118.574 3.25928H119.315V8.44446H118.574V3.25928Z" fill="#2C2C34"/>
<path d="M121.537 5.4815V6.22224H116.352L116.352 5.4815H121.537Z" fill="#2C2C34"/>
<path d="M0.0552304 9.18524H0.795971V14.3704H0.0552304V9.18524Z" fill="#2C2C34"/>
<path d="M3.01819 11.4075V12.1482H-2.16699L-2.16699 11.4075H3.01819Z" fill="#2C2C34"/>
<path d="M5.98119 9.1853H6.72194V14.3705H5.98119V9.1853Z" fill="#2C2C34"/>
<path d="M8.94416 11.4075V12.1483H3.75897L3.75897 11.4075H8.94416Z" fill="#2C2C34"/>
<path d="M11.907 9.1853H12.6477V14.3705H11.907V9.1853Z" fill="#2C2C34"/>
<path d="M14.8699 11.4075V12.1483H9.68475L9.68475 11.4075H14.8699Z" fill="#2C2C34"/>
<path d="M17.8332 9.1853H18.5739V14.3705H17.8332V9.1853Z" fill="#2C2C34"/>
<path d="M20.7961 11.4075V12.1483H15.611L15.611 11.4075H20.7961Z" fill="#2C2C34"/>
<path d="M23.759 9.1853H24.4997V14.3705H23.759V9.1853Z" fill="#2C2C34"/>
<path d="M26.7219 11.4075V12.1483H21.5367L21.5367 11.4075H26.7219Z" fill="#2C2C34"/>
<path d="M29.6849 9.1853H30.4256V14.3705H29.6849V9.1853Z" fill="#2C2C34"/>
<path d="M32.6478 11.4075V12.1483H27.4626L27.4626 11.4075H32.6478Z" fill="#2C2C34"/>
<path d="M35.6108 9.1853H36.3515V14.3705H35.6108V9.1853Z" fill="#2C2C34"/>
<path d="M38.5737 11.4075V12.1483H33.3885L33.3885 11.4075H38.5737Z" fill="#2C2C34"/>
<path d="M41.5369 9.1853H42.2776V14.3705H41.5369V9.1853Z" fill="#2C2C34"/>
<path d="M44.4998 11.4075V12.1483H39.3146L39.3146 11.4075H44.4998Z" fill="#2C2C34"/>
<path d="M47.4627 9.1853H48.2034V14.3705H47.4627V9.1853Z" fill="#2C2C34"/>
<path d="M50.4257 11.4075V12.1483H45.2405L45.2405 11.4075H50.4257Z" fill="#2C2C34"/>
<path d="M53.3885 9.1853H54.1292V14.3705H53.3885V9.1853Z" fill="#2C2C34"/>
<path d="M56.3514 11.4075V12.1483H51.1663L51.1663 11.4075H56.3514Z" fill="#2C2C34"/>
<path d="M59.3145 9.18524H60.0552V14.3704H59.3145V9.18524Z" fill="#2C2C34"/>
<path d="M62.2775 11.4075V12.1482H57.0923L57.0923 11.4075H62.2775Z" fill="#2C2C34"/>
<path d="M65.2403 9.1853H65.981V14.3705H65.2403V9.1853Z" fill="#2C2C34"/>
<path d="M68.2033 11.4075V12.1483H63.0181L63.0181 11.4075H68.2033Z" fill="#2C2C34"/>
<path d="M71.1664 9.1853H71.9072V14.3705H71.1664V9.1853Z" fill="#2C2C34"/>
<path d="M74.1294 11.4075V12.1483H68.9442L68.9442 11.4075H74.1294Z" fill="#2C2C34"/>
<path d="M77.0923 9.18524H77.833V14.3704H77.0923V9.18524Z" fill="#2C2C34"/>
<path d="M80.0552 11.4075V12.1482H74.8701L74.8701 11.4075H80.0552Z" fill="#2C2C34"/>
<path d="M83.0181 9.1853H83.7588V14.3705H83.0181V9.1853Z" fill="#2C2C34"/>
<path d="M85.981 11.4075V12.1483H80.7958L80.7958 11.4075H85.981Z" fill="#2C2C34"/>
<path d="M88.9441 9.1853H89.6849V14.3705H88.9441V9.1853Z" fill="#2C2C34"/>
<path d="M91.9071 11.4075V12.1483H86.7219L86.7219 11.4075H91.9071Z" fill="#2C2C34"/>
<path d="M94.8701 9.1853H95.6109V14.3705H94.8701V9.1853Z" fill="#2C2C34"/>
<path d="M97.8331 11.4075V12.1483H92.6479L92.6479 11.4075H97.8331Z" fill="#2C2C34"/>
<path d="M100.796 9.1853H101.537V14.3705H100.796V9.1853Z" fill="#2C2C34"/>
<path d="M103.759 11.4075V12.1483H98.5737L98.5737 11.4075H103.759Z" fill="#2C2C34"/>
<path d="M106.722 9.1853H107.463V14.3705H106.722V9.1853Z" fill="#2C2C34"/>
<path d="M109.685 11.4075V12.1483H104.5L104.5 11.4075H109.685Z" fill="#2C2C34"/>
<path d="M112.648 9.1853H113.389V14.3705H112.648V9.1853Z" fill="#2C2C34"/>
<path d="M115.611 11.4075V12.1483H110.426L110.426 11.4075H115.611Z" fill="#2C2C34"/>
<path d="M118.574 9.1853H119.315V14.3705H118.574V9.1853Z" fill="#2C2C34"/>
<path d="M121.537 11.4075V12.1483H116.352L116.352 11.4075H121.537Z" fill="#2C2C34"/>
<path d="M0.0552304 15.1111H0.795971V20.2963H0.0552304V15.1111Z" fill="#2C2C34"/>
<path d="M3.01819 17.3334V18.0741H-2.16699L-2.16699 17.3334H3.01819Z" fill="#2C2C34"/>
<path d="M5.98119 15.1111H6.72194V20.2963H5.98119V15.1111Z" fill="#2C2C34"/>
<path d="M8.94416 17.3333V18.074H3.75897L3.75897 17.3333H8.94416Z" fill="#2C2C34"/>
<path d="M11.907 15.1111H12.6477V20.2963H11.907V15.1111Z" fill="#2C2C34"/>
<path d="M14.8699 17.3333V18.074H9.68475L9.68475 17.3333H14.8699Z" fill="#2C2C34"/>
<path d="M17.8332 15.1111H18.5739V20.2963H17.8332V15.1111Z" fill="#2C2C34"/>
<path d="M20.7961 17.3333V18.074H15.611L15.611 17.3333H20.7961Z" fill="#2C2C34"/>
<path d="M23.759 15.1111H24.4997V20.2963H23.759V15.1111Z" fill="#2C2C34"/>
<path d="M26.7219 17.3333V18.074H21.5367L21.5367 17.3333H26.7219Z" fill="#2C2C34"/>
<path d="M29.6849 15.1111H30.4256V20.2963H29.6849V15.1111Z" fill="#2C2C34"/>
<path d="M32.6478 17.3333V18.074H27.4626L27.4626 17.3333H32.6478Z" fill="#2C2C34"/>
<path d="M35.6108 15.1111H36.3515V20.2963H35.6108V15.1111Z" fill="#2C2C34"/>
<path d="M38.5737 17.3333V18.074H33.3885L33.3885 17.3333H38.5737Z" fill="#2C2C34"/>
<path d="M41.5369 15.1111H42.2776V20.2963H41.5369V15.1111Z" fill="#2C2C34"/>
<path d="M44.4998 17.3333V18.074H39.3146L39.3146 17.3333H44.4998Z" fill="#2C2C34"/>
<path d="M47.4627 15.1111H48.2034V20.2963H47.4627V15.1111Z" fill="#2C2C34"/>
<path d="M50.4257 17.3333V18.074H45.2405L45.2405 17.3333H50.4257Z" fill="#2C2C34"/>
<path d="M53.3885 15.1111H54.1292V20.2963H53.3885V15.1111Z" fill="#2C2C34"/>
<path d="M56.3514 17.3333V18.074H51.1663L51.1663 17.3333H56.3514Z" fill="#2C2C34"/>
<path d="M59.3145 15.1111H60.0552V20.2963H59.3145V15.1111Z" fill="#2C2C34"/>
<path d="M62.2775 17.3334V18.0741H57.0923L57.0923 17.3334H62.2775Z" fill="#2C2C34"/>
<path d="M65.2403 15.1111H65.981V20.2963H65.2403V15.1111Z" fill="#2C2C34"/>
<path d="M68.2033 17.3333V18.074H63.0181L63.0181 17.3333H68.2033Z" fill="#2C2C34"/>
<path d="M71.1664 15.1111H71.9072V20.2963H71.1664V15.1111Z" fill="#2C2C34"/>
<path d="M74.1294 17.3333V18.074H68.9442L68.9442 17.3333H74.1294Z" fill="#2C2C34"/>
<path d="M77.0923 15.1111H77.833V20.2963H77.0923V15.1111Z" fill="#2C2C34"/>
<path d="M80.0552 17.3334V18.0741H74.8701L74.8701 17.3334H80.0552Z" fill="#2C2C34"/>
<path d="M83.0181 15.1111H83.7588V20.2963H83.0181V15.1111Z" fill="#2C2C34"/>
<path d="M85.981 17.3333V18.074H80.7958L80.7958 17.3333H85.981Z" fill="#2C2C34"/>
<path d="M88.9441 15.1111H89.6849V20.2963H88.9441V15.1111Z" fill="#2C2C34"/>
<path d="M91.9071 17.3333V18.074H86.7219L86.7219 17.3333H91.9071Z" fill="#2C2C34"/>
<path d="M94.8701 15.1111H95.6109V20.2963H94.8701V15.1111Z" fill="#2C2C34"/>
<path d="M97.8331 17.3333V18.074H92.6479L92.6479 17.3333H97.8331Z" fill="#2C2C34"/>
<path d="M100.796 15.1111H101.537V20.2963H100.796V15.1111Z" fill="#2C2C34"/>
<path d="M103.759 17.3333V18.074H98.5737L98.5737 17.3333H103.759Z" fill="#2C2C34"/>
<path d="M106.722 15.1111H107.463V20.2963H106.722V15.1111Z" fill="#2C2C34"/>
<path d="M109.685 17.3333V18.074H104.5L104.5 17.3333H109.685Z" fill="#2C2C34"/>
<path d="M112.648 15.1111H113.389V20.2963H112.648V15.1111Z" fill="#2C2C34"/>
<path d="M115.611 17.3333V18.074H110.426L110.426 17.3333H115.611Z" fill="#2C2C34"/>
<path d="M118.574 15.1111H119.315V20.2963H118.574V15.1111Z" fill="#2C2C34"/>
<path d="M121.537 17.3333V18.074H116.352L116.352 17.3333H121.537Z" fill="#2C2C34"/>
<path d="M0.0552304 21.0371H0.795971V26.2223H0.0552304V21.0371Z" fill="#2C2C34"/>
<path d="M3.01819 23.2593V24.0001H-2.16699L-2.16699 23.2593H3.01819Z" fill="#2C2C34"/>
<path d="M5.98119 21.0371H6.72194V26.2223H5.98119V21.0371Z" fill="#2C2C34"/>
<path d="M8.94416 23.2593V24.0001H3.75897L3.75897 23.2593H8.94416Z" fill="#2C2C34"/>
<path d="M11.907 21.0371H12.6477V26.2223H11.907V21.0371Z" fill="#2C2C34"/>
<path d="M14.8699 23.2593V24.0001H9.68475L9.68475 23.2593H14.8699Z" fill="#2C2C34"/>
<path d="M17.8332 21.0371H18.5739V26.2223H17.8332V21.0371Z" fill="#2C2C34"/>
<path d="M20.7961 23.2593V24.0001H15.611L15.611 23.2593H20.7961Z" fill="#2C2C34"/>
<path d="M23.759 21.0371H24.4997V26.2223H23.759V21.0371Z" fill="#2C2C34"/>
<path d="M26.7219 23.2593V24.0001H21.5367L21.5367 23.2593H26.7219Z" fill="#2C2C34"/>
<path d="M29.6849 21.0371H30.4256V26.2223H29.6849V21.0371Z" fill="#2C2C34"/>
<path d="M32.6478 23.2593V24.0001H27.4626L27.4626 23.2593H32.6478Z" fill="#2C2C34"/>
<path d="M35.6108 21.0371H36.3515V26.2223H35.6108V21.0371Z" fill="#2C2C34"/>
<path d="M38.5737 23.2593V24.0001H33.3885L33.3885 23.2593H38.5737Z" fill="#2C2C34"/>
<path d="M41.5369 21.0371H42.2776V26.2223H41.5369V21.0371Z" fill="#2C2C34"/>
<path d="M44.4998 23.2593V24.0001H39.3146L39.3146 23.2593H44.4998Z" fill="#2C2C34"/>
<path d="M47.4627 21.0371H48.2034V26.2223H47.4627V21.0371Z" fill="#2C2C34"/>
<path d="M50.4257 23.2593V24.0001H45.2405L45.2405 23.2593H50.4257Z" fill="#2C2C34"/>
<path d="M53.3885 21.0371H54.1292V26.2223H53.3885V21.0371Z" fill="#2C2C34"/>
<path d="M56.3514 23.2593V24.0001H51.1663L51.1663 23.2593H56.3514Z" fill="#2C2C34"/>
<path d="M59.3145 21.0371H60.0552V26.2223H59.3145V21.0371Z" fill="#2C2C34"/>
<path d="M62.2775 23.2593V24.0001H57.0923L57.0923 23.2593H62.2775Z" fill="#2C2C34"/>
<path d="M65.2403 21.0371H65.981V26.2223H65.2403V21.0371Z" fill="#2C2C34"/>
<path d="M68.2033 23.2593V24.0001H63.0181L63.0181 23.2593H68.2033Z" fill="#2C2C34"/>
<path d="M71.1664 21.0371H71.9072V26.2223H71.1664V21.0371Z" fill="#2C2C34"/>
<path d="M74.1294 23.2593V24.0001H68.9442L68.9442 23.2593H74.1294Z" fill="#2C2C34"/>
<path d="M77.0923 21.0371H77.833V26.2223H77.0923V21.0371Z" fill="#2C2C34"/>
<path d="M80.0552 23.2593V24.0001H74.8701L74.8701 23.2593H80.0552Z" fill="#2C2C34"/>
<path d="M83.0181 21.0371H83.7588V26.2223H83.0181V21.0371Z" fill="#2C2C34"/>
<path d="M85.981 23.2593V24.0001H80.7958L80.7958 23.2593H85.981Z" fill="#2C2C34"/>
<path d="M88.9441 21.0371H89.6849V26.2223H88.9441V21.0371Z" fill="#2C2C34"/>
<path d="M91.9071 23.2593V24.0001H86.7219L86.7219 23.2593H91.9071Z" fill="#2C2C34"/>
<path d="M94.8701 21.0371H95.6109V26.2223H94.8701V21.0371Z" fill="#2C2C34"/>
<path d="M97.8331 23.2593V24.0001H92.6479L92.6479 23.2593H97.8331Z" fill="#2C2C34"/>
<path d="M100.796 21.0371H101.537V26.2223H100.796V21.0371Z" fill="#2C2C34"/>
<path d="M103.759 23.2593V24.0001H98.5737L98.5737 23.2593H103.759Z" fill="#2C2C34"/>
<path d="M106.722 21.0371H107.463V26.2223H106.722V21.0371Z" fill="#2C2C34"/>
<path d="M109.685 23.2593V24.0001H104.5L104.5 23.2593H109.685Z" fill="#2C2C34"/>
<path d="M112.648 21.0371H113.389V26.2223H112.648V21.0371Z" fill="#2C2C34"/>
<path d="M115.611 23.2593V24.0001H110.426L110.426 23.2593H115.611Z" fill="#2C2C34"/>
<path d="M118.574 21.0371H119.315V26.2223H118.574V21.0371Z" fill="#2C2C34"/>
<path d="M121.537 23.2593V24.0001H116.352L116.352 23.2593H121.537Z" fill="#2C2C34"/>
<path d="M0.0552304 26.9629H0.795971V32.1481H0.0552304V26.9629Z" fill="#2C2C34"/>
<path d="M3.01819 29.1851V29.9259H-2.16699L-2.16699 29.1851H3.01819Z" fill="#2C2C34"/>
<path d="M5.98119 26.9629H6.72194V32.1481H5.98119V26.9629Z" fill="#2C2C34"/>
<path d="M8.94416 29.1851V29.9259H3.75897L3.75897 29.1851H8.94416Z" fill="#2C2C34"/>
<path d="M11.907 26.9629H12.6477V32.1481H11.907V26.9629Z" fill="#2C2C34"/>
<path d="M14.8699 29.1851V29.9259H9.68475L9.68475 29.1851H14.8699Z" fill="#2C2C34"/>
<path d="M17.8332 26.9629H18.5739V32.1481H17.8332V26.9629Z" fill="#2C2C34"/>
<path d="M20.7961 29.1851V29.9259H15.611L15.611 29.1851H20.7961Z" fill="#2C2C34"/>
<path d="M23.759 26.9629H24.4997V32.1481H23.759V26.9629Z" fill="#2C2C34"/>
<path d="M26.7219 29.1851V29.9259H21.5367L21.5367 29.1851H26.7219Z" fill="#2C2C34"/>
<path d="M29.6849 26.9629H30.4256V32.1481H29.6849V26.9629Z" fill="#2C2C34"/>
<path d="M32.6478 29.1851V29.9259H27.4626L27.4626 29.1851H32.6478Z" fill="#2C2C34"/>
<path d="M35.6108 26.9629H36.3515V32.1481H35.6108V26.9629Z" fill="#2C2C34"/>
<path d="M38.5737 29.1851V29.9259H33.3885L33.3885 29.1851H38.5737Z" fill="#2C2C34"/>
<path d="M41.5369 26.9629H42.2776V32.1481H41.5369V26.9629Z" fill="#2C2C34"/>
<path d="M44.4998 29.1851V29.9259H39.3146L39.3146 29.1851H44.4998Z" fill="#2C2C34"/>
<path d="M47.4627 26.9629H48.2034V32.1481H47.4627V26.9629Z" fill="#2C2C34"/>
<path d="M50.4257 29.1851V29.9259H45.2405L45.2405 29.1851H50.4257Z" fill="#2C2C34"/>
<path d="M53.3885 26.9629H54.1292V32.1481H53.3885V26.9629Z" fill="#2C2C34"/>
<path d="M56.3514 29.1851V29.9259H51.1663L51.1663 29.1851H56.3514Z" fill="#2C2C34"/>
<path d="M59.3145 26.9629H60.0552V32.1481H59.3145V26.9629Z" fill="#2C2C34"/>
<path d="M62.2775 29.1851V29.9259H57.0923L57.0923 29.1851H62.2775Z" fill="#2C2C34"/>
<path d="M65.2403 26.9629H65.981V32.1481H65.2403V26.9629Z" fill="#2C2C34"/>
<path d="M68.2033 29.1851V29.9259H63.0181L63.0181 29.1851H68.2033Z" fill="#2C2C34"/>
<path d="M71.1664 26.9629H71.9072V32.1481H71.1664V26.9629Z" fill="#2C2C34"/>
<path d="M74.1294 29.1851V29.9259H68.9442L68.9442 29.1851H74.1294Z" fill="#2C2C34"/>
<path d="M77.0923 26.9629H77.833V32.1481H77.0923V26.9629Z" fill="#2C2C34"/>
<path d="M80.0552 29.1851V29.9259H74.8701L74.8701 29.1851H80.0552Z" fill="#2C2C34"/>
<path d="M83.0181 26.9629H83.7588V32.1481H83.0181V26.9629Z" fill="#2C2C34"/>
<path d="M85.981 29.1851V29.9259H80.7958L80.7958 29.1851H85.981Z" fill="#2C2C34"/>
<path d="M88.9441 26.9629H89.6849V32.1481H88.9441V26.9629Z" fill="#2C2C34"/>
<path d="M91.9071 29.1851V29.9259H86.7219L86.7219 29.1851H91.9071Z" fill="#2C2C34"/>
<path d="M94.8701 26.9629H95.6109V32.1481H94.8701V26.9629Z" fill="#2C2C34"/>
<path d="M97.8331 29.1851V29.9259H92.6479L92.6479 29.1851H97.8331Z" fill="#2C2C34"/>
<path d="M100.796 26.9629H101.537V32.1481H100.796V26.9629Z" fill="#2C2C34"/>
<path d="M103.759 29.1851V29.9259H98.5737L98.5737 29.1851H103.759Z" fill="#2C2C34"/>
<path d="M106.722 26.9629H107.463V32.1481H106.722V26.9629Z" fill="#2C2C34"/>
<path d="M109.685 29.1851V29.9259H104.5L104.5 29.1851H109.685Z" fill="#2C2C34"/>
<path d="M112.648 26.9629H113.389V32.1481H112.648V26.9629Z" fill="#2C2C34"/>
<path d="M115.611 29.1851V29.9259H110.426L110.426 29.1851H115.611Z" fill="#2C2C34"/>
<path d="M118.574 26.9629H119.315V32.1481H118.574V26.9629Z" fill="#2C2C34"/>
<path d="M121.537 29.1851V29.9259H116.352L116.352 29.1851H121.537Z" fill="#2C2C34"/>
<path d="M0.0552304 32.889H0.795971V38.0742H0.0552304V32.889Z" fill="#2C2C34"/>
<path d="M3.01819 35.1112V35.8519H-2.16699L-2.16699 35.1112H3.01819Z" fill="#2C2C34"/>
<path d="M5.98119 32.889H6.72194V38.0742H5.98119V32.889Z" fill="#2C2C34"/>
<path d="M8.94416 35.1113V35.852H3.75897L3.75897 35.1113H8.94416Z" fill="#2C2C34"/>
<path d="M11.907 32.889H12.6477V38.0742H11.907V32.889Z" fill="#2C2C34"/>
<path d="M14.8699 35.1113V35.852H9.68475L9.68475 35.1113H14.8699Z" fill="#2C2C34"/>
<path d="M17.8332 32.889H18.5739V38.0742H17.8332V32.889Z" fill="#2C2C34"/>
<path d="M20.7961 35.1113V35.852H15.611L15.611 35.1113H20.7961Z" fill="#2C2C34"/>
<path d="M23.759 32.889H24.4997V38.0742H23.759V32.889Z" fill="#2C2C34"/>
<path d="M26.7219 35.1113V35.852H21.5367L21.5367 35.1113H26.7219Z" fill="#2C2C34"/>
<path d="M29.6849 32.889H30.4256V38.0742H29.6849V32.889Z" fill="#2C2C34"/>
<path d="M32.6478 35.1113V35.852H27.4626L27.4626 35.1113H32.6478Z" fill="#2C2C34"/>
<path d="M35.6108 32.889H36.3515V38.0742H35.6108V32.889Z" fill="#2C2C34"/>
<path d="M38.5737 35.1113V35.852H33.3885L33.3885 35.1113H38.5737Z" fill="#2C2C34"/>
<path d="M41.5369 32.889H42.2776V38.0742H41.5369V32.889Z" fill="#2C2C34"/>
<path d="M44.4998 35.1113V35.852H39.3146L39.3146 35.1113H44.4998Z" fill="#2C2C34"/>
<path d="M47.4627 32.889H48.2034V38.0742H47.4627V32.889Z" fill="#2C2C34"/>
<path d="M50.4257 35.1113V35.852H45.2405L45.2405 35.1113H50.4257Z" fill="#2C2C34"/>
<path d="M53.3885 32.889H54.1292V38.0742H53.3885V32.889Z" fill="#2C2C34"/>
<path d="M56.3514 35.1113V35.852H51.1663L51.1663 35.1113H56.3514Z" fill="#2C2C34"/>
<path d="M59.3145 32.889H60.0552V38.0742H59.3145V32.889Z" fill="#2C2C34"/>
<path d="M62.2775 35.1112V35.8519H57.0923L57.0923 35.1112H62.2775Z" fill="#2C2C34"/>
<path d="M65.2403 32.889H65.981V38.0742H65.2403V32.889Z" fill="#2C2C34"/>
<path d="M68.2033 35.1113V35.852H63.0181L63.0181 35.1113H68.2033Z" fill="#2C2C34"/>
<path d="M71.1664 32.889H71.9072V38.0742H71.1664V32.889Z" fill="#2C2C34"/>
<path d="M74.1294 35.1113V35.852H68.9442L68.9442 35.1113H74.1294Z" fill="#2C2C34"/>
<path d="M77.0923 32.889H77.833V38.0742H77.0923V32.889Z" fill="#2C2C34"/>
<path d="M80.0552 35.1112V35.8519H74.8701L74.8701 35.1112H80.0552Z" fill="#2C2C34"/>
<path d="M83.0181 32.889H83.7588V38.0742H83.0181V32.889Z" fill="#2C2C34"/>
<path d="M85.981 35.1113V35.852H80.7958L80.7958 35.1113H85.981Z" fill="#2C2C34"/>
<path d="M88.9441 32.889H89.6849V38.0742H88.9441V32.889Z" fill="#2C2C34"/>
<path d="M91.9071 35.1113V35.852H86.7219L86.7219 35.1113H91.9071Z" fill="#2C2C34"/>
<path d="M94.8701 32.889H95.6109V38.0742H94.8701V32.889Z" fill="#2C2C34"/>
<path d="M97.8331 35.1113V35.852H92.6479L92.6479 35.1113H97.8331Z" fill="#2C2C34"/>
<path d="M100.796 32.889H101.537V38.0742H100.796V32.889Z" fill="#2C2C34"/>
<path d="M103.759 35.1113V35.852H98.5737L98.5737 35.1113H103.759Z" fill="#2C2C34"/>
<path d="M106.722 32.889H107.463V38.0742H106.722V32.889Z" fill="#2C2C34"/>
<path d="M109.685 35.1113V35.852H104.5L104.5 35.1113H109.685Z" fill="#2C2C34"/>
<path d="M112.648 32.889H113.389V38.0742H112.648V32.889Z" fill="#2C2C34"/>
<path d="M115.611 35.1113V35.852H110.426L110.426 35.1113H115.611Z" fill="#2C2C34"/>
<path d="M118.574 32.889H119.315V38.0742H118.574V32.889Z" fill="#2C2C34"/>
<path d="M121.537 35.1113V35.852H116.352L116.352 35.1113H121.537Z" fill="#2C2C34"/>
<path d="M0.0552304 38.8148H0.795971V43.9999H0.0552304V38.8148Z" fill="#2C2C34"/>
<path d="M3.01819 41.037V41.7777H-2.16699L-2.16699 41.037H3.01819Z" fill="#2C2C34"/>
<path d="M5.98119 38.8148H6.72194V44H5.98119V38.8148Z" fill="#2C2C34"/>
<path d="M8.94416 41.037V41.7778H3.75897L3.75897 41.037H8.94416Z" fill="#2C2C34"/>
<path d="M11.907 38.8148H12.6477V44H11.907V38.8148Z" fill="#2C2C34"/>
<path d="M14.8699 41.037V41.7778H9.68475L9.68475 41.037H14.8699Z" fill="#2C2C34"/>
<path d="M17.8332 38.8148H18.5739V44H17.8332V38.8148Z" fill="#2C2C34"/>
<path d="M20.7961 41.037V41.7778H15.611L15.611 41.037H20.7961Z" fill="#2C2C34"/>
<path d="M23.759 38.8148H24.4997V44H23.759V38.8148Z" fill="#2C2C34"/>
<path d="M26.7219 41.037V41.7778H21.5367L21.5367 41.037H26.7219Z" fill="#2C2C34"/>
<path d="M29.6849 38.8148H30.4256V44H29.6849V38.8148Z" fill="#2C2C34"/>
<path d="M32.6478 41.037V41.7778H27.4626L27.4626 41.037H32.6478Z" fill="#2C2C34"/>
<path d="M35.6108 38.8148H36.3515V44H35.6108V38.8148Z" fill="#2C2C34"/>
<path d="M38.5737 41.037V41.7778H33.3885L33.3885 41.037H38.5737Z" fill="#2C2C34"/>
<path d="M41.5369 38.8148H42.2776V44H41.5369V38.8148Z" fill="#2C2C34"/>
<path d="M44.4998 41.037V41.7778H39.3146L39.3146 41.037H44.4998Z" fill="#2C2C34"/>
<path d="M47.4627 38.8148H48.2034V44H47.4627V38.8148Z" fill="#2C2C34"/>
<path d="M50.4257 41.037V41.7778H45.2405L45.2405 41.037H50.4257Z" fill="#2C2C34"/>
<path d="M53.3885 38.8148H54.1292V44H53.3885V38.8148Z" fill="#2C2C34"/>
<path d="M56.3514 41.037V41.7778H51.1663L51.1663 41.037H56.3514Z" fill="#2C2C34"/>
<path d="M59.3145 38.8148H60.0552V43.9999H59.3145V38.8148Z" fill="#2C2C34"/>
<path d="M62.2775 41.037V41.7777H57.0923L57.0923 41.037H62.2775Z" fill="#2C2C34"/>
<path d="M65.2403 38.8148H65.981V44H65.2403V38.8148Z" fill="#2C2C34"/>
<path d="M68.2033 41.037V41.7778H63.0181L63.0181 41.037H68.2033Z" fill="#2C2C34"/>
<path d="M71.1664 38.8148H71.9072V44H71.1664V38.8148Z" fill="#2C2C34"/>
<path d="M74.1294 41.037V41.7778H68.9442L68.9442 41.037H74.1294Z" fill="#2C2C34"/>
<path d="M77.0923 38.8148H77.833V43.9999H77.0923V38.8148Z" fill="#2C2C34"/>
<path d="M80.0552 41.037V41.7777H74.8701L74.8701 41.037H80.0552Z" fill="#2C2C34"/>
<path d="M83.0181 38.8148H83.7588V44H83.0181V38.8148Z" fill="#2C2C34"/>
<path d="M85.981 41.037V41.7778H80.7958L80.7958 41.037H85.981Z" fill="#2C2C34"/>
<path d="M88.9441 38.8148H89.6849V44H88.9441V38.8148Z" fill="#2C2C34"/>
<path d="M91.9071 41.037V41.7778H86.7219L86.7219 41.037H91.9071Z" fill="#2C2C34"/>
<path d="M94.8701 38.8148H95.6109V44H94.8701V38.8148Z" fill="#2C2C34"/>
<path d="M97.8331 41.037V41.7778H92.6479L92.6479 41.037H97.8331Z" fill="#2C2C34"/>
<path d="M100.796 38.8148H101.537V44H100.796V38.8148Z" fill="#2C2C34"/>
<path d="M103.759 41.037V41.7778H98.5737L98.5737 41.037H103.759Z" fill="#2C2C34"/>
<path d="M106.722 38.8148H107.463V44H106.722V38.8148Z" fill="#2C2C34"/>
<path d="M109.685 41.037V41.7778H104.5L104.5 41.037H109.685Z" fill="#2C2C34"/>
<path d="M112.648 38.8148H113.389V44H112.648V38.8148Z" fill="#2C2C34"/>
<path d="M115.611 41.037V41.7778H110.426L110.426 41.037H115.611Z" fill="#2C2C34"/>
<path d="M118.574 38.8148H119.315V44H118.574V38.8148Z" fill="#2C2C34"/>
<path d="M121.537 41.037V41.7778H116.352L116.352 41.037H121.537Z" fill="#2C2C34"/>
<path d="M0.0552304 44.7409H0.795971V49.9261H0.0552304V44.7409Z" fill="#2C2C34"/>
<path d="M3.01819 46.9631V47.7039H-2.16699L-2.16699 46.9631H3.01819Z" fill="#2C2C34"/>
<path d="M5.98119 44.7408H6.72194V49.926H5.98119V44.7408Z" fill="#2C2C34"/>
<path d="M8.94416 46.9631V47.7038H3.75897L3.75897 46.9631H8.94416Z" fill="#2C2C34"/>
<path d="M11.907 44.7408H12.6477V49.926H11.907V44.7408Z" fill="#2C2C34"/>
<path d="M14.8699 46.9631V47.7038H9.68475L9.68475 46.9631H14.8699Z" fill="#2C2C34"/>
<path d="M17.8332 44.7408H18.5739V49.926H17.8332V44.7408Z" fill="#2C2C34"/>
<path d="M20.7961 46.9631V47.7038H15.611L15.611 46.9631H20.7961Z" fill="#2C2C34"/>
<path d="M23.759 44.7408H24.4997V49.926H23.759V44.7408Z" fill="#2C2C34"/>
<path d="M26.7219 46.9631V47.7038H21.5367L21.5367 46.9631H26.7219Z" fill="#2C2C34"/>
<path d="M29.6849 44.7408H30.4256V49.926H29.6849V44.7408Z" fill="#2C2C34"/>
<path d="M32.6478 46.9631V47.7038H27.4626L27.4626 46.9631H32.6478Z" fill="#2C2C34"/>
<path d="M35.6108 44.7408H36.3515V49.926H35.6108V44.7408Z" fill="#2C2C34"/>
<path d="M38.5737 46.9631V47.7038H33.3885L33.3885 46.9631H38.5737Z" fill="#2C2C34"/>
<path d="M41.5369 44.7408H42.2776V49.926H41.5369V44.7408Z" fill="#2C2C34"/>
<path d="M44.4998 46.9631V47.7038H39.3146L39.3146 46.9631H44.4998Z" fill="#2C2C34"/>
<path d="M47.4627 44.7408H48.2034V49.926H47.4627V44.7408Z" fill="#2C2C34"/>
<path d="M50.4257 46.9631V47.7038H45.2405L45.2405 46.9631H50.4257Z" fill="#2C2C34"/>
<path d="M53.3885 44.7408H54.1292V49.926H53.3885V44.7408Z" fill="#2C2C34"/>
<path d="M56.3514 46.9631V47.7038H51.1663L51.1663 46.9631H56.3514Z" fill="#2C2C34"/>
<path d="M59.3145 44.7409H60.0552V49.9261H59.3145V44.7409Z" fill="#2C2C34"/>
<path d="M62.2775 46.9631V47.7039H57.0923L57.0923 46.9631H62.2775Z" fill="#2C2C34"/>
<path d="M65.2403 44.7408H65.981V49.926H65.2403V44.7408Z" fill="#2C2C34"/>
<path d="M68.2033 46.9631V47.7038H63.0181L63.0181 46.9631H68.2033Z" fill="#2C2C34"/>
<path d="M71.1664 44.7408H71.9072V49.926H71.1664V44.7408Z" fill="#2C2C34"/>
<path d="M74.1294 46.9631V47.7038H68.9442L68.9442 46.9631H74.1294Z" fill="#2C2C34"/>
<path d="M77.0923 44.7409H77.833V49.9261H77.0923V44.7409Z" fill="#2C2C34"/>
<path d="M80.0552 46.9631V47.7039H74.8701L74.8701 46.9631H80.0552Z" fill="#2C2C34"/>
<path d="M83.0181 44.7408H83.7588V49.926H83.0181V44.7408Z" fill="#2C2C34"/>
<path d="M85.981 46.9631V47.7038H80.7958L80.7958 46.9631H85.981Z" fill="#2C2C34"/>
<path d="M88.9441 44.7408H89.6849V49.926H88.9441V44.7408Z" fill="#2C2C34"/>
<path d="M91.9071 46.9631V47.7038H86.7219L86.7219 46.9631H91.9071Z" fill="#2C2C34"/>
<path d="M94.8701 44.7408H95.6109V49.926H94.8701V44.7408Z" fill="#2C2C34"/>
<path d="M97.8331 46.9631V47.7038H92.6479L92.6479 46.9631H97.8331Z" fill="#2C2C34"/>
<path d="M100.796 44.7408H101.537V49.926H100.796V44.7408Z" fill="#2C2C34"/>
<path d="M103.759 46.9631V47.7038H98.5737L98.5737 46.9631H103.759Z" fill="#2C2C34"/>
<path d="M106.722 44.7408H107.463V49.926H106.722V44.7408Z" fill="#2C2C34"/>
<path d="M109.685 46.9631V47.7038H104.5L104.5 46.9631H109.685Z" fill="#2C2C34"/>
<path d="M112.648 44.7408H113.389V49.926H112.648V44.7408Z" fill="#2C2C34"/>
<path d="M115.611 46.9631V47.7038H110.426L110.426 46.9631H115.611Z" fill="#2C2C34"/>
<path d="M118.574 44.7408H119.315V49.926H118.574V44.7408Z" fill="#2C2C34"/>
<path d="M121.537 46.9631V47.7038H116.352L116.352 46.9631H121.537Z" fill="#2C2C34"/>
<path d="M0.0552304 50.6667H0.795971V55.8519H0.0552304V50.6667Z" fill="#2C2C34"/>
<path d="M3.01819 52.8889V53.6297H-2.16699L-2.16699 52.8889H3.01819Z" fill="#2C2C34"/>
<path d="M5.98119 50.6666H6.72194V55.8518H5.98119V50.6666Z" fill="#2C2C34"/>
<path d="M8.94416 52.8888V53.6296H3.75897L3.75897 52.8888H8.94416Z" fill="#2C2C34"/>
<path d="M11.907 50.6666H12.6477V55.8518H11.907V50.6666Z" fill="#2C2C34"/>
<path d="M14.8699 52.8888V53.6296H9.68475L9.68475 52.8888H14.8699Z" fill="#2C2C34"/>
<path d="M17.8332 50.6666H18.5739V55.8518H17.8332V50.6666Z" fill="#2C2C34"/>
<path d="M20.7961 52.8888V53.6296H15.611L15.611 52.8888H20.7961Z" fill="#2C2C34"/>
<path d="M23.759 50.6666H24.4997V55.8518H23.759V50.6666Z" fill="#2C2C34"/>
<path d="M26.7219 52.8888V53.6296H21.5367L21.5367 52.8888H26.7219Z" fill="#2C2C34"/>
<path d="M29.6849 50.6666H30.4256V55.8518H29.6849V50.6666Z" fill="#2C2C34"/>
<path d="M32.6478 52.8888V53.6296H27.4626L27.4626 52.8888H32.6478Z" fill="#2C2C34"/>
<path d="M35.6108 50.6666H36.3515V55.8518H35.6108V50.6666Z" fill="#2C2C34"/>
<path d="M38.5737 52.8888V53.6296H33.3885L33.3885 52.8888H38.5737Z" fill="#2C2C34"/>
<path d="M41.5369 50.6666H42.2776V55.8518H41.5369V50.6666Z" fill="#2C2C34"/>
<path d="M44.4998 52.8888V53.6296H39.3146L39.3146 52.8888H44.4998Z" fill="#2C2C34"/>
<path d="M47.4627 50.6666H48.2034V55.8518H47.4627V50.6666Z" fill="#2C2C34"/>
<path d="M50.4257 52.8888V53.6296H45.2405L45.2405 52.8888H50.4257Z" fill="#2C2C34"/>
<path d="M53.3885 50.6666H54.1292V55.8518H53.3885V50.6666Z" fill="#2C2C34"/>
<path d="M56.3514 52.8888V53.6296H51.1663L51.1663 52.8888H56.3514Z" fill="#2C2C34"/>
<path d="M59.3145 50.6667H60.0552V55.8519H59.3145V50.6667Z" fill="#2C2C34"/>
<path d="M62.2775 52.8889V53.6297H57.0923L57.0923 52.8889H62.2775Z" fill="#2C2C34"/>
<path d="M65.2403 50.6666H65.981V55.8518H65.2403V50.6666Z" fill="#2C2C34"/>
<path d="M68.2033 52.8888V53.6296H63.0181L63.0181 52.8888H68.2033Z" fill="#2C2C34"/>
<path d="M71.1664 50.6666H71.9072V55.8518H71.1664V50.6666Z" fill="#2C2C34"/>
<path d="M74.1294 52.8888V53.6296H68.9442L68.9442 52.8888H74.1294Z" fill="#2C2C34"/>
<path d="M77.0923 50.6667H77.833V55.8519H77.0923V50.6667Z" fill="#2C2C34"/>
<path d="M80.0552 52.8889V53.6297H74.8701L74.8701 52.8889H80.0552Z" fill="#2C2C34"/>
<path d="M83.0181 50.6666H83.7588V55.8518H83.0181V50.6666Z" fill="#2C2C34"/>
<path d="M85.981 52.8888V53.6296H80.7958L80.7958 52.8888H85.981Z" fill="#2C2C34"/>
<path d="M88.9441 50.6666H89.6849V55.8518H88.9441V50.6666Z" fill="#2C2C34"/>
<path d="M91.9071 52.8888V53.6296H86.7219L86.7219 52.8888H91.9071Z" fill="#2C2C34"/>
<path d="M94.8701 50.6666H95.6109V55.8518H94.8701V50.6666Z" fill="#2C2C34"/>
<path d="M97.8331 52.8888V53.6296H92.6479L92.6479 52.8888H97.8331Z" fill="#2C2C34"/>
<path d="M100.796 50.6666H101.537V55.8518H100.796V50.6666Z" fill="#2C2C34"/>
<path d="M103.759 52.8888V53.6296H98.5737L98.5737 52.8888H103.759Z" fill="#2C2C34"/>
<path d="M106.722 50.6666H107.463V55.8518H106.722V50.6666Z" fill="#2C2C34"/>
<path d="M109.685 52.8888V53.6296H104.5L104.5 52.8888H109.685Z" fill="#2C2C34"/>
<path d="M112.648 50.6666H113.389V55.8518H112.648V50.6666Z" fill="#2C2C34"/>
<path d="M115.611 52.8888V53.6296H110.426L110.426 52.8888H115.611Z" fill="#2C2C34"/>
<path d="M118.574 50.6666H119.315V55.8518H118.574V50.6666Z" fill="#2C2C34"/>
<path d="M121.537 52.8888V53.6296H116.352L116.352 52.8888H121.537Z" fill="#2C2C34"/>
<path d="M0.0552304 56.5925H0.795971V61.7777H0.0552304V56.5925Z" fill="#2C2C34"/>
<path d="M3.01819 58.8147V59.5554H-2.16699L-2.16699 58.8147H3.01819Z" fill="#2C2C34"/>
<path d="M5.98119 56.5924H6.72194V61.7776H5.98119V56.5924Z" fill="#2C2C34"/>
<path d="M8.94416 58.8146V59.5554H3.75897L3.75897 58.8146H8.94416Z" fill="#2C2C34"/>
<path d="M11.907 56.5924H12.6477V61.7776H11.907V56.5924Z" fill="#2C2C34"/>
<path d="M14.8699 58.8146V59.5554H9.68475L9.68475 58.8146H14.8699Z" fill="#2C2C34"/>
<path d="M17.8332 56.5924H18.5739V61.7776H17.8332V56.5924Z" fill="#2C2C34"/>
<path d="M20.7961 58.8146V59.5554H15.611L15.611 58.8146H20.7961Z" fill="#2C2C34"/>
<path d="M23.759 56.5924H24.4997V61.7776H23.759V56.5924Z" fill="#2C2C34"/>
<path d="M26.7219 58.8146V59.5554H21.5367L21.5367 58.8146H26.7219Z" fill="#2C2C34"/>
<path d="M29.6849 56.5924H30.4256V61.7776H29.6849V56.5924Z" fill="#2C2C34"/>
<path d="M32.6478 58.8146V59.5554H27.4626L27.4626 58.8146H32.6478Z" fill="#2C2C34"/>
<path d="M35.6108 56.5924H36.3515V61.7776H35.6108V56.5924Z" fill="#2C2C34"/>
<path d="M38.5737 58.8146V59.5554H33.3885L33.3885 58.8146H38.5737Z" fill="#2C2C34"/>
<path d="M41.5369 56.5924H42.2776V61.7776H41.5369V56.5924Z" fill="#2C2C34"/>
<path d="M44.4998 58.8146V59.5554H39.3146L39.3146 58.8146H44.4998Z" fill="#2C2C34"/>
<path d="M47.4627 56.5924H48.2034V61.7776H47.4627V56.5924Z" fill="#2C2C34"/>
<path d="M50.4257 58.8146V59.5554H45.2405L45.2405 58.8146H50.4257Z" fill="#2C2C34"/>
<path d="M53.3885 56.5924H54.1292V61.7776H53.3885V56.5924Z" fill="#2C2C34"/>
<path d="M56.3514 58.8146V59.5554H51.1663L51.1663 58.8146H56.3514Z" fill="#2C2C34"/>
<path d="M59.3145 56.5925H60.0552V61.7777H59.3145V56.5925Z" fill="#2C2C34"/>
<path d="M62.2775 58.8147V59.5554H57.0923L57.0923 58.8147H62.2775Z" fill="#2C2C34"/>
<path d="M65.2403 56.5924H65.981V61.7776H65.2403V56.5924Z" fill="#2C2C34"/>
<path d="M68.2033 58.8146V59.5554H63.0181L63.0181 58.8146H68.2033Z" fill="#2C2C34"/>
<path d="M71.1664 56.5924H71.9072V61.7776H71.1664V56.5924Z" fill="#2C2C34"/>
<path d="M74.1294 58.8146V59.5554H68.9442L68.9442 58.8146H74.1294Z" fill="#2C2C34"/>
<path d="M77.0923 56.5925H77.833V61.7777H77.0923V56.5925Z" fill="#2C2C34"/>
<path d="M80.0552 58.8147V59.5554H74.8701L74.8701 58.8147H80.0552Z" fill="#2C2C34"/>
<path d="M83.0181 56.5924H83.7588V61.7776H83.0181V56.5924Z" fill="#2C2C34"/>
<path d="M85.981 58.8146V59.5554H80.7958L80.7958 58.8146H85.981Z" fill="#2C2C34"/>
<path d="M88.9441 56.5924H89.6849V61.7776H88.9441V56.5924Z" fill="#2C2C34"/>
<path d="M91.9071 58.8146V59.5554H86.7219L86.7219 58.8146H91.9071Z" fill="#2C2C34"/>
<path d="M94.8701 56.5924H95.6109V61.7776H94.8701V56.5924Z" fill="#2C2C34"/>
<path d="M97.8331 58.8146V59.5554H92.6479L92.6479 58.8146H97.8331Z" fill="#2C2C34"/>
<path d="M100.796 56.5924H101.537V61.7776H100.796V56.5924Z" fill="#2C2C34"/>
<path d="M103.759 58.8146V59.5554H98.5737L98.5737 58.8146H103.759Z" fill="#2C2C34"/>
<path d="M106.722 56.5924H107.463V61.7776H106.722V56.5924Z" fill="#2C2C34"/>
<path d="M109.685 58.8146V59.5554H104.5L104.5 58.8146H109.685Z" fill="#2C2C34"/>
<path d="M112.648 56.5924H113.389V61.7776H112.648V56.5924Z" fill="#2C2C34"/>
<path d="M115.611 58.8146V59.5554H110.426L110.426 58.8146H115.611Z" fill="#2C2C34"/>
<path d="M118.574 56.5924H119.315V61.7776H118.574V56.5924Z" fill="#2C2C34"/>
<path d="M121.537 58.8146V59.5554H116.352L116.352 58.8146H121.537Z" fill="#2C2C34"/>
<path d="M0.0552304 62.5186H0.795971V67.7037H0.0552304V62.5186Z" fill="#2C2C34"/>
<path d="M3.01819 64.7408V65.4815H-2.16699L-2.16699 64.7408H3.01819Z" fill="#2C2C34"/>
<path d="M5.98119 62.5186H6.72194V67.7037H5.98119V62.5186Z" fill="#2C2C34"/>
<path d="M8.94416 64.7408V65.4815H3.75897L3.75897 64.7408H8.94416Z" fill="#2C2C34"/>
<path d="M11.907 62.5186H12.6477V67.7037H11.907V62.5186Z" fill="#2C2C34"/>
<path d="M14.8699 64.7408V65.4815H9.68475L9.68475 64.7408H14.8699Z" fill="#2C2C34"/>
<path d="M17.8332 62.5186H18.5739V67.7037H17.8332V62.5186Z" fill="#2C2C34"/>
<path d="M20.7961 64.7408V65.4815H15.611L15.611 64.7408H20.7961Z" fill="#2C2C34"/>
<path d="M23.759 62.5186H24.4997V67.7037H23.759V62.5186Z" fill="#2C2C34"/>
<path d="M26.7219 64.7408V65.4815H21.5367L21.5367 64.7408H26.7219Z" fill="#2C2C34"/>
<path d="M29.6849 62.5186H30.4256V67.7037H29.6849V62.5186Z" fill="#2C2C34"/>
<path d="M32.6478 64.7408V65.4815H27.4626L27.4626 64.7408H32.6478Z" fill="#2C2C34"/>
<path d="M35.6108 62.5186H36.3515V67.7037H35.6108V62.5186Z" fill="#2C2C34"/>
<path d="M38.5737 64.7408V65.4815H33.3885L33.3885 64.7408H38.5737Z" fill="#2C2C34"/>
<path d="M41.5369 62.5186H42.2776V67.7037H41.5369V62.5186Z" fill="#2C2C34"/>
<path d="M44.4998 64.7408V65.4815H39.3146L39.3146 64.7408H44.4998Z" fill="#2C2C34"/>
<path d="M47.4627 62.5186H48.2034V67.7037H47.4627V62.5186Z" fill="#2C2C34"/>
<path d="M50.4257 64.7408V65.4815H45.2405L45.2405 64.7408H50.4257Z" fill="#2C2C34"/>
<path d="M53.3885 62.5186H54.1292V67.7037H53.3885V62.5186Z" fill="#2C2C34"/>
<path d="M56.3514 64.7408V65.4815H51.1663L51.1663 64.7408H56.3514Z" fill="#2C2C34"/>
<path d="M59.3145 62.5186H60.0552V67.7037H59.3145V62.5186Z" fill="#2C2C34"/>
<path d="M62.2775 64.7408V65.4815H57.0923L57.0923 64.7408H62.2775Z" fill="#2C2C34"/>
<path d="M65.2403 62.5186H65.981V67.7037H65.2403V62.5186Z" fill="#2C2C34"/>
<path d="M68.2033 64.7408V65.4815H63.0181L63.0181 64.7408H68.2033Z" fill="#2C2C34"/>
<path d="M71.1664 62.5186H71.9072V67.7037H71.1664V62.5186Z" fill="#2C2C34"/>
<path d="M74.1294 64.7408V65.4815H68.9442L68.9442 64.7408H74.1294Z" fill="#2C2C34"/>
<path d="M77.0923 62.5186H77.833V67.7037H77.0923V62.5186Z" fill="#2C2C34"/>
<path d="M80.0552 64.7408V65.4815H74.8701L74.8701 64.7408H80.0552Z" fill="#2C2C34"/>
<path d="M83.0181 62.5186H83.7588V67.7037H83.0181V62.5186Z" fill="#2C2C34"/>
<path d="M85.981 64.7408V65.4815H80.7958L80.7958 64.7408H85.981Z" fill="#2C2C34"/>
<path d="M88.9441 62.5186H89.6849V67.7037H88.9441V62.5186Z" fill="#2C2C34"/>
<path d="M91.9071 64.7408V65.4815H86.7219L86.7219 64.7408H91.9071Z" fill="#2C2C34"/>
<path d="M94.8701 62.5186H95.6109V67.7037H94.8701V62.5186Z" fill="#2C2C34"/>
<path d="M97.8331 64.7408V65.4815H92.6479L92.6479 64.7408H97.8331Z" fill="#2C2C34"/>
<path d="M100.796 62.5186H101.537V67.7037H100.796V62.5186Z" fill="#2C2C34"/>
<path d="M103.759 64.7408V65.4815H98.5737L98.5737 64.7408H103.759Z" fill="#2C2C34"/>
<path d="M106.722 62.5186H107.463V67.7037H106.722V62.5186Z" fill="#2C2C34"/>
<path d="M109.685 64.7408V65.4815H104.5L104.5 64.7408H109.685Z" fill="#2C2C34"/>
<path d="M112.648 62.5186H113.389V67.7037H112.648V62.5186Z" fill="#2C2C34"/>
<path d="M115.611 64.7408V65.4815H110.426L110.426 64.7408H115.611Z" fill="#2C2C34"/>
<path d="M118.574 62.5186H119.315V67.7037H118.574V62.5186Z" fill="#2C2C34"/>
<path d="M121.537 64.7408V65.4815H116.352L116.352 64.7408H121.537Z" fill="#2C2C34"/>
<path d="M0.0552304 68.4443H0.795971V73.6295H0.0552304V68.4443Z" fill="#2C2C34"/>
<path d="M3.01819 70.6666V71.4073H-2.16699L-2.16699 70.6666H3.01819Z" fill="#2C2C34"/>
<path d="M5.98119 68.4443H6.72194V73.6295H5.98119V68.4443Z" fill="#2C2C34"/>
<path d="M8.94416 70.6666V71.4073H3.75897L3.75897 70.6666H8.94416Z" fill="#2C2C34"/>
<path d="M11.907 68.4443H12.6477V73.6295H11.907V68.4443Z" fill="#2C2C34"/>
<path d="M14.8699 70.6666V71.4073H9.68475L9.68475 70.6666H14.8699Z" fill="#2C2C34"/>
<path d="M17.8332 68.4443H18.5739V73.6295H17.8332V68.4443Z" fill="#2C2C34"/>
<path d="M20.7961 70.6666V71.4073H15.611L15.611 70.6666H20.7961Z" fill="#2C2C34"/>
<path d="M23.759 68.4443H24.4997V73.6295H23.759V68.4443Z" fill="#2C2C34"/>
<path d="M26.7219 70.6666V71.4073H21.5367L21.5367 70.6666H26.7219Z" fill="#2C2C34"/>
<path d="M29.6849 68.4443H30.4256V73.6295H29.6849V68.4443Z" fill="#2C2C34"/>
<path d="M32.6478 70.6666V71.4073H27.4626L27.4626 70.6666H32.6478Z" fill="#2C2C34"/>
<path d="M35.6108 68.4443H36.3515V73.6295H35.6108V68.4443Z" fill="#2C2C34"/>
<path d="M38.5737 70.6666V71.4073H33.3885L33.3885 70.6666H38.5737Z" fill="#2C2C34"/>
<path d="M41.5369 68.4443H42.2776V73.6295H41.5369V68.4443Z" fill="#2C2C34"/>
<path d="M44.4998 70.6666V71.4073H39.3146L39.3146 70.6666H44.4998Z" fill="#2C2C34"/>
<path d="M47.4627 68.4443H48.2034V73.6295H47.4627V68.4443Z" fill="#2C2C34"/>
<path d="M50.4257 70.6666V71.4073H45.2405L45.2405 70.6666H50.4257Z" fill="#2C2C34"/>
<path d="M53.3885 68.4443H54.1292V73.6295H53.3885V68.4443Z" fill="#2C2C34"/>
<path d="M56.3514 70.6666V71.4073H51.1663L51.1663 70.6666H56.3514Z" fill="#2C2C34"/>
<path d="M59.3145 68.4443H60.0552V73.6295H59.3145V68.4443Z" fill="#2C2C34"/>
<path d="M62.2775 70.6666V71.4073H57.0923L57.0923 70.6666H62.2775Z" fill="#2C2C34"/>
<path d="M65.2403 68.4443H65.981V73.6295H65.2403V68.4443Z" fill="#2C2C34"/>
<path d="M68.2033 70.6666V71.4073H63.0181L63.0181 70.6666H68.2033Z" fill="#2C2C34"/>
<path d="M71.1664 68.4443H71.9072V73.6295H71.1664V68.4443Z" fill="#2C2C34"/>
<path d="M74.1294 70.6666V71.4073H68.9442L68.9442 70.6666H74.1294Z" fill="#2C2C34"/>
<path d="M77.0923 68.4443H77.833V73.6295H77.0923V68.4443Z" fill="#2C2C34"/>
<path d="M80.0552 70.6666V71.4073H74.8701L74.8701 70.6666H80.0552Z" fill="#2C2C34"/>
<path d="M83.0181 68.4443H83.7588V73.6295H83.0181V68.4443Z" fill="#2C2C34"/>
<path d="M85.981 70.6666V71.4073H80.7958L80.7958 70.6666H85.981Z" fill="#2C2C34"/>
<path d="M88.9441 68.4443H89.6849V73.6295H88.9441V68.4443Z" fill="#2C2C34"/>
<path d="M91.9071 70.6666V71.4073H86.7219L86.7219 70.6666H91.9071Z" fill="#2C2C34"/>
<path d="M94.8701 68.4443H95.6109V73.6295H94.8701V68.4443Z" fill="#2C2C34"/>
<path d="M97.8331 70.6666V71.4073H92.6479L92.6479 70.6666H97.8331Z" fill="#2C2C34"/>
<path d="M100.796 68.4443H101.537V73.6295H100.796V68.4443Z" fill="#2C2C34"/>
<path d="M103.759 70.6666V71.4073H98.5737L98.5737 70.6666H103.759Z" fill="#2C2C34"/>
<path d="M106.722 68.4443H107.463V73.6295H106.722V68.4443Z" fill="#2C2C34"/>
<path d="M109.685 70.6666V71.4073H104.5L104.5 70.6666H109.685Z" fill="#2C2C34"/>
<path d="M112.648 68.4443H113.389V73.6295H112.648V68.4443Z" fill="#2C2C34"/>
<path d="M115.611 70.6666V71.4073H110.426L110.426 70.6666H115.611Z" fill="#2C2C34"/>
<path d="M118.574 68.4443H119.315V73.6295H118.574V68.4443Z" fill="#2C2C34"/>
<path d="M121.537 70.6666V71.4073H116.352L116.352 70.6666H121.537Z" fill="#2C2C34"/>
<path d="M0.0552304 74.3704H0.795971V79.5556H0.0552304V74.3704Z" fill="#2C2C34"/>
<path d="M3.01819 76.5926V77.3334H-2.16699L-2.16699 76.5926H3.01819Z" fill="#2C2C34"/>
<path d="M5.98119 74.3705H6.72194V79.5557H5.98119V74.3705Z" fill="#2C2C34"/>
<path d="M8.94416 76.5927V77.3334H3.75897L3.75897 76.5927H8.94416Z" fill="#2C2C34"/>
<path d="M11.907 74.3705H12.6477V79.5557H11.907V74.3705Z" fill="#2C2C34"/>
<path d="M14.8699 76.5927V77.3334H9.68475L9.68475 76.5927H14.8699Z" fill="#2C2C34"/>
<path d="M17.8332 74.3705H18.5739V79.5557H17.8332V74.3705Z" fill="#2C2C34"/>
<path d="M20.7961 76.5927V77.3334H15.611L15.611 76.5927H20.7961Z" fill="#2C2C34"/>
<path d="M23.759 74.3705H24.4997V79.5557H23.759V74.3705Z" fill="#2C2C34"/>
<path d="M26.7219 76.5927V77.3334H21.5367L21.5367 76.5927H26.7219Z" fill="#2C2C34"/>
<path d="M29.6849 74.3705H30.4256V79.5557H29.6849V74.3705Z" fill="#2C2C34"/>
<path d="M32.6478 76.5927V77.3334H27.4626L27.4626 76.5927H32.6478Z" fill="#2C2C34"/>
<path d="M35.6108 74.3705H36.3515V79.5557H35.6108V74.3705Z" fill="#2C2C34"/>
<path d="M38.5737 76.5927V77.3334H33.3885L33.3885 76.5927H38.5737Z" fill="#2C2C34"/>
<path d="M41.5369 74.3705H42.2776V79.5557H41.5369V74.3705Z" fill="#2C2C34"/>
<path d="M44.4998 76.5927V77.3334H39.3146L39.3146 76.5927H44.4998Z" fill="#2C2C34"/>
<path d="M47.4627 74.3705H48.2034V79.5557H47.4627V74.3705Z" fill="#2C2C34"/>
<path d="M50.4257 76.5927V77.3334H45.2405L45.2405 76.5927H50.4257Z" fill="#2C2C34"/>
<path d="M53.3885 74.3705H54.1292V79.5557H53.3885V74.3705Z" fill="#2C2C34"/>
<path d="M56.3514 76.5927V77.3334H51.1663L51.1663 76.5927H56.3514Z" fill="#2C2C34"/>
<path d="M59.3145 74.3704H60.0552V79.5556H59.3145V74.3704Z" fill="#2C2C34"/>
<path d="M62.2775 76.5926V77.3334H57.0923L57.0923 76.5926H62.2775Z" fill="#2C2C34"/>
<path d="M65.2403 74.3705H65.981V79.5557H65.2403V74.3705Z" fill="#2C2C34"/>
<path d="M68.2033 76.5927V77.3334H63.0181L63.0181 76.5927H68.2033Z" fill="#2C2C34"/>
<path d="M71.1664 74.3705H71.9072V79.5557H71.1664V74.3705Z" fill="#2C2C34"/>
<path d="M74.1294 76.5927V77.3334H68.9442L68.9442 76.5927H74.1294Z" fill="#2C2C34"/>
<path d="M77.0923 74.3704H77.833V79.5556H77.0923V74.3704Z" fill="#2C2C34"/>
<path d="M80.0552 76.5926V77.3334H74.8701L74.8701 76.5926H80.0552Z" fill="#2C2C34"/>
<path d="M83.0181 74.3705H83.7588V79.5557H83.0181V74.3705Z" fill="#2C2C34"/>
<path d="M85.981 76.5927V77.3334H80.7958L80.7958 76.5927H85.981Z" fill="#2C2C34"/>
<path d="M88.9441 74.3705H89.6849V79.5557H88.9441V74.3705Z" fill="#2C2C34"/>
<path d="M91.9071 76.5927V77.3334H86.7219L86.7219 76.5927H91.9071Z" fill="#2C2C34"/>
<path d="M94.8701 74.3705H95.6109V79.5557H94.8701V74.3705Z" fill="#2C2C34"/>
<path d="M97.8331 76.5927V77.3334H92.6479L92.6479 76.5927H97.8331Z" fill="#2C2C34"/>
<path d="M100.796 74.3705H101.537V79.5557H100.796V74.3705Z" fill="#2C2C34"/>
<path d="M103.759 76.5927V77.3334H98.5737L98.5737 76.5927H103.759Z" fill="#2C2C34"/>
<path d="M106.722 74.3705H107.463V79.5557H106.722V74.3705Z" fill="#2C2C34"/>
<path d="M109.685 76.5927V77.3334H104.5L104.5 76.5927H109.685Z" fill="#2C2C34"/>
<path d="M112.648 74.3705H113.389V79.5557H112.648V74.3705Z" fill="#2C2C34"/>
<path d="M115.611 76.5927V77.3334H110.426L110.426 76.5927H115.611Z" fill="#2C2C34"/>
<path d="M118.574 74.3705H119.315V79.5557H118.574V74.3705Z" fill="#2C2C34"/>
<path d="M121.537 76.5927V77.3334H116.352L116.352 76.5927H121.537Z" fill="#2C2C34"/>
<path d="M0.0552304 80.2962H0.795971V85.4814H0.0552304V80.2962Z" fill="#2C2C34"/>
<path d="M3.01819 82.5184V83.2592H-2.16699L-2.16699 82.5184H3.01819Z" fill="#2C2C34"/>
<path d="M5.98119 80.2963H6.72194V85.4815H5.98119V80.2963Z" fill="#2C2C34"/>
<path d="M8.94416 82.5185V83.2592H3.75897L3.75897 82.5185H8.94416Z" fill="#2C2C34"/>
<path d="M11.907 80.2963H12.6477V85.4815H11.907V80.2963Z" fill="#2C2C34"/>
<path d="M14.8699 82.5185V83.2592H9.68475L9.68475 82.5185H14.8699Z" fill="#2C2C34"/>
<path d="M17.8332 80.2963H18.5739V85.4815H17.8332V80.2963Z" fill="#2C2C34"/>
<path d="M20.7961 82.5185V83.2592H15.611L15.611 82.5185H20.7961Z" fill="#2C2C34"/>
<path d="M23.759 80.2963H24.4997V85.4815H23.759V80.2963Z" fill="#2C2C34"/>
<path d="M26.7219 82.5185V83.2592H21.5367L21.5367 82.5185H26.7219Z" fill="#2C2C34"/>
<path d="M29.6849 80.2963H30.4256V85.4815H29.6849V80.2963Z" fill="#2C2C34"/>
<path d="M32.6478 82.5185V83.2592H27.4626L27.4626 82.5185H32.6478Z" fill="#2C2C34"/>
<path d="M35.6108 80.2963H36.3515V85.4815H35.6108V80.2963Z" fill="#2C2C34"/>
<path d="M38.5737 82.5185V83.2592H33.3885L33.3885 82.5185H38.5737Z" fill="#2C2C34"/>
<path d="M41.5369 80.2963H42.2776V85.4815H41.5369V80.2963Z" fill="#2C2C34"/>
<path d="M44.4998 82.5185V83.2592H39.3146L39.3146 82.5185H44.4998Z" fill="#2C2C34"/>
<path d="M47.4627 80.2963H48.2034V85.4815H47.4627V80.2963Z" fill="#2C2C34"/>
<path d="M50.4257 82.5185V83.2592H45.2405L45.2405 82.5185H50.4257Z" fill="#2C2C34"/>
<path d="M53.3885 80.2963H54.1292V85.4815H53.3885V80.2963Z" fill="#2C2C34"/>
<path d="M56.3514 82.5185V83.2592H51.1663L51.1663 82.5185H56.3514Z" fill="#2C2C34"/>
<path d="M59.3145 80.2962H60.0552V85.4814H59.3145V80.2962Z" fill="#2C2C34"/>
<path d="M62.2775 82.5184V83.2592H57.0923L57.0923 82.5184H62.2775Z" fill="#2C2C34"/>
<path d="M65.2403 80.2963H65.981V85.4815H65.2403V80.2963Z" fill="#2C2C34"/>
<path d="M68.2033 82.5185V83.2592H63.0181L63.0181 82.5185H68.2033Z" fill="#2C2C34"/>
<path d="M71.1664 80.2963H71.9072V85.4815H71.1664V80.2963Z" fill="#2C2C34"/>
<path d="M74.1294 82.5185V83.2592H68.9442L68.9442 82.5185H74.1294Z" fill="#2C2C34"/>
<path d="M77.0923 80.2962H77.833V85.4814H77.0923V80.2962Z" fill="#2C2C34"/>
<path d="M80.0552 82.5184V83.2592H74.8701L74.8701 82.5184H80.0552Z" fill="#2C2C34"/>
<path d="M83.0181 80.2963H83.7588V85.4815H83.0181V80.2963Z" fill="#2C2C34"/>
<path d="M85.981 82.5185V83.2592H80.7958L80.7958 82.5185H85.981Z" fill="#2C2C34"/>
<path d="M88.9441 80.2963H89.6849V85.4815H88.9441V80.2963Z" fill="#2C2C34"/>
<path d="M91.9071 82.5185V83.2592H86.7219L86.7219 82.5185H91.9071Z" fill="#2C2C34"/>
<path d="M94.8701 80.2963H95.6109V85.4815H94.8701V80.2963Z" fill="#2C2C34"/>
<path d="M97.8331 82.5185V83.2592H92.6479L92.6479 82.5185H97.8331Z" fill="#2C2C34"/>
<path d="M100.796 80.2963H101.537V85.4815H100.796V80.2963Z" fill="#2C2C34"/>
<path d="M103.759 82.5185V83.2592H98.5737L98.5737 82.5185H103.759Z" fill="#2C2C34"/>
<path d="M106.722 80.2963H107.463V85.4815H106.722V80.2963Z" fill="#2C2C34"/>
<path d="M109.685 82.5185V83.2592H104.5L104.5 82.5185H109.685Z" fill="#2C2C34"/>
<path d="M112.648 80.2963H113.389V85.4815H112.648V80.2963Z" fill="#2C2C34"/>
<path d="M115.611 82.5185V83.2592H110.426L110.426 82.5185H115.611Z" fill="#2C2C34"/>
<path d="M118.574 80.2963H119.315V85.4815H118.574V80.2963Z" fill="#2C2C34"/>
<path d="M121.537 82.5185V83.2592H116.352L116.352 82.5185H121.537Z" fill="#2C2C34"/>
<path d="M0.0552304 86.2224H0.795971V91.4075H0.0552304V86.2224Z" fill="#2C2C34"/>
<path d="M3.01819 88.4446V89.1853H-2.16699L-2.16699 88.4446H3.01819Z" fill="#2C2C34"/>
<path d="M5.98119 86.2223H6.72194V91.4075H5.98119V86.2223Z" fill="#2C2C34"/>
<path d="M8.94416 88.4445V89.1853H3.75897L3.75897 88.4445H8.94416Z" fill="#2C2C34"/>
<path d="M11.907 86.2223H12.6477V91.4075H11.907V86.2223Z" fill="#2C2C34"/>
<path d="M14.8699 88.4445V89.1853H9.68475L9.68475 88.4445H14.8699Z" fill="#2C2C34"/>
<path d="M17.8332 86.2223H18.5739V91.4075H17.8332V86.2223Z" fill="#2C2C34"/>
<path d="M20.7961 88.4445V89.1853H15.611L15.611 88.4445H20.7961Z" fill="#2C2C34"/>
<path d="M23.759 86.2223H24.4997V91.4075H23.759V86.2223Z" fill="#2C2C34"/>
<path d="M26.7219 88.4445V89.1853H21.5367L21.5367 88.4445H26.7219Z" fill="#2C2C34"/>
<path d="M29.6849 86.2223H30.4256V91.4075H29.6849V86.2223Z" fill="#2C2C34"/>
<path d="M32.6478 88.4445V89.1853H27.4626L27.4626 88.4445H32.6478Z" fill="#2C2C34"/>
<path d="M35.6108 86.2223H36.3515V91.4075H35.6108V86.2223Z" fill="#2C2C34"/>
<path d="M38.5737 88.4445V89.1853H33.3885L33.3885 88.4445H38.5737Z" fill="#2C2C34"/>
<path d="M41.5369 86.2223H42.2776V91.4075H41.5369V86.2223Z" fill="#2C2C34"/>
<path d="M44.4998 88.4445V89.1853H39.3146L39.3146 88.4445H44.4998Z" fill="#2C2C34"/>
<path d="M47.4627 86.2223H48.2034V91.4075H47.4627V86.2223Z" fill="#2C2C34"/>
<path d="M50.4257 88.4445V89.1853H45.2405L45.2405 88.4445H50.4257Z" fill="#2C2C34"/>
<path d="M53.3885 86.2223H54.1292V91.4075H53.3885V86.2223Z" fill="#2C2C34"/>
<path d="M56.3514 88.4445V89.1853H51.1663L51.1663 88.4445H56.3514Z" fill="#2C2C34"/>
<path d="M59.3145 86.2224H60.0552V91.4075H59.3145V86.2224Z" fill="#2C2C34"/>
<path d="M62.2775 88.4446V89.1853H57.0923L57.0923 88.4446H62.2775Z" fill="#2C2C34"/>
<path d="M65.2403 86.2223H65.981V91.4075H65.2403V86.2223Z" fill="#2C2C34"/>
<path d="M68.2033 88.4445V89.1853H63.0181L63.0181 88.4445H68.2033Z" fill="#2C2C34"/>
<path d="M71.1664 86.2223H71.9072V91.4075H71.1664V86.2223Z" fill="#2C2C34"/>
<path d="M74.1294 88.4445V89.1853H68.9442L68.9442 88.4445H74.1294Z" fill="#2C2C34"/>
<path d="M77.0923 86.2224H77.833V91.4075H77.0923V86.2224Z" fill="#2C2C34"/>
<path d="M80.0552 88.4446V89.1853H74.8701L74.8701 88.4446H80.0552Z" fill="#2C2C34"/>
<path d="M83.0181 86.2223H83.7588V91.4075H83.0181V86.2223Z" fill="#2C2C34"/>
<path d="M85.981 88.4445V89.1853H80.7958L80.7958 88.4445H85.981Z" fill="#2C2C34"/>
<path d="M88.9441 86.2223H89.6849V91.4075H88.9441V86.2223Z" fill="#2C2C34"/>
<path d="M91.9071 88.4445V89.1853H86.7219L86.7219 88.4445H91.9071Z" fill="#2C2C34"/>
<path d="M94.8701 86.2223H95.6109V91.4075H94.8701V86.2223Z" fill="#2C2C34"/>
<path d="M97.8331 88.4445V89.1853H92.6479L92.6479 88.4445H97.8331Z" fill="#2C2C34"/>
<path d="M100.796 86.2223H101.537V91.4075H100.796V86.2223Z" fill="#2C2C34"/>
<path d="M103.759 88.4445V89.1853H98.5737L98.5737 88.4445H103.759Z" fill="#2C2C34"/>
<path d="M106.722 86.2223H107.463V91.4075H106.722V86.2223Z" fill="#2C2C34"/>
<path d="M109.685 88.4445V89.1853H104.5L104.5 88.4445H109.685Z" fill="#2C2C34"/>
<path d="M112.648 86.2223H113.389V91.4075H112.648V86.2223Z" fill="#2C2C34"/>
<path d="M115.611 88.4445V89.1853H110.426L110.426 88.4445H115.611Z" fill="#2C2C34"/>
<path d="M118.574 86.2223H119.315V91.4075H118.574V86.2223Z" fill="#2C2C34"/>
<path d="M121.537 88.4445V89.1853H116.352L116.352 88.4445H121.537Z" fill="#2C2C34"/>
<path d="M0.0552304 92.1481H0.795971V97.3333H0.0552304V92.1481Z" fill="#2C2C34"/>
<path d="M3.01819 94.3703V95.1111H-2.16699L-2.16699 94.3703H3.01819Z" fill="#2C2C34"/>
<path d="M5.98119 92.148H6.72194V97.3332H5.98119V92.148Z" fill="#2C2C34"/>
<path d="M8.94416 94.3702V95.111H3.75897L3.75897 94.3702H8.94416Z" fill="#2C2C34"/>
<path d="M11.907 92.148H12.6477V97.3332H11.907V92.148Z" fill="#2C2C34"/>
<path d="M14.8699 94.3702V95.111H9.68475L9.68475 94.3702H14.8699Z" fill="#2C2C34"/>
<path d="M17.8332 92.148H18.5739V97.3332H17.8332V92.148Z" fill="#2C2C34"/>
<path d="M20.7961 94.3702V95.111H15.611L15.611 94.3702H20.7961Z" fill="#2C2C34"/>
<path d="M23.759 92.148H24.4997V97.3332H23.759V92.148Z" fill="#2C2C34"/>
<path d="M26.7219 94.3702V95.111H21.5367L21.5367 94.3702H26.7219Z" fill="#2C2C34"/>
<path d="M29.6849 92.148H30.4256V97.3332H29.6849V92.148Z" fill="#2C2C34"/>
<path d="M32.6478 94.3702V95.111H27.4626L27.4626 94.3702H32.6478Z" fill="#2C2C34"/>
<path d="M35.6108 92.148H36.3515V97.3332H35.6108V92.148Z" fill="#2C2C34"/>
<path d="M38.5737 94.3702V95.111H33.3885L33.3885 94.3702H38.5737Z" fill="#2C2C34"/>
<path d="M41.5369 92.148H42.2776V97.3332H41.5369V92.148Z" fill="#2C2C34"/>
<path d="M44.4998 94.3702V95.111H39.3146L39.3146 94.3702H44.4998Z" fill="#2C2C34"/>
<path d="M47.4627 92.148H48.2034V97.3332H47.4627V92.148Z" fill="#2C2C34"/>
<path d="M50.4257 94.3702V95.111H45.2405L45.2405 94.3702H50.4257Z" fill="#2C2C34"/>
<path d="M53.3885 92.148H54.1292V97.3332H53.3885V92.148Z" fill="#2C2C34"/>
<path d="M56.3514 94.3702V95.111H51.1663L51.1663 94.3702H56.3514Z" fill="#2C2C34"/>
<path d="M59.3145 92.1481H60.0552V97.3333H59.3145V92.1481Z" fill="#2C2C34"/>
<path d="M62.2775 94.3703V95.1111H57.0923L57.0923 94.3703H62.2775Z" fill="#2C2C34"/>
<path d="M65.2403 92.148H65.981V97.3332H65.2403V92.148Z" fill="#2C2C34"/>
<path d="M68.2033 94.3702V95.111H63.0181L63.0181 94.3702H68.2033Z" fill="#2C2C34"/>
<path d="M71.1664 92.148H71.9072V97.3332H71.1664V92.148Z" fill="#2C2C34"/>
<path d="M74.1294 94.3702V95.111H68.9442L68.9442 94.3702H74.1294Z" fill="#2C2C34"/>
<path d="M77.0923 92.1481H77.833V97.3333H77.0923V92.1481Z" fill="#2C2C34"/>
<path d="M80.0552 94.3703V95.1111H74.8701L74.8701 94.3703H80.0552Z" fill="#2C2C34"/>
<path d="M83.0181 92.148H83.7588V97.3332H83.0181V92.148Z" fill="#2C2C34"/>
<path d="M85.981 94.3702V95.111H80.7958L80.7958 94.3702H85.981Z" fill="#2C2C34"/>
<path d="M88.9441 92.148H89.6849V97.3332H88.9441V92.148Z" fill="#2C2C34"/>
<path d="M91.9071 94.3702V95.111H86.7219L86.7219 94.3702H91.9071Z" fill="#2C2C34"/>
<path d="M94.8701 92.148H95.6109V97.3332H94.8701V92.148Z" fill="#2C2C34"/>
<path d="M97.8331 94.3702V95.111H92.6479L92.6479 94.3702H97.8331Z" fill="#2C2C34"/>
<path d="M100.796 92.148H101.537V97.3332H100.796V92.148Z" fill="#2C2C34"/>
<path d="M103.759 94.3702V95.111H98.5737L98.5737 94.3702H103.759Z" fill="#2C2C34"/>
<path d="M106.722 92.148H107.463V97.3332H106.722V92.148Z" fill="#2C2C34"/>
<path d="M109.685 94.3702V95.111H104.5L104.5 94.3702H109.685Z" fill="#2C2C34"/>
<path d="M112.648 92.148H113.389V97.3332H112.648V92.148Z" fill="#2C2C34"/>
<path d="M115.611 94.3702V95.111H110.426L110.426 94.3702H115.611Z" fill="#2C2C34"/>
<path d="M118.574 92.148H119.315V97.3332H118.574V92.148Z" fill="#2C2C34"/>
<path d="M121.537 94.3702V95.111H116.352L116.352 94.3702H121.537Z" fill="#2C2C34"/>
<path d="M0.0552304 98.0742H0.795971V103.259H0.0552304V98.0742Z" fill="#2C2C34"/>
<path d="M3.01819 100.296V101.037H-2.16699L-2.16699 100.296H3.01819Z" fill="#2C2C34"/>
<path d="M5.98119 98.0742H6.72194V103.259H5.98119V98.0742Z" fill="#2C2C34"/>
<path d="M8.94416 100.296V101.037H3.75897L3.75897 100.296H8.94416Z" fill="#2C2C34"/>
<path d="M11.907 98.0742H12.6477V103.259H11.907V98.0742Z" fill="#2C2C34"/>
<path d="M14.8699 100.296V101.037H9.68475L9.68475 100.296H14.8699Z" fill="#2C2C34"/>
<path d="M17.8332 98.0742H18.5739V103.259H17.8332V98.0742Z" fill="#2C2C34"/>
<path d="M20.7961 100.296V101.037H15.611L15.611 100.296H20.7961Z" fill="#2C2C34"/>
<path d="M23.759 98.0742H24.4997V103.259H23.759V98.0742Z" fill="#2C2C34"/>
<path d="M26.7219 100.296V101.037H21.5367L21.5367 100.296H26.7219Z" fill="#2C2C34"/>
<path d="M29.6849 98.0742H30.4256V103.259H29.6849V98.0742Z" fill="#2C2C34"/>
<path d="M32.6478 100.296V101.037H27.4626L27.4626 100.296H32.6478Z" fill="#2C2C34"/>
<path d="M35.6108 98.0742H36.3515V103.259H35.6108V98.0742Z" fill="#2C2C34"/>
<path d="M38.5737 100.296V101.037H33.3885L33.3885 100.296H38.5737Z" fill="#2C2C34"/>
<path d="M41.5369 98.0742H42.2776V103.259H41.5369V98.0742Z" fill="#2C2C34"/>
<path d="M44.4998 100.296V101.037H39.3146L39.3146 100.296H44.4998Z" fill="#2C2C34"/>
<path d="M47.4627 98.0742H48.2034V103.259H47.4627V98.0742Z" fill="#2C2C34"/>
<path d="M50.4257 100.296V101.037H45.2405L45.2405 100.296H50.4257Z" fill="#2C2C34"/>
<path d="M53.3885 98.0742H54.1292V103.259H53.3885V98.0742Z" fill="#2C2C34"/>
<path d="M56.3514 100.296V101.037H51.1663L51.1663 100.296H56.3514Z" fill="#2C2C34"/>
<path d="M59.3145 98.0742H60.0552V103.259H59.3145V98.0742Z" fill="#2C2C34"/>
<path d="M62.2775 100.296V101.037H57.0923L57.0923 100.296H62.2775Z" fill="#2C2C34"/>
<path d="M65.2403 98.0742H65.981V103.259H65.2403V98.0742Z" fill="#2C2C34"/>
<path d="M68.2033 100.296V101.037H63.0181L63.0181 100.296H68.2033Z" fill="#2C2C34"/>
<path d="M71.1664 98.0742H71.9072V103.259H71.1664V98.0742Z" fill="#2C2C34"/>
<path d="M74.1294 100.296V101.037H68.9442L68.9442 100.296H74.1294Z" fill="#2C2C34"/>
<path d="M77.0923 98.0742H77.833V103.259H77.0923V98.0742Z" fill="#2C2C34"/>
<path d="M80.0552 100.296V101.037H74.8701L74.8701 100.296H80.0552Z" fill="#2C2C34"/>
<path d="M83.0181 98.0742H83.7588V103.259H83.0181V98.0742Z" fill="#2C2C34"/>
<path d="M85.981 100.296V101.037H80.7958L80.7958 100.296H85.981Z" fill="#2C2C34"/>
<path d="M88.9441 98.0742H89.6849V103.259H88.9441V98.0742Z" fill="#2C2C34"/>
<path d="M91.9071 100.296V101.037H86.7219L86.7219 100.296H91.9071Z" fill="#2C2C34"/>
<path d="M94.8701 98.0742H95.6109V103.259H94.8701V98.0742Z" fill="#2C2C34"/>
<path d="M97.8331 100.296V101.037H92.6479L92.6479 100.296H97.8331Z" fill="#2C2C34"/>
<path d="M100.796 98.0742H101.537V103.259H100.796V98.0742Z" fill="#2C2C34"/>
<path d="M103.759 100.296V101.037H98.5737L98.5737 100.296H103.759Z" fill="#2C2C34"/>
<path d="M106.722 98.0742H107.463V103.259H106.722V98.0742Z" fill="#2C2C34"/>
<path d="M109.685 100.296V101.037H104.5L104.5 100.296H109.685Z" fill="#2C2C34"/>
<path d="M112.648 98.0742H113.389V103.259H112.648V98.0742Z" fill="#2C2C34"/>
<path d="M115.611 100.296V101.037H110.426L110.426 100.296H115.611Z" fill="#2C2C34"/>
<path d="M118.574 98.0742H119.315V103.259H118.574V98.0742Z" fill="#2C2C34"/>
<path d="M121.537 100.296V101.037H116.352L116.352 100.296H121.537Z" fill="#2C2C34"/>
<path d="M0.0552304 104H0.795971V109.185H0.0552304V104Z" fill="#2C2C34"/>
<path d="M3.01819 106.222V106.963H-2.16699L-2.16699 106.222H3.01819Z" fill="#2C2C34"/>
<path d="M5.98119 104H6.72194V109.185H5.98119V104Z" fill="#2C2C34"/>
<path d="M8.94416 106.222V106.963H3.75897L3.75897 106.222H8.94416Z" fill="#2C2C34"/>
<path d="M11.907 104H12.6477V109.185H11.907V104Z" fill="#2C2C34"/>
<path d="M14.8699 106.222V106.963H9.68475L9.68475 106.222H14.8699Z" fill="#2C2C34"/>
<path d="M17.8332 104H18.5739V109.185H17.8332V104Z" fill="#2C2C34"/>
<path d="M20.7961 106.222V106.963H15.611L15.611 106.222H20.7961Z" fill="#2C2C34"/>
<path d="M23.759 104H24.4997V109.185H23.759V104Z" fill="#2C2C34"/>
<path d="M26.7219 106.222V106.963H21.5367L21.5367 106.222H26.7219Z" fill="#2C2C34"/>
<path d="M29.6849 104H30.4256V109.185H29.6849V104Z" fill="#2C2C34"/>
<path d="M32.6478 106.222V106.963H27.4626L27.4626 106.222H32.6478Z" fill="#2C2C34"/>
<path d="M35.6108 104H36.3515V109.185H35.6108V104Z" fill="#2C2C34"/>
<path d="M38.5737 106.222V106.963H33.3885L33.3885 106.222H38.5737Z" fill="#2C2C34"/>
<path d="M41.5369 104H42.2776V109.185H41.5369V104Z" fill="#2C2C34"/>
<path d="M44.4998 106.222V106.963H39.3146L39.3146 106.222H44.4998Z" fill="#2C2C34"/>
<path d="M47.4627 104H48.2034V109.185H47.4627V104Z" fill="#2C2C34"/>
<path d="M50.4257 106.222V106.963H45.2405L45.2405 106.222H50.4257Z" fill="#2C2C34"/>
<path d="M53.3885 104H54.1292V109.185H53.3885V104Z" fill="#2C2C34"/>
<path d="M56.3514 106.222V106.963H51.1663L51.1663 106.222H56.3514Z" fill="#2C2C34"/>
<path d="M59.3145 104H60.0552V109.185H59.3145V104Z" fill="#2C2C34"/>
<path d="M62.2775 106.222V106.963H57.0923L57.0923 106.222H62.2775Z" fill="#2C2C34"/>
<path d="M65.2403 104H65.981V109.185H65.2403V104Z" fill="#2C2C34"/>
<path d="M68.2033 106.222V106.963H63.0181L63.0181 106.222H68.2033Z" fill="#2C2C34"/>
<path d="M71.1664 104H71.9072V109.185H71.1664V104Z" fill="#2C2C34"/>
<path d="M74.1294 106.222V106.963H68.9442L68.9442 106.222H74.1294Z" fill="#2C2C34"/>
<path d="M77.0923 104H77.833V109.185H77.0923V104Z" fill="#2C2C34"/>
<path d="M80.0552 106.222V106.963H74.8701L74.8701 106.222H80.0552Z" fill="#2C2C34"/>
<path d="M83.0181 104H83.7588V109.185H83.0181V104Z" fill="#2C2C34"/>
<path d="M85.981 106.222V106.963H80.7958L80.7958 106.222H85.981Z" fill="#2C2C34"/>
<path d="M88.9441 104H89.6849V109.185H88.9441V104Z" fill="#2C2C34"/>
<path d="M91.9071 106.222V106.963H86.7219L86.7219 106.222H91.9071Z" fill="#2C2C34"/>
<path d="M94.8701 104H95.6109V109.185H94.8701V104Z" fill="#2C2C34"/>
<path d="M97.8331 106.222V106.963H92.6479L92.6479 106.222H97.8331Z" fill="#2C2C34"/>
<path d="M100.796 104H101.537V109.185H100.796V104Z" fill="#2C2C34"/>
<path d="M103.759 106.222V106.963H98.5737L98.5737 106.222H103.759Z" fill="#2C2C34"/>
<path d="M106.722 104H107.463V109.185H106.722V104Z" fill="#2C2C34"/>
<path d="M109.685 106.222V106.963H104.5L104.5 106.222H109.685Z" fill="#2C2C34"/>
<path d="M112.648 104H113.389V109.185H112.648V104Z" fill="#2C2C34"/>
<path d="M115.611 106.222V106.963H110.426L110.426 106.222H115.611Z" fill="#2C2C34"/>
<path d="M118.574 104H119.315V109.185H118.574V104Z" fill="#2C2C34"/>
<path d="M121.537 106.222V106.963H116.352L116.352 106.222H121.537Z" fill="#2C2C34"/>
<path d="M0.0552304 109.926H0.795971V115.111H0.0552304V109.926Z" fill="#2C2C34"/>
<path d="M3.01819 112.148V112.889H-2.16699L-2.16699 112.148H3.01819Z" fill="#2C2C34"/>
<path d="M5.98119 109.926H6.72194V115.111H5.98119V109.926Z" fill="#2C2C34"/>
<path d="M8.94416 112.148V112.889H3.75897L3.75897 112.148H8.94416Z" fill="#2C2C34"/>
<path d="M11.907 109.926H12.6477V115.111H11.907V109.926Z" fill="#2C2C34"/>
<path d="M14.8699 112.148V112.889H9.68475L9.68475 112.148H14.8699Z" fill="#2C2C34"/>
<path d="M17.8332 109.926H18.5739V115.111H17.8332V109.926Z" fill="#2C2C34"/>
<path d="M20.7961 112.148V112.889H15.611L15.611 112.148H20.7961Z" fill="#2C2C34"/>
<path d="M23.759 109.926H24.4997V115.111H23.759V109.926Z" fill="#2C2C34"/>
<path d="M26.7219 112.148V112.889H21.5367L21.5367 112.148H26.7219Z" fill="#2C2C34"/>
<path d="M29.6849 109.926H30.4256V115.111H29.6849V109.926Z" fill="#2C2C34"/>
<path d="M32.6478 112.148V112.889H27.4626L27.4626 112.148H32.6478Z" fill="#2C2C34"/>
<path d="M35.6108 109.926H36.3515V115.111H35.6108V109.926Z" fill="#2C2C34"/>
<path d="M38.5737 112.148V112.889H33.3885L33.3885 112.148H38.5737Z" fill="#2C2C34"/>
<path d="M41.5369 109.926H42.2776V115.111H41.5369V109.926Z" fill="#2C2C34"/>
<path d="M44.4998 112.148V112.889H39.3146L39.3146 112.148H44.4998Z" fill="#2C2C34"/>
<path d="M47.4627 109.926H48.2034V115.111H47.4627V109.926Z" fill="#2C2C34"/>
<path d="M50.4257 112.148V112.889H45.2405L45.2405 112.148H50.4257Z" fill="#2C2C34"/>
<path d="M53.3885 109.926H54.1292V115.111H53.3885V109.926Z" fill="#2C2C34"/>
<path d="M56.3514 112.148V112.889H51.1663L51.1663 112.148H56.3514Z" fill="#2C2C34"/>
<path d="M59.3145 109.926H60.0552V115.111H59.3145V109.926Z" fill="#2C2C34"/>
<path d="M62.2775 112.148V112.889H57.0923L57.0923 112.148H62.2775Z" fill="#2C2C34"/>
<path d="M65.2403 109.926H65.981V115.111H65.2403V109.926Z" fill="#2C2C34"/>
<path d="M68.2033 112.148V112.889H63.0181L63.0181 112.148H68.2033Z" fill="#2C2C34"/>
<path d="M71.1664 109.926H71.9072V115.111H71.1664V109.926Z" fill="#2C2C34"/>
<path d="M74.1294 112.148V112.889H68.9442L68.9442 112.148H74.1294Z" fill="#2C2C34"/>
<path d="M77.0923 109.926H77.833V115.111H77.0923V109.926Z" fill="#2C2C34"/>
<path d="M80.0552 112.148V112.889H74.8701L74.8701 112.148H80.0552Z" fill="#2C2C34"/>
<path d="M83.0181 109.926H83.7588V115.111H83.0181V109.926Z" fill="#2C2C34"/>
<path d="M85.981 112.148V112.889H80.7958L80.7958 112.148H85.981Z" fill="#2C2C34"/>
<path d="M88.9441 109.926H89.6849V115.111H88.9441V109.926Z" fill="#2C2C34"/>
<path d="M91.9071 112.148V112.889H86.7219L86.7219 112.148H91.9071Z" fill="#2C2C34"/>
<path d="M94.8701 109.926H95.6109V115.111H94.8701V109.926Z" fill="#2C2C34"/>
<path d="M97.8331 112.148V112.889H92.6479L92.6479 112.148H97.8331Z" fill="#2C2C34"/>
<path d="M100.796 109.926H101.537V115.111H100.796V109.926Z" fill="#2C2C34"/>
<path d="M103.759 112.148V112.889H98.5737L98.5737 112.148H103.759Z" fill="#2C2C34"/>
<path d="M106.722 109.926H107.463V115.111H106.722V109.926Z" fill="#2C2C34"/>
<path d="M109.685 112.148V112.889H104.5L104.5 112.148H109.685Z" fill="#2C2C34"/>
<path d="M112.648 109.926H113.389V115.111H112.648V109.926Z" fill="#2C2C34"/>
<path d="M115.611 112.148V112.889H110.426L110.426 112.148H115.611Z" fill="#2C2C34"/>
<path d="M118.574 109.926H119.315V115.111H118.574V109.926Z" fill="#2C2C34"/>
<path d="M121.537 112.148V112.889H116.352L116.352 112.148H121.537Z" fill="#2C2C34"/>
<path d="M0.0552304 115.852H0.795971V121.037H0.0552304V115.852Z" fill="#2C2C34"/>
<path d="M3.01819 118.074V118.815H-2.16699L-2.16699 118.074H3.01819Z" fill="#2C2C34"/>
<path d="M5.98119 115.852H6.72194V121.037H5.98119V115.852Z" fill="#2C2C34"/>
<path d="M8.94416 118.074V118.815H3.75897L3.75897 118.074H8.94416Z" fill="#2C2C34"/>
<path d="M11.907 115.852H12.6477V121.037H11.907V115.852Z" fill="#2C2C34"/>
<path d="M14.8699 118.074V118.815H9.68475L9.68475 118.074H14.8699Z" fill="#2C2C34"/>
<path d="M17.8332 115.852H18.5739V121.037H17.8332V115.852Z" fill="#2C2C34"/>
<path d="M20.7961 118.074V118.815H15.611L15.611 118.074H20.7961Z" fill="#2C2C34"/>
<path d="M23.759 115.852H24.4997V121.037H23.759V115.852Z" fill="#2C2C34"/>
<path d="M26.7219 118.074V118.815H21.5367L21.5367 118.074H26.7219Z" fill="#2C2C34"/>
<path d="M29.6849 115.852H30.4256V121.037H29.6849V115.852Z" fill="#2C2C34"/>
<path d="M32.6478 118.074V118.815H27.4626L27.4626 118.074H32.6478Z" fill="#2C2C34"/>
<path d="M35.6108 115.852H36.3515V121.037H35.6108V115.852Z" fill="#2C2C34"/>
<path d="M38.5737 118.074V118.815H33.3885L33.3885 118.074H38.5737Z" fill="#2C2C34"/>
<path d="M41.5369 115.852H42.2776V121.037H41.5369V115.852Z" fill="#2C2C34"/>
<path d="M44.4998 118.074V118.815H39.3146L39.3146 118.074H44.4998Z" fill="#2C2C34"/>
<path d="M47.4627 115.852H48.2034V121.037H47.4627V115.852Z" fill="#2C2C34"/>
<path d="M50.4257 118.074V118.815H45.2405L45.2405 118.074H50.4257Z" fill="#2C2C34"/>
<path d="M53.3885 115.852H54.1292V121.037H53.3885V115.852Z" fill="#2C2C34"/>
<path d="M56.3514 118.074V118.815H51.1663L51.1663 118.074H56.3514Z" fill="#2C2C34"/>
<path d="M59.3145 115.852H60.0552V121.037H59.3145V115.852Z" fill="#2C2C34"/>
<path d="M62.2775 118.074V118.815H57.0923L57.0923 118.074H62.2775Z" fill="#2C2C34"/>
<path d="M65.2403 115.852H65.981V121.037H65.2403V115.852Z" fill="#2C2C34"/>
<path d="M68.2033 118.074V118.815H63.0181L63.0181 118.074H68.2033Z" fill="#2C2C34"/>
<path d="M71.1664 115.852H71.9072V121.037H71.1664V115.852Z" fill="#2C2C34"/>
<path d="M74.1294 118.074V118.815H68.9442L68.9442 118.074H74.1294Z" fill="#2C2C34"/>
<path d="M77.0923 115.852H77.833V121.037H77.0923V115.852Z" fill="#2C2C34"/>
<path d="M80.0552 118.074V118.815H74.8701L74.8701 118.074H80.0552Z" fill="#2C2C34"/>
<path d="M83.0181 115.852H83.7588V121.037H83.0181V115.852Z" fill="#2C2C34"/>
<path d="M85.981 118.074V118.815H80.7958L80.7958 118.074H85.981Z" fill="#2C2C34"/>
<path d="M88.9441 115.852H89.6849V121.037H88.9441V115.852Z" fill="#2C2C34"/>
<path d="M91.9071 118.074V118.815H86.7219L86.7219 118.074H91.9071Z" fill="#2C2C34"/>
<path d="M94.8701 115.852H95.6109V121.037H94.8701V115.852Z" fill="#2C2C34"/>
<path d="M97.8331 118.074V118.815H92.6479L92.6479 118.074H97.8331Z" fill="#2C2C34"/>
<path d="M100.796 115.852H101.537V121.037H100.796V115.852Z" fill="#2C2C34"/>
<path d="M103.759 118.074V118.815H98.5737L98.5737 118.074H103.759Z" fill="#2C2C34"/>
<path d="M106.722 115.852H107.463V121.037H106.722V115.852Z" fill="#2C2C34"/>
<path d="M109.685 118.074V118.815H104.5L104.5 118.074H109.685Z" fill="#2C2C34"/>
<path d="M112.648 115.852H113.389V121.037H112.648V115.852Z" fill="#2C2C34"/>
<path d="M115.611 118.074V118.815H110.426L110.426 118.074H115.611Z" fill="#2C2C34"/>
<path d="M118.574 115.852H119.315V121.037H118.574V115.852Z" fill="#2C2C34"/>
<path d="M121.537 118.074V118.815H116.352L116.352 118.074H121.537Z" fill="#2C2C34"/>
</g>
<rect x="15" y="21" width="50.3371" height="46.3733" rx="5.33333" fill="white"/>
<path d="M30.9485 55.1866V50.2906H36.9965V37.4266C36.9965 37.0853 36.9112 36.8293 36.7405 36.6586C36.5912 36.4666 36.3565 36.3706 36.0365 36.3706H31.2685V31.1866H37.4125C39.2259 31.1866 40.6765 31.7413 41.7645 32.8506C42.8525 33.9386 43.3965 35.3253 43.3965 37.0106V50.2906H48.6125V55.1866H30.9485Z" fill="#15151E"/>
<g clip-path="url(#clip1_4128_90724)">
<path fill-rule="evenodd" clip-rule="evenodd" d="M80.6922 40.9132C79.1039 39.6955 76.8961 39.6955 75.3078 40.9132L70.418 44.6623C69.6984 45.2141 68.8266 45.5314 67.9206 45.5713L61.7649 45.8424C59.7656 45.9305 58.0742 47.3497 57.6403 49.3034L56.3044 55.3185C56.1077 56.2037 55.6438 57.0072 54.9755 57.6201L50.4343 61.7846C48.9593 63.1373 48.5759 65.3116 49.4993 67.0871L52.3423 72.5537C52.7607 73.3582 52.9218 74.2719 52.8038 75.171L52.0019 81.2802C51.7415 83.2645 52.8454 85.1766 54.6941 85.9432L60.3858 88.3033C61.2235 88.6507 61.9342 89.2471 62.4217 90.0117L65.7344 95.2071C66.8103 96.8946 68.885 97.6497 70.794 97.0486L76.6711 95.1981C77.5361 94.9257 78.4639 94.9257 79.3289 95.1981L85.206 97.0486C87.1149 97.6497 89.1897 96.8946 90.2656 95.2071L93.5783 90.0117C94.0658 89.2471 94.7765 88.6507 95.6142 88.3033L101.306 85.9432C103.155 85.1766 104.259 83.2645 103.998 81.2802L103.196 75.171C103.078 74.2719 103.239 73.3582 103.658 72.5537L106.501 67.0871C107.424 65.3116 107.041 63.1373 105.566 61.7846L101.025 57.6201C100.356 57.0072 99.8923 56.2037 99.6956 55.3185L98.3597 49.3034C97.9258 47.3497 96.2344 45.9305 94.2351 45.8424L88.0794 45.5713C87.1734 45.5314 86.3016 45.214 85.582 44.6623L80.6922 40.9132ZM75.1731 43.8346C76.8408 42.5559 79.1593 42.5559 80.827 43.8346L84.7247 46.823C85.4804 47.4024 86.3959 47.7356 87.3472 47.7775L92.2539 47.9937C94.3534 48.0862 96.1295 49.5764 96.5851 51.628L97.65 56.4226C97.8565 57.3522 98.3436 58.1959 99.0454 58.8395L102.665 62.1591C104.214 63.5795 104.617 65.8627 103.647 67.7271L101.381 72.0845C100.942 72.9294 100.772 73.8888 100.896 74.833L101.535 79.7026C101.809 81.7863 100.65 83.7941 98.7085 84.5991L94.1716 86.4804C93.292 86.8452 92.5457 87.4714 92.0337 88.2743L89.3932 92.4156C88.2633 94.1876 86.0847 94.9805 84.0802 94.3493L79.3955 92.8743C78.4872 92.5883 77.5129 92.5883 76.6046 92.8743L71.9199 94.3493C69.9154 94.9805 67.7368 94.1876 66.6069 92.4156L63.9664 88.2743C63.4545 87.4714 62.7081 86.8452 61.8285 86.4804L57.2917 84.5991C55.3504 83.7941 54.1912 81.7863 54.4647 79.7026L55.1039 74.833C55.2278 73.8888 55.0586 72.9294 54.6192 72.0845L52.3531 67.7271C51.3834 65.8627 51.786 63.5795 53.3349 62.1591L56.9547 58.8395C57.6565 58.1959 58.1436 57.3522 58.3501 56.4226L59.415 51.628C59.8707 49.5764 61.6467 48.0862 63.7462 47.9937L68.6529 47.7775C69.6042 47.7356 70.5197 47.4024 71.2754 46.823L75.1731 43.8346Z" fill="#44444B"/>
<path fill-rule="evenodd" clip-rule="evenodd" d="M83.4021 48.5477L79.5044 45.5593C78.6168 44.8788 77.383 44.8788 76.4954 45.5593L72.5977 48.5477C71.4885 49.3982 70.1447 49.8873 68.7484 49.9488L63.8417 50.1649C62.7243 50.2141 61.7791 51.0073 61.5366 52.0991L60.4717 56.8937C60.1686 58.2582 59.4537 59.4966 58.4235 60.4413L54.8037 63.7608C53.9794 64.5168 53.7651 65.7319 54.2812 66.7242L56.5474 71.0816C57.1923 72.3216 57.4406 73.7299 57.2587 75.1157L56.6195 79.9854C56.4739 81.0943 57.0909 82.1629 58.124 82.5913L62.6609 84.4726C63.952 85.008 65.0474 85.9271 65.7989 87.1057L68.4394 91.2469C69.0407 92.19 70.2002 92.612 71.267 92.2761L75.9517 90.801C77.2849 90.3812 78.7149 90.3812 80.0481 90.801L84.7328 92.2761C85.7996 92.612 86.9591 92.19 87.5604 91.2469L90.2009 87.1057C90.9524 85.9271 92.0478 85.008 93.3389 84.4726L97.8758 82.5913C98.9089 82.1629 99.5259 81.0943 99.3803 79.9854L98.7411 75.1157C98.5592 73.7299 98.8075 72.3216 99.4524 71.0816L101.719 66.7242C102.235 65.7319 102.02 64.5167 101.196 63.7608L97.5763 60.4413C96.5461 59.4966 95.8311 58.2582 95.5281 56.8937L94.4632 52.0991C94.2207 51.0073 93.2755 50.2141 92.1581 50.1649L87.2514 49.9488C85.8551 49.8873 84.5113 49.3982 83.4021 48.5477ZM85.1452 62.473L87.5448 70.8413L94.5296 68.8385L94.0017 66.9974L89.1927 68.3764L88.7767 66.9259L93.5858 65.5469L93.0738 63.7617L88.2648 65.1406L87.8489 63.6901L92.6579 62.3111L92.13 60.4701L85.1452 62.473ZM79.1982 73.2347L76.7986 64.8663L83.7834 62.8634L84.3113 64.7045L79.5023 66.0834L79.9182 67.534L84.7273 66.155L85.2392 67.9403L80.4301 69.3192L80.8461 70.7697L85.6551 69.3908L86.183 71.2318L79.1982 73.2347ZM70.4079 75.7552L72.5279 75.1474L71.5649 71.7888L75.6075 74.2643L78.2184 73.5156L74.1519 70.9987L74.2746 70.9635C74.7209 70.8356 75.1204 70.6848 75.4732 70.5112C75.8238 70.3301 76.101 70.1178 76.3048 69.8742C76.5161 69.6285 76.6508 69.3403 76.709 69.0097C76.765 68.6716 76.729 68.2794 76.601 67.8331L76.4507 67.3087C76.3291 66.8847 76.147 66.5585 75.9044 66.3302C75.6597 66.0945 75.3763 65.9342 75.0542 65.8495C74.7395 65.7627 74.3865 65.7391 73.9954 65.7788C73.6043 65.8185 73.2042 65.897 72.795 66.0143L67.3971 67.5621L65.7768 68.0268L60.8028 69.453L63.2024 77.8214L65.434 77.1815L64.5317 74.035L68.8944 72.784L68.3665 70.943L64.0038 72.194L63.5623 70.6542L66.3047 69.8678L67.925 69.4032L73.3787 67.8393C73.6837 67.7519 73.9069 67.7442 74.0484 67.8164C74.1951 67.879 74.3154 68.0739 74.4093 68.4012L74.4253 68.457C74.5255 68.8066 74.53 69.0468 74.4387 69.1776C74.3549 69.3063 74.1604 69.4144 73.8555 69.5019L69.6936 70.6953C69.5076 70.7486 69.3658 70.8577 69.2682 71.0225C69.1706 71.1874 69.1516 71.3739 69.2113 71.5822L70.4079 75.7552Z" fill="#E10600"/>
</g>
</g>
<defs>
<clipPath id="clip0_4128_90724">
<rect width="120" height="120" fill="white" transform="translate(0.5)"/>
</clipPath>
<clipPath id="clip1_4128_90724">
<rect width="58.0261" height="58.0105" fill="white" transform="translate(48.7344 40.3349)"/>
</clipPath>
</defs>
</svg>
