<svg width="121" height="120" viewBox="0 0 121 120" fill="none" xmlns="http://www.w3.org/2000/svg">
<g clip-path="url(#clip0_4128_91643)">
<g opacity="0.1">
<path d="M0.0552304 -2.66663H0.795971V2.51856H0.0552304V-2.66663Z" fill="#2C2C34"/>
<path d="M3.01819 -0.444403V0.296337H-2.16699L-2.16699 -0.444403H3.01819Z" fill="#2C2C34"/>
<path d="M5.98119 -2.66669H6.72194V2.5185H5.98119V-2.66669Z" fill="#2C2C34"/>
<path d="M8.94416 -0.444464V0.296276H3.75897L3.75897 -0.444464H8.94416Z" fill="#2C2C34"/>
<path d="M11.907 -2.66669H12.6477V2.5185H11.907V-2.66669Z" fill="#2C2C34"/>
<path d="M14.8699 -0.444464V0.296276H9.68475L9.68475 -0.444464H14.8699Z" fill="#2C2C34"/>
<path d="M17.8332 -2.66669H18.5739V2.5185H17.8332V-2.66669Z" fill="#2C2C34"/>
<path d="M20.7961 -0.444464V0.296276H15.6109L15.6109 -0.444464H20.7961Z" fill="#2C2C34"/>
<path d="M23.759 -2.66669H24.4997V2.5185H23.759V-2.66669Z" fill="#2C2C34"/>
<path d="M26.7219 -0.444464V0.296276H21.5367L21.5367 -0.444464H26.7219Z" fill="#2C2C34"/>
<path d="M29.6849 -2.66669H30.4256V2.5185H29.6849V-2.66669Z" fill="#2C2C34"/>
<path d="M32.6478 -0.444464V0.296276H27.4627L27.4627 -0.444464H32.6478Z" fill="#2C2C34"/>
<path d="M35.6108 -2.66669H36.3515V2.5185H35.6108V-2.66669Z" fill="#2C2C34"/>
<path d="M38.5737 -0.444464V0.296276H33.3885L33.3885 -0.444464H38.5737Z" fill="#2C2C34"/>
<path d="M41.5369 -2.66669H42.2776V2.5185H41.5369V-2.66669Z" fill="#2C2C34"/>
<path d="M44.4998 -0.444464V0.296276H39.3146L39.3146 -0.444464H44.4998Z" fill="#2C2C34"/>
<path d="M47.4627 -2.66669H48.2035V2.5185H47.4627V-2.66669Z" fill="#2C2C34"/>
<path d="M50.4257 -0.444464V0.296276H45.2405L45.2405 -0.444464H50.4257Z" fill="#2C2C34"/>
<path d="M53.3885 -2.66669H54.1292V2.5185H53.3885V-2.66669Z" fill="#2C2C34"/>
<path d="M56.3515 -0.444464V0.296276H51.1663L51.1663 -0.444464H56.3515Z" fill="#2C2C34"/>
<path d="M59.3145 -2.66663H60.0552V2.51856H59.3145V-2.66663Z" fill="#2C2C34"/>
<path d="M62.2775 -0.444403V0.296337H57.0923L57.0923 -0.444403H62.2775Z" fill="#2C2C34"/>
<path d="M65.2403 -2.66669H65.9811V2.5185H65.2403V-2.66669Z" fill="#2C2C34"/>
<path d="M68.2033 -0.444464V0.296276H63.0181L63.0181 -0.444464H68.2033Z" fill="#2C2C34"/>
<path d="M71.1664 -2.66669H71.9071V2.5185H71.1664V-2.66669Z" fill="#2C2C34"/>
<path d="M74.1294 -0.444464V0.296276H68.9442L68.9442 -0.444464H74.1294Z" fill="#2C2C34"/>
<path d="M77.0923 -2.66663H77.833V2.51856H77.0923V-2.66663Z" fill="#2C2C34"/>
<path d="M80.0552 -0.444403V0.296337H74.8701L74.8701 -0.444403H80.0552Z" fill="#2C2C34"/>
<path d="M83.0181 -2.66669H83.7588V2.5185H83.0181V-2.66669Z" fill="#2C2C34"/>
<path d="M85.981 -0.444464V0.296276H80.7958L80.7958 -0.444464H85.981Z" fill="#2C2C34"/>
<path d="M88.9442 -2.66669H89.6849V2.5185H88.9442V-2.66669Z" fill="#2C2C34"/>
<path d="M91.9071 -0.444464V0.296276H86.722L86.722 -0.444464H91.9071Z" fill="#2C2C34"/>
<path d="M94.8701 -2.66669H95.6109V2.5185H94.8701V-2.66669Z" fill="#2C2C34"/>
<path d="M97.8331 -0.444464V0.296276H92.6479L92.6479 -0.444464H97.8331Z" fill="#2C2C34"/>
<path d="M100.796 -2.66669H101.537V2.5185H100.796V-2.66669Z" fill="#2C2C34"/>
<path d="M103.759 -0.444464V0.296276H98.5738L98.5738 -0.444464H103.759Z" fill="#2C2C34"/>
<path d="M106.722 -2.66669H107.463V2.5185H106.722V-2.66669Z" fill="#2C2C34"/>
<path d="M109.685 -0.444464V0.296276H104.5L104.5 -0.444464H109.685Z" fill="#2C2C34"/>
<path d="M112.648 -2.66669H113.389V2.5185H112.648V-2.66669Z" fill="#2C2C34"/>
<path d="M115.611 -0.444464V0.296276H110.426L110.426 -0.444464H115.611Z" fill="#2C2C34"/>
<path d="M118.574 -2.66669H119.315V2.5185H118.574V-2.66669Z" fill="#2C2C34"/>
<path d="M121.537 -0.444464V0.296276H116.352L116.352 -0.444464H121.537Z" fill="#2C2C34"/>
<path d="M0.0552609 3.25928H0.796002V8.44446H0.0552609V3.25928Z" fill="#2C2C34"/>
<path d="M3.01822 5.4815V6.22224H-2.16696L-2.16696 5.4815H3.01822Z" fill="#2C2C34"/>
<path d="M5.98123 3.25928H6.72197V8.44446H5.98123V3.25928Z" fill="#2C2C34"/>
<path d="M8.94419 5.4815V6.22224H3.759L3.759 5.4815H8.94419Z" fill="#2C2C34"/>
<path d="M11.907 3.25928H12.6477V8.44446H11.907V3.25928Z" fill="#2C2C34"/>
<path d="M14.87 5.4815V6.22224H9.68478L9.68478 5.4815H14.87Z" fill="#2C2C34"/>
<path d="M17.8332 3.25928H18.5739V8.44446H17.8332V3.25928Z" fill="#2C2C34"/>
<path d="M20.7962 5.4815V6.22224H15.611L15.611 5.4815H20.7962Z" fill="#2C2C34"/>
<path d="M23.759 3.25928H24.4997V8.44446H23.759V3.25928Z" fill="#2C2C34"/>
<path d="M26.7219 5.4815V6.22224H21.5368L21.5368 5.4815H26.7219Z" fill="#2C2C34"/>
<path d="M29.6849 3.25928H30.4257V8.44446H29.6849V3.25928Z" fill="#2C2C34"/>
<path d="M32.6479 5.4815V6.22224H27.4627L27.4627 5.4815H32.6479Z" fill="#2C2C34"/>
<path d="M35.6108 3.25928H36.3515V8.44446H35.6108V3.25928Z" fill="#2C2C34"/>
<path d="M38.5738 5.4815V6.22224H33.3886L33.3886 5.4815H38.5738Z" fill="#2C2C34"/>
<path d="M41.5369 3.25928H42.2776V8.44446H41.5369V3.25928Z" fill="#2C2C34"/>
<path d="M44.4999 5.4815V6.22224H39.3147L39.3147 5.4815H44.4999Z" fill="#2C2C34"/>
<path d="M47.4627 3.25928H48.2035V8.44446H47.4627V3.25928Z" fill="#2C2C34"/>
<path d="M50.4257 5.4815V6.22224H45.2405L45.2405 5.4815H50.4257Z" fill="#2C2C34"/>
<path d="M53.3885 3.25928H54.1293V8.44446H53.3885V3.25928Z" fill="#2C2C34"/>
<path d="M56.3515 5.4815V6.22224H51.1663L51.1663 5.4815H56.3515Z" fill="#2C2C34"/>
<path d="M59.3145 3.25928H60.0553V8.44446H59.3145V3.25928Z" fill="#2C2C34"/>
<path d="M62.2775 5.4815V6.22224H57.0923L57.0923 5.4815H62.2775Z" fill="#2C2C34"/>
<path d="M65.2404 3.25928H65.9811V8.44446H65.2404V3.25928Z" fill="#2C2C34"/>
<path d="M68.2033 5.4815V6.22224H63.0181L63.0181 5.4815H68.2033Z" fill="#2C2C34"/>
<path d="M71.1664 3.25928H71.9072V8.44446H71.1664V3.25928Z" fill="#2C2C34"/>
<path d="M74.1294 5.4815V6.22224H68.9442L68.9442 5.4815H74.1294Z" fill="#2C2C34"/>
<path d="M77.0923 3.25928H77.8331V8.44446H77.0923V3.25928Z" fill="#2C2C34"/>
<path d="M80.0553 5.4815V6.22224H74.8701L74.8701 5.4815H80.0553Z" fill="#2C2C34"/>
<path d="M83.0181 3.25928H83.7588V8.44446H83.0181V3.25928Z" fill="#2C2C34"/>
<path d="M85.9811 5.4815V6.22224H80.7959L80.7959 5.4815H85.9811Z" fill="#2C2C34"/>
<path d="M88.9442 3.25928H89.6849V8.44446H88.9442V3.25928Z" fill="#2C2C34"/>
<path d="M91.9072 5.4815V6.22224H86.722L86.722 5.4815H91.9072Z" fill="#2C2C34"/>
<path d="M94.8701 3.25928H95.6109V8.44446H94.8701V3.25928Z" fill="#2C2C34"/>
<path d="M97.8331 5.4815V6.22224H92.6479L92.6479 5.4815H97.8331Z" fill="#2C2C34"/>
<path d="M100.796 3.25928H101.537V8.44446H100.796V3.25928Z" fill="#2C2C34"/>
<path d="M103.759 5.4815V6.22224H98.5738L98.5738 5.4815H103.759Z" fill="#2C2C34"/>
<path d="M106.722 3.25928H107.463V8.44446H106.722V3.25928Z" fill="#2C2C34"/>
<path d="M109.685 5.4815V6.22224H104.5L104.5 5.4815H109.685Z" fill="#2C2C34"/>
<path d="M112.648 3.25928H113.389V8.44446H112.648V3.25928Z" fill="#2C2C34"/>
<path d="M115.611 5.4815V6.22224H110.426L110.426 5.4815H115.611Z" fill="#2C2C34"/>
<path d="M118.574 3.25928H119.315V8.44446H118.574V3.25928Z" fill="#2C2C34"/>
<path d="M121.537 5.4815V6.22224H116.352L116.352 5.4815H121.537Z" fill="#2C2C34"/>
<path d="M0.0552609 9.18524H0.796002V14.3704H0.0552609V9.18524Z" fill="#2C2C34"/>
<path d="M3.01822 11.4075V12.1482H-2.16696L-2.16696 11.4075H3.01822Z" fill="#2C2C34"/>
<path d="M5.98123 9.1853H6.72197V14.3705H5.98123V9.1853Z" fill="#2C2C34"/>
<path d="M8.94419 11.4075V12.1483H3.759L3.759 11.4075H8.94419Z" fill="#2C2C34"/>
<path d="M11.907 9.1853H12.6477V14.3705H11.907V9.1853Z" fill="#2C2C34"/>
<path d="M14.87 11.4075V12.1483H9.68478L9.68478 11.4075H14.87Z" fill="#2C2C34"/>
<path d="M17.8332 9.1853H18.5739V14.3705H17.8332V9.1853Z" fill="#2C2C34"/>
<path d="M20.7962 11.4075V12.1483H15.611L15.611 11.4075H20.7962Z" fill="#2C2C34"/>
<path d="M23.759 9.1853H24.4997V14.3705H23.759V9.1853Z" fill="#2C2C34"/>
<path d="M26.7219 11.4075V12.1483H21.5368L21.5368 11.4075H26.7219Z" fill="#2C2C34"/>
<path d="M29.6849 9.1853H30.4257V14.3705H29.6849V9.1853Z" fill="#2C2C34"/>
<path d="M32.6479 11.4075V12.1483H27.4627L27.4627 11.4075H32.6479Z" fill="#2C2C34"/>
<path d="M35.6108 9.1853H36.3515V14.3705H35.6108V9.1853Z" fill="#2C2C34"/>
<path d="M38.5738 11.4075V12.1483H33.3886L33.3886 11.4075H38.5738Z" fill="#2C2C34"/>
<path d="M41.5369 9.1853H42.2776V14.3705H41.5369V9.1853Z" fill="#2C2C34"/>
<path d="M44.4999 11.4075V12.1483H39.3147L39.3147 11.4075H44.4999Z" fill="#2C2C34"/>
<path d="M47.4627 9.1853H48.2035V14.3705H47.4627V9.1853Z" fill="#2C2C34"/>
<path d="M50.4257 11.4075V12.1483H45.2405L45.2405 11.4075H50.4257Z" fill="#2C2C34"/>
<path d="M53.3885 9.1853H54.1293V14.3705H53.3885V9.1853Z" fill="#2C2C34"/>
<path d="M56.3515 11.4075V12.1483H51.1663L51.1663 11.4075H56.3515Z" fill="#2C2C34"/>
<path d="M59.3145 9.18524H60.0553V14.3704H59.3145V9.18524Z" fill="#2C2C34"/>
<path d="M62.2775 11.4075V12.1482H57.0923L57.0923 11.4075H62.2775Z" fill="#2C2C34"/>
<path d="M65.2404 9.1853H65.9811V14.3705H65.2404V9.1853Z" fill="#2C2C34"/>
<path d="M68.2033 11.4075V12.1483H63.0181L63.0181 11.4075H68.2033Z" fill="#2C2C34"/>
<path d="M71.1664 9.1853H71.9072V14.3705H71.1664V9.1853Z" fill="#2C2C34"/>
<path d="M74.1294 11.4075V12.1483H68.9442L68.9442 11.4075H74.1294Z" fill="#2C2C34"/>
<path d="M77.0923 9.18524H77.8331V14.3704H77.0923V9.18524Z" fill="#2C2C34"/>
<path d="M80.0553 11.4075V12.1482H74.8701L74.8701 11.4075H80.0553Z" fill="#2C2C34"/>
<path d="M83.0181 9.1853H83.7588V14.3705H83.0181V9.1853Z" fill="#2C2C34"/>
<path d="M85.9811 11.4075V12.1483H80.7959L80.7959 11.4075H85.9811Z" fill="#2C2C34"/>
<path d="M88.9442 9.1853H89.6849V14.3705H88.9442V9.1853Z" fill="#2C2C34"/>
<path d="M91.9072 11.4075V12.1483H86.722L86.722 11.4075H91.9072Z" fill="#2C2C34"/>
<path d="M94.8701 9.1853H95.6109V14.3705H94.8701V9.1853Z" fill="#2C2C34"/>
<path d="M97.8331 11.4075V12.1483H92.6479L92.6479 11.4075H97.8331Z" fill="#2C2C34"/>
<path d="M100.796 9.1853H101.537V14.3705H100.796V9.1853Z" fill="#2C2C34"/>
<path d="M103.759 11.4075V12.1483H98.5738L98.5738 11.4075H103.759Z" fill="#2C2C34"/>
<path d="M106.722 9.1853H107.463V14.3705H106.722V9.1853Z" fill="#2C2C34"/>
<path d="M109.685 11.4075V12.1483H104.5L104.5 11.4075H109.685Z" fill="#2C2C34"/>
<path d="M112.648 9.1853H113.389V14.3705H112.648V9.1853Z" fill="#2C2C34"/>
<path d="M115.611 11.4075V12.1483H110.426L110.426 11.4075H115.611Z" fill="#2C2C34"/>
<path d="M118.574 9.1853H119.315V14.3705H118.574V9.1853Z" fill="#2C2C34"/>
<path d="M121.537 11.4075V12.1483H116.352L116.352 11.4075H121.537Z" fill="#2C2C34"/>
<path d="M0.0552609 15.1111H0.796002V20.2963H0.0552609V15.1111Z" fill="#2C2C34"/>
<path d="M3.01822 17.3334V18.0741H-2.16696L-2.16696 17.3334H3.01822Z" fill="#2C2C34"/>
<path d="M5.98123 15.1111H6.72197V20.2963H5.98123V15.1111Z" fill="#2C2C34"/>
<path d="M8.94419 17.3333V18.074H3.759L3.759 17.3333H8.94419Z" fill="#2C2C34"/>
<path d="M11.907 15.1111H12.6477V20.2963H11.907V15.1111Z" fill="#2C2C34"/>
<path d="M14.87 17.3333V18.074H9.68478L9.68478 17.3333H14.87Z" fill="#2C2C34"/>
<path d="M17.8332 15.1111H18.5739V20.2963H17.8332V15.1111Z" fill="#2C2C34"/>
<path d="M20.7962 17.3333V18.074H15.611L15.611 17.3333H20.7962Z" fill="#2C2C34"/>
<path d="M23.759 15.1111H24.4997V20.2963H23.759V15.1111Z" fill="#2C2C34"/>
<path d="M26.7219 17.3333V18.074H21.5368L21.5368 17.3333H26.7219Z" fill="#2C2C34"/>
<path d="M29.6849 15.1111H30.4257V20.2963H29.6849V15.1111Z" fill="#2C2C34"/>
<path d="M32.6479 17.3333V18.074H27.4627L27.4627 17.3333H32.6479Z" fill="#2C2C34"/>
<path d="M35.6108 15.1111H36.3515V20.2963H35.6108V15.1111Z" fill="#2C2C34"/>
<path d="M38.5738 17.3333V18.074H33.3886L33.3886 17.3333H38.5738Z" fill="#2C2C34"/>
<path d="M41.5369 15.1111H42.2776V20.2963H41.5369V15.1111Z" fill="#2C2C34"/>
<path d="M44.4999 17.3333V18.074H39.3147L39.3147 17.3333H44.4999Z" fill="#2C2C34"/>
<path d="M47.4627 15.1111H48.2035V20.2963H47.4627V15.1111Z" fill="#2C2C34"/>
<path d="M50.4257 17.3333V18.074H45.2405L45.2405 17.3333H50.4257Z" fill="#2C2C34"/>
<path d="M53.3885 15.1111H54.1293V20.2963H53.3885V15.1111Z" fill="#2C2C34"/>
<path d="M56.3515 17.3333V18.074H51.1663L51.1663 17.3333H56.3515Z" fill="#2C2C34"/>
<path d="M59.3145 15.1111H60.0553V20.2963H59.3145V15.1111Z" fill="#2C2C34"/>
<path d="M62.2775 17.3334V18.0741H57.0923L57.0923 17.3334H62.2775Z" fill="#2C2C34"/>
<path d="M65.2404 15.1111H65.9811V20.2963H65.2404V15.1111Z" fill="#2C2C34"/>
<path d="M68.2033 17.3333V18.074H63.0181L63.0181 17.3333H68.2033Z" fill="#2C2C34"/>
<path d="M71.1664 15.1111H71.9072V20.2963H71.1664V15.1111Z" fill="#2C2C34"/>
<path d="M74.1294 17.3333V18.074H68.9442L68.9442 17.3333H74.1294Z" fill="#2C2C34"/>
<path d="M77.0923 15.1111H77.8331V20.2963H77.0923V15.1111Z" fill="#2C2C34"/>
<path d="M80.0553 17.3334V18.0741H74.8701L74.8701 17.3334H80.0553Z" fill="#2C2C34"/>
<path d="M83.0181 15.1111H83.7588V20.2963H83.0181V15.1111Z" fill="#2C2C34"/>
<path d="M85.9811 17.3333V18.074H80.7959L80.7959 17.3333H85.9811Z" fill="#2C2C34"/>
<path d="M88.9442 15.1111H89.6849V20.2963H88.9442V15.1111Z" fill="#2C2C34"/>
<path d="M91.9072 17.3333V18.074H86.722L86.722 17.3333H91.9072Z" fill="#2C2C34"/>
<path d="M94.8701 15.1111H95.6109V20.2963H94.8701V15.1111Z" fill="#2C2C34"/>
<path d="M97.8331 17.3333V18.074H92.6479L92.6479 17.3333H97.8331Z" fill="#2C2C34"/>
<path d="M100.796 15.1111H101.537V20.2963H100.796V15.1111Z" fill="#2C2C34"/>
<path d="M103.759 17.3333V18.074H98.5738L98.5738 17.3333H103.759Z" fill="#2C2C34"/>
<path d="M106.722 15.1111H107.463V20.2963H106.722V15.1111Z" fill="#2C2C34"/>
<path d="M109.685 17.3333V18.074H104.5L104.5 17.3333H109.685Z" fill="#2C2C34"/>
<path d="M112.648 15.1111H113.389V20.2963H112.648V15.1111Z" fill="#2C2C34"/>
<path d="M115.611 17.3333V18.074H110.426L110.426 17.3333H115.611Z" fill="#2C2C34"/>
<path d="M118.574 15.1111H119.315V20.2963H118.574V15.1111Z" fill="#2C2C34"/>
<path d="M121.537 17.3333V18.074H116.352L116.352 17.3333H121.537Z" fill="#2C2C34"/>
<path d="M0.0552609 21.0371H0.796002V26.2223H0.0552609V21.0371Z" fill="#2C2C34"/>
<path d="M3.01822 23.2593V24.0001H-2.16696L-2.16696 23.2593H3.01822Z" fill="#2C2C34"/>
<path d="M5.98123 21.0371H6.72197V26.2223H5.98123V21.0371Z" fill="#2C2C34"/>
<path d="M8.94419 23.2593V24.0001H3.759L3.759 23.2593H8.94419Z" fill="#2C2C34"/>
<path d="M11.907 21.0371H12.6477V26.2223H11.907V21.0371Z" fill="#2C2C34"/>
<path d="M14.87 23.2593V24.0001H9.68478L9.68478 23.2593H14.87Z" fill="#2C2C34"/>
<path d="M17.8332 21.0371H18.5739V26.2223H17.8332V21.0371Z" fill="#2C2C34"/>
<path d="M20.7962 23.2593V24.0001H15.611L15.611 23.2593H20.7962Z" fill="#2C2C34"/>
<path d="M23.759 21.0371H24.4997V26.2223H23.759V21.0371Z" fill="#2C2C34"/>
<path d="M26.7219 23.2593V24.0001H21.5368L21.5368 23.2593H26.7219Z" fill="#2C2C34"/>
<path d="M29.6849 21.0371H30.4257V26.2223H29.6849V21.0371Z" fill="#2C2C34"/>
<path d="M32.6479 23.2593V24.0001H27.4627L27.4627 23.2593H32.6479Z" fill="#2C2C34"/>
<path d="M35.6108 21.0371H36.3515V26.2223H35.6108V21.0371Z" fill="#2C2C34"/>
<path d="M38.5738 23.2593V24.0001H33.3886L33.3886 23.2593H38.5738Z" fill="#2C2C34"/>
<path d="M41.5369 21.0371H42.2776V26.2223H41.5369V21.0371Z" fill="#2C2C34"/>
<path d="M44.4999 23.2593V24.0001H39.3147L39.3147 23.2593H44.4999Z" fill="#2C2C34"/>
<path d="M47.4627 21.0371H48.2035V26.2223H47.4627V21.0371Z" fill="#2C2C34"/>
<path d="M50.4257 23.2593V24.0001H45.2405L45.2405 23.2593H50.4257Z" fill="#2C2C34"/>
<path d="M53.3885 21.0371H54.1293V26.2223H53.3885V21.0371Z" fill="#2C2C34"/>
<path d="M56.3515 23.2593V24.0001H51.1663L51.1663 23.2593H56.3515Z" fill="#2C2C34"/>
<path d="M59.3145 21.0371H60.0553V26.2223H59.3145V21.0371Z" fill="#2C2C34"/>
<path d="M62.2775 23.2593V24.0001H57.0923L57.0923 23.2593H62.2775Z" fill="#2C2C34"/>
<path d="M65.2404 21.0371H65.9811V26.2223H65.2404V21.0371Z" fill="#2C2C34"/>
<path d="M68.2033 23.2593V24.0001H63.0181L63.0181 23.2593H68.2033Z" fill="#2C2C34"/>
<path d="M71.1664 21.0371H71.9072V26.2223H71.1664V21.0371Z" fill="#2C2C34"/>
<path d="M74.1294 23.2593V24.0001H68.9442L68.9442 23.2593H74.1294Z" fill="#2C2C34"/>
<path d="M77.0923 21.0371H77.8331V26.2223H77.0923V21.0371Z" fill="#2C2C34"/>
<path d="M80.0553 23.2593V24.0001H74.8701L74.8701 23.2593H80.0553Z" fill="#2C2C34"/>
<path d="M83.0181 21.0371H83.7588V26.2223H83.0181V21.0371Z" fill="#2C2C34"/>
<path d="M85.9811 23.2593V24.0001H80.7959L80.7959 23.2593H85.9811Z" fill="#2C2C34"/>
<path d="M88.9442 21.0371H89.6849V26.2223H88.9442V21.0371Z" fill="#2C2C34"/>
<path d="M91.9072 23.2593V24.0001H86.722L86.722 23.2593H91.9072Z" fill="#2C2C34"/>
<path d="M94.8701 21.0371H95.6109V26.2223H94.8701V21.0371Z" fill="#2C2C34"/>
<path d="M97.8331 23.2593V24.0001H92.6479L92.6479 23.2593H97.8331Z" fill="#2C2C34"/>
<path d="M100.796 21.0371H101.537V26.2223H100.796V21.0371Z" fill="#2C2C34"/>
<path d="M103.759 23.2593V24.0001H98.5738L98.5738 23.2593H103.759Z" fill="#2C2C34"/>
<path d="M106.722 21.0371H107.463V26.2223H106.722V21.0371Z" fill="#2C2C34"/>
<path d="M109.685 23.2593V24.0001H104.5L104.5 23.2593H109.685Z" fill="#2C2C34"/>
<path d="M112.648 21.0371H113.389V26.2223H112.648V21.0371Z" fill="#2C2C34"/>
<path d="M115.611 23.2593V24.0001H110.426L110.426 23.2593H115.611Z" fill="#2C2C34"/>
<path d="M118.574 21.0371H119.315V26.2223H118.574V21.0371Z" fill="#2C2C34"/>
<path d="M121.537 23.2593V24.0001H116.352L116.352 23.2593H121.537Z" fill="#2C2C34"/>
<path d="M0.0552609 26.9629H0.796002V32.1481H0.0552609V26.9629Z" fill="#2C2C34"/>
<path d="M3.01822 29.1851V29.9259H-2.16696L-2.16696 29.1851H3.01822Z" fill="#2C2C34"/>
<path d="M5.98123 26.9629H6.72197V32.1481H5.98123V26.9629Z" fill="#2C2C34"/>
<path d="M8.94419 29.1851V29.9259H3.759L3.759 29.1851H8.94419Z" fill="#2C2C34"/>
<path d="M11.907 26.9629H12.6477V32.1481H11.907V26.9629Z" fill="#2C2C34"/>
<path d="M14.87 29.1851V29.9259H9.68478L9.68478 29.1851H14.87Z" fill="#2C2C34"/>
<path d="M17.8332 26.9629H18.5739V32.1481H17.8332V26.9629Z" fill="#2C2C34"/>
<path d="M20.7962 29.1851V29.9259H15.611L15.611 29.1851H20.7962Z" fill="#2C2C34"/>
<path d="M23.759 26.9629H24.4997V32.1481H23.759V26.9629Z" fill="#2C2C34"/>
<path d="M26.7219 29.1851V29.9259H21.5368L21.5368 29.1851H26.7219Z" fill="#2C2C34"/>
<path d="M29.6849 26.9629H30.4257V32.1481H29.6849V26.9629Z" fill="#2C2C34"/>
<path d="M32.6479 29.1851V29.9259H27.4627L27.4627 29.1851H32.6479Z" fill="#2C2C34"/>
<path d="M35.6108 26.9629H36.3515V32.1481H35.6108V26.9629Z" fill="#2C2C34"/>
<path d="M38.5738 29.1851V29.9259H33.3886L33.3886 29.1851H38.5738Z" fill="#2C2C34"/>
<path d="M41.5369 26.9629H42.2776V32.1481H41.5369V26.9629Z" fill="#2C2C34"/>
<path d="M44.4999 29.1851V29.9259H39.3147L39.3147 29.1851H44.4999Z" fill="#2C2C34"/>
<path d="M47.4627 26.9629H48.2035V32.1481H47.4627V26.9629Z" fill="#2C2C34"/>
<path d="M50.4257 29.1851V29.9259H45.2405L45.2405 29.1851H50.4257Z" fill="#2C2C34"/>
<path d="M53.3885 26.9629H54.1293V32.1481H53.3885V26.9629Z" fill="#2C2C34"/>
<path d="M56.3515 29.1851V29.9259H51.1663L51.1663 29.1851H56.3515Z" fill="#2C2C34"/>
<path d="M59.3145 26.9629H60.0553V32.1481H59.3145V26.9629Z" fill="#2C2C34"/>
<path d="M62.2775 29.1851V29.9259H57.0923L57.0923 29.1851H62.2775Z" fill="#2C2C34"/>
<path d="M65.2404 26.9629H65.9811V32.1481H65.2404V26.9629Z" fill="#2C2C34"/>
<path d="M68.2033 29.1851V29.9259H63.0181L63.0181 29.1851H68.2033Z" fill="#2C2C34"/>
<path d="M71.1664 26.9629H71.9072V32.1481H71.1664V26.9629Z" fill="#2C2C34"/>
<path d="M74.1294 29.1851V29.9259H68.9442L68.9442 29.1851H74.1294Z" fill="#2C2C34"/>
<path d="M77.0923 26.9629H77.8331V32.1481H77.0923V26.9629Z" fill="#2C2C34"/>
<path d="M80.0553 29.1851V29.9259H74.8701L74.8701 29.1851H80.0553Z" fill="#2C2C34"/>
<path d="M83.0181 26.9629H83.7588V32.1481H83.0181V26.9629Z" fill="#2C2C34"/>
<path d="M85.9811 29.1851V29.9259H80.7959L80.7959 29.1851H85.9811Z" fill="#2C2C34"/>
<path d="M88.9442 26.9629H89.6849V32.1481H88.9442V26.9629Z" fill="#2C2C34"/>
<path d="M91.9072 29.1851V29.9259H86.722L86.722 29.1851H91.9072Z" fill="#2C2C34"/>
<path d="M94.8701 26.9629H95.6109V32.1481H94.8701V26.9629Z" fill="#2C2C34"/>
<path d="M97.8331 29.1851V29.9259H92.6479L92.6479 29.1851H97.8331Z" fill="#2C2C34"/>
<path d="M100.796 26.9629H101.537V32.1481H100.796V26.9629Z" fill="#2C2C34"/>
<path d="M103.759 29.1851V29.9259H98.5738L98.5738 29.1851H103.759Z" fill="#2C2C34"/>
<path d="M106.722 26.9629H107.463V32.1481H106.722V26.9629Z" fill="#2C2C34"/>
<path d="M109.685 29.1851V29.9259H104.5L104.5 29.1851H109.685Z" fill="#2C2C34"/>
<path d="M112.648 26.9629H113.389V32.1481H112.648V26.9629Z" fill="#2C2C34"/>
<path d="M115.611 29.1851V29.9259H110.426L110.426 29.1851H115.611Z" fill="#2C2C34"/>
<path d="M118.574 26.9629H119.315V32.1481H118.574V26.9629Z" fill="#2C2C34"/>
<path d="M121.537 29.1851V29.9259H116.352L116.352 29.1851H121.537Z" fill="#2C2C34"/>
<path d="M0.0552609 32.889H0.796002V38.0742H0.0552609V32.889Z" fill="#2C2C34"/>
<path d="M3.01822 35.1112V35.8519H-2.16696L-2.16696 35.1112H3.01822Z" fill="#2C2C34"/>
<path d="M5.98123 32.889H6.72197V38.0742H5.98123V32.889Z" fill="#2C2C34"/>
<path d="M8.94419 35.1113V35.852H3.759L3.759 35.1113H8.94419Z" fill="#2C2C34"/>
<path d="M11.907 32.889H12.6477V38.0742H11.907V32.889Z" fill="#2C2C34"/>
<path d="M14.87 35.1113V35.852H9.68478L9.68478 35.1113H14.87Z" fill="#2C2C34"/>
<path d="M17.8332 32.889H18.5739V38.0742H17.8332V32.889Z" fill="#2C2C34"/>
<path d="M20.7962 35.1113V35.852H15.611L15.611 35.1113H20.7962Z" fill="#2C2C34"/>
<path d="M23.759 32.889H24.4997V38.0742H23.759V32.889Z" fill="#2C2C34"/>
<path d="M26.7219 35.1113V35.852H21.5368L21.5368 35.1113H26.7219Z" fill="#2C2C34"/>
<path d="M29.6849 32.889H30.4257V38.0742H29.6849V32.889Z" fill="#2C2C34"/>
<path d="M32.6479 35.1113V35.852H27.4627L27.4627 35.1113H32.6479Z" fill="#2C2C34"/>
<path d="M35.6108 32.889H36.3515V38.0742H35.6108V32.889Z" fill="#2C2C34"/>
<path d="M38.5738 35.1113V35.852H33.3886L33.3886 35.1113H38.5738Z" fill="#2C2C34"/>
<path d="M41.5369 32.889H42.2776V38.0742H41.5369V32.889Z" fill="#2C2C34"/>
<path d="M44.4999 35.1113V35.852H39.3147L39.3147 35.1113H44.4999Z" fill="#2C2C34"/>
<path d="M47.4627 32.889H48.2035V38.0742H47.4627V32.889Z" fill="#2C2C34"/>
<path d="M50.4257 35.1113V35.852H45.2405L45.2405 35.1113H50.4257Z" fill="#2C2C34"/>
<path d="M53.3885 32.889H54.1293V38.0742H53.3885V32.889Z" fill="#2C2C34"/>
<path d="M56.3515 35.1113V35.852H51.1663L51.1663 35.1113H56.3515Z" fill="#2C2C34"/>
<path d="M59.3145 32.889H60.0553V38.0742H59.3145V32.889Z" fill="#2C2C34"/>
<path d="M62.2775 35.1112V35.8519H57.0923L57.0923 35.1112H62.2775Z" fill="#2C2C34"/>
<path d="M65.2404 32.889H65.9811V38.0742H65.2404V32.889Z" fill="#2C2C34"/>
<path d="M68.2033 35.1113V35.852H63.0181L63.0181 35.1113H68.2033Z" fill="#2C2C34"/>
<path d="M71.1664 32.889H71.9072V38.0742H71.1664V32.889Z" fill="#2C2C34"/>
<path d="M74.1294 35.1113V35.852H68.9442L68.9442 35.1113H74.1294Z" fill="#2C2C34"/>
<path d="M77.0923 32.889H77.8331V38.0742H77.0923V32.889Z" fill="#2C2C34"/>
<path d="M80.0553 35.1112V35.8519H74.8701L74.8701 35.1112H80.0553Z" fill="#2C2C34"/>
<path d="M83.0181 32.889H83.7588V38.0742H83.0181V32.889Z" fill="#2C2C34"/>
<path d="M85.9811 35.1113V35.852H80.7959L80.7959 35.1113H85.9811Z" fill="#2C2C34"/>
<path d="M88.9442 32.889H89.6849V38.0742H88.9442V32.889Z" fill="#2C2C34"/>
<path d="M91.9072 35.1113V35.852H86.722L86.722 35.1113H91.9072Z" fill="#2C2C34"/>
<path d="M94.8701 32.889H95.6109V38.0742H94.8701V32.889Z" fill="#2C2C34"/>
<path d="M97.8331 35.1113V35.852H92.6479L92.6479 35.1113H97.8331Z" fill="#2C2C34"/>
<path d="M100.796 32.889H101.537V38.0742H100.796V32.889Z" fill="#2C2C34"/>
<path d="M103.759 35.1113V35.852H98.5738L98.5738 35.1113H103.759Z" fill="#2C2C34"/>
<path d="M106.722 32.889H107.463V38.0742H106.722V32.889Z" fill="#2C2C34"/>
<path d="M109.685 35.1113V35.852H104.5L104.5 35.1113H109.685Z" fill="#2C2C34"/>
<path d="M112.648 32.889H113.389V38.0742H112.648V32.889Z" fill="#2C2C34"/>
<path d="M115.611 35.1113V35.852H110.426L110.426 35.1113H115.611Z" fill="#2C2C34"/>
<path d="M118.574 32.889H119.315V38.0742H118.574V32.889Z" fill="#2C2C34"/>
<path d="M121.537 35.1113V35.852H116.352L116.352 35.1113H121.537Z" fill="#2C2C34"/>
<path d="M0.0552609 38.8148H0.796002V43.9999H0.0552609V38.8148Z" fill="#2C2C34"/>
<path d="M3.01822 41.037V41.7777H-2.16696L-2.16696 41.037H3.01822Z" fill="#2C2C34"/>
<path d="M5.98123 38.8148H6.72197V44H5.98123V38.8148Z" fill="#2C2C34"/>
<path d="M8.94419 41.037V41.7778H3.759L3.759 41.037H8.94419Z" fill="#2C2C34"/>
<path d="M11.907 38.8148H12.6477V44H11.907V38.8148Z" fill="#2C2C34"/>
<path d="M14.87 41.037V41.7778H9.68478L9.68478 41.037H14.87Z" fill="#2C2C34"/>
<path d="M17.8332 38.8148H18.5739V44H17.8332V38.8148Z" fill="#2C2C34"/>
<path d="M20.7962 41.037V41.7778H15.611L15.611 41.037H20.7962Z" fill="#2C2C34"/>
<path d="M23.759 38.8148H24.4997V44H23.759V38.8148Z" fill="#2C2C34"/>
<path d="M26.7219 41.037V41.7778H21.5368L21.5368 41.037H26.7219Z" fill="#2C2C34"/>
<path d="M29.6849 38.8148H30.4257V44H29.6849V38.8148Z" fill="#2C2C34"/>
<path d="M32.6479 41.037V41.7778H27.4627L27.4627 41.037H32.6479Z" fill="#2C2C34"/>
<path d="M35.6108 38.8148H36.3515V44H35.6108V38.8148Z" fill="#2C2C34"/>
<path d="M38.5738 41.037V41.7778H33.3886L33.3886 41.037H38.5738Z" fill="#2C2C34"/>
<path d="M41.5369 38.8148H42.2776V44H41.5369V38.8148Z" fill="#2C2C34"/>
<path d="M44.4999 41.037V41.7778H39.3147L39.3147 41.037H44.4999Z" fill="#2C2C34"/>
<path d="M47.4627 38.8148H48.2035V44H47.4627V38.8148Z" fill="#2C2C34"/>
<path d="M50.4257 41.037V41.7778H45.2405L45.2405 41.037H50.4257Z" fill="#2C2C34"/>
<path d="M53.3885 38.8148H54.1293V44H53.3885V38.8148Z" fill="#2C2C34"/>
<path d="M56.3515 41.037V41.7778H51.1663L51.1663 41.037H56.3515Z" fill="#2C2C34"/>
<path d="M59.3145 38.8148H60.0553V43.9999H59.3145V38.8148Z" fill="#2C2C34"/>
<path d="M62.2775 41.037V41.7777H57.0923L57.0923 41.037H62.2775Z" fill="#2C2C34"/>
<path d="M65.2404 38.8148H65.9811V44H65.2404V38.8148Z" fill="#2C2C34"/>
<path d="M68.2033 41.037V41.7778H63.0181L63.0181 41.037H68.2033Z" fill="#2C2C34"/>
<path d="M71.1664 38.8148H71.9072V44H71.1664V38.8148Z" fill="#2C2C34"/>
<path d="M74.1294 41.037V41.7778H68.9442L68.9442 41.037H74.1294Z" fill="#2C2C34"/>
<path d="M77.0923 38.8148H77.8331V43.9999H77.0923V38.8148Z" fill="#2C2C34"/>
<path d="M80.0553 41.037V41.7777H74.8701L74.8701 41.037H80.0553Z" fill="#2C2C34"/>
<path d="M83.0181 38.8148H83.7588V44H83.0181V38.8148Z" fill="#2C2C34"/>
<path d="M85.9811 41.037V41.7778H80.7959L80.7959 41.037H85.9811Z" fill="#2C2C34"/>
<path d="M88.9442 38.8148H89.6849V44H88.9442V38.8148Z" fill="#2C2C34"/>
<path d="M91.9072 41.037V41.7778H86.722L86.722 41.037H91.9072Z" fill="#2C2C34"/>
<path d="M94.8701 38.8148H95.6109V44H94.8701V38.8148Z" fill="#2C2C34"/>
<path d="M97.8331 41.037V41.7778H92.6479L92.6479 41.037H97.8331Z" fill="#2C2C34"/>
<path d="M100.796 38.8148H101.537V44H100.796V38.8148Z" fill="#2C2C34"/>
<path d="M103.759 41.037V41.7778H98.5738L98.5738 41.037H103.759Z" fill="#2C2C34"/>
<path d="M106.722 38.8148H107.463V44H106.722V38.8148Z" fill="#2C2C34"/>
<path d="M109.685 41.037V41.7778H104.5L104.5 41.037H109.685Z" fill="#2C2C34"/>
<path d="M112.648 38.8148H113.389V44H112.648V38.8148Z" fill="#2C2C34"/>
<path d="M115.611 41.037V41.7778H110.426L110.426 41.037H115.611Z" fill="#2C2C34"/>
<path d="M118.574 38.8148H119.315V44H118.574V38.8148Z" fill="#2C2C34"/>
<path d="M121.537 41.037V41.7778H116.352L116.352 41.037H121.537Z" fill="#2C2C34"/>
<path d="M0.0552609 44.7409H0.796002V49.9261H0.0552609V44.7409Z" fill="#2C2C34"/>
<path d="M3.01822 46.9631V47.7039H-2.16696L-2.16696 46.9631H3.01822Z" fill="#2C2C34"/>
<path d="M5.98123 44.7408H6.72197V49.926H5.98123V44.7408Z" fill="#2C2C34"/>
<path d="M8.94419 46.9631V47.7038H3.759L3.759 46.9631H8.94419Z" fill="#2C2C34"/>
<path d="M11.907 44.7408H12.6477V49.926H11.907V44.7408Z" fill="#2C2C34"/>
<path d="M14.87 46.9631V47.7038H9.68478L9.68478 46.9631H14.87Z" fill="#2C2C34"/>
<path d="M17.8332 44.7408H18.5739V49.926H17.8332V44.7408Z" fill="#2C2C34"/>
<path d="M20.7962 46.9631V47.7038H15.611L15.611 46.9631H20.7962Z" fill="#2C2C34"/>
<path d="M23.759 44.7408H24.4997V49.926H23.759V44.7408Z" fill="#2C2C34"/>
<path d="M26.7219 46.9631V47.7038H21.5368L21.5368 46.9631H26.7219Z" fill="#2C2C34"/>
<path d="M29.6849 44.7408H30.4257V49.926H29.6849V44.7408Z" fill="#2C2C34"/>
<path d="M32.6479 46.9631V47.7038H27.4627L27.4627 46.9631H32.6479Z" fill="#2C2C34"/>
<path d="M35.6108 44.7408H36.3515V49.926H35.6108V44.7408Z" fill="#2C2C34"/>
<path d="M38.5738 46.9631V47.7038H33.3886L33.3886 46.9631H38.5738Z" fill="#2C2C34"/>
<path d="M41.5369 44.7408H42.2776V49.926H41.5369V44.7408Z" fill="#2C2C34"/>
<path d="M44.4999 46.9631V47.7038H39.3147L39.3147 46.9631H44.4999Z" fill="#2C2C34"/>
<path d="M47.4627 44.7408H48.2035V49.926H47.4627V44.7408Z" fill="#2C2C34"/>
<path d="M50.4257 46.9631V47.7038H45.2405L45.2405 46.9631H50.4257Z" fill="#2C2C34"/>
<path d="M53.3885 44.7408H54.1293V49.926H53.3885V44.7408Z" fill="#2C2C34"/>
<path d="M56.3515 46.9631V47.7038H51.1663L51.1663 46.9631H56.3515Z" fill="#2C2C34"/>
<path d="M59.3145 44.7409H60.0553V49.9261H59.3145V44.7409Z" fill="#2C2C34"/>
<path d="M62.2775 46.9631V47.7039H57.0923L57.0923 46.9631H62.2775Z" fill="#2C2C34"/>
<path d="M65.2404 44.7408H65.9811V49.926H65.2404V44.7408Z" fill="#2C2C34"/>
<path d="M68.2033 46.9631V47.7038H63.0181L63.0181 46.9631H68.2033Z" fill="#2C2C34"/>
<path d="M71.1664 44.7408H71.9072V49.926H71.1664V44.7408Z" fill="#2C2C34"/>
<path d="M74.1294 46.9631V47.7038H68.9442L68.9442 46.9631H74.1294Z" fill="#2C2C34"/>
<path d="M77.0923 44.7409H77.8331V49.9261H77.0923V44.7409Z" fill="#2C2C34"/>
<path d="M80.0553 46.9631V47.7039H74.8701L74.8701 46.9631H80.0553Z" fill="#2C2C34"/>
<path d="M83.0181 44.7408H83.7588V49.926H83.0181V44.7408Z" fill="#2C2C34"/>
<path d="M85.9811 46.9631V47.7038H80.7959L80.7959 46.9631H85.9811Z" fill="#2C2C34"/>
<path d="M88.9442 44.7408H89.6849V49.926H88.9442V44.7408Z" fill="#2C2C34"/>
<path d="M91.9072 46.9631V47.7038H86.722L86.722 46.9631H91.9072Z" fill="#2C2C34"/>
<path d="M94.8701 44.7408H95.6109V49.926H94.8701V44.7408Z" fill="#2C2C34"/>
<path d="M97.8331 46.9631V47.7038H92.6479L92.6479 46.9631H97.8331Z" fill="#2C2C34"/>
<path d="M100.796 44.7408H101.537V49.926H100.796V44.7408Z" fill="#2C2C34"/>
<path d="M103.759 46.9631V47.7038H98.5738L98.5738 46.9631H103.759Z" fill="#2C2C34"/>
<path d="M106.722 44.7408H107.463V49.926H106.722V44.7408Z" fill="#2C2C34"/>
<path d="M109.685 46.9631V47.7038H104.5L104.5 46.9631H109.685Z" fill="#2C2C34"/>
<path d="M112.648 44.7408H113.389V49.926H112.648V44.7408Z" fill="#2C2C34"/>
<path d="M115.611 46.9631V47.7038H110.426L110.426 46.9631H115.611Z" fill="#2C2C34"/>
<path d="M118.574 44.7408H119.315V49.926H118.574V44.7408Z" fill="#2C2C34"/>
<path d="M121.537 46.9631V47.7038H116.352L116.352 46.9631H121.537Z" fill="#2C2C34"/>
<path d="M0.0552609 50.6667H0.796002V55.8519H0.0552609V50.6667Z" fill="#2C2C34"/>
<path d="M3.01822 52.8889V53.6297H-2.16696L-2.16696 52.8889H3.01822Z" fill="#2C2C34"/>
<path d="M5.98123 50.6666H6.72197V55.8518H5.98123V50.6666Z" fill="#2C2C34"/>
<path d="M8.94419 52.8888V53.6296H3.759L3.759 52.8888H8.94419Z" fill="#2C2C34"/>
<path d="M11.907 50.6666H12.6477V55.8518H11.907V50.6666Z" fill="#2C2C34"/>
<path d="M14.87 52.8888V53.6296H9.68478L9.68478 52.8888H14.87Z" fill="#2C2C34"/>
<path d="M17.8332 50.6666H18.5739V55.8518H17.8332V50.6666Z" fill="#2C2C34"/>
<path d="M20.7962 52.8888V53.6296H15.611L15.611 52.8888H20.7962Z" fill="#2C2C34"/>
<path d="M23.759 50.6666H24.4997V55.8518H23.759V50.6666Z" fill="#2C2C34"/>
<path d="M26.7219 52.8888V53.6296H21.5368L21.5368 52.8888H26.7219Z" fill="#2C2C34"/>
<path d="M29.6849 50.6666H30.4257V55.8518H29.6849V50.6666Z" fill="#2C2C34"/>
<path d="M32.6479 52.8888V53.6296H27.4627L27.4627 52.8888H32.6479Z" fill="#2C2C34"/>
<path d="M35.6108 50.6666H36.3515V55.8518H35.6108V50.6666Z" fill="#2C2C34"/>
<path d="M38.5738 52.8888V53.6296H33.3886L33.3886 52.8888H38.5738Z" fill="#2C2C34"/>
<path d="M41.5369 50.6666H42.2776V55.8518H41.5369V50.6666Z" fill="#2C2C34"/>
<path d="M44.4999 52.8888V53.6296H39.3147L39.3147 52.8888H44.4999Z" fill="#2C2C34"/>
<path d="M47.4627 50.6666H48.2035V55.8518H47.4627V50.6666Z" fill="#2C2C34"/>
<path d="M50.4257 52.8888V53.6296H45.2405L45.2405 52.8888H50.4257Z" fill="#2C2C34"/>
<path d="M53.3885 50.6666H54.1293V55.8518H53.3885V50.6666Z" fill="#2C2C34"/>
<path d="M56.3515 52.8888V53.6296H51.1663L51.1663 52.8888H56.3515Z" fill="#2C2C34"/>
<path d="M59.3145 50.6667H60.0553V55.8519H59.3145V50.6667Z" fill="#2C2C34"/>
<path d="M62.2775 52.8889V53.6297H57.0923L57.0923 52.8889H62.2775Z" fill="#2C2C34"/>
<path d="M65.2404 50.6666H65.9811V55.8518H65.2404V50.6666Z" fill="#2C2C34"/>
<path d="M68.2033 52.8888V53.6296H63.0181L63.0181 52.8888H68.2033Z" fill="#2C2C34"/>
<path d="M71.1664 50.6666H71.9072V55.8518H71.1664V50.6666Z" fill="#2C2C34"/>
<path d="M74.1294 52.8888V53.6296H68.9442L68.9442 52.8888H74.1294Z" fill="#2C2C34"/>
<path d="M77.0923 50.6667H77.8331V55.8519H77.0923V50.6667Z" fill="#2C2C34"/>
<path d="M80.0553 52.8889V53.6297H74.8701L74.8701 52.8889H80.0553Z" fill="#2C2C34"/>
<path d="M83.0181 50.6666H83.7588V55.8518H83.0181V50.6666Z" fill="#2C2C34"/>
<path d="M85.9811 52.8888V53.6296H80.7959L80.7959 52.8888H85.9811Z" fill="#2C2C34"/>
<path d="M88.9442 50.6666H89.6849V55.8518H88.9442V50.6666Z" fill="#2C2C34"/>
<path d="M91.9072 52.8888V53.6296H86.722L86.722 52.8888H91.9072Z" fill="#2C2C34"/>
<path d="M94.8701 50.6666H95.6109V55.8518H94.8701V50.6666Z" fill="#2C2C34"/>
<path d="M97.8331 52.8888V53.6296H92.6479L92.6479 52.8888H97.8331Z" fill="#2C2C34"/>
<path d="M100.796 50.6666H101.537V55.8518H100.796V50.6666Z" fill="#2C2C34"/>
<path d="M103.759 52.8888V53.6296H98.5738L98.5738 52.8888H103.759Z" fill="#2C2C34"/>
<path d="M106.722 50.6666H107.463V55.8518H106.722V50.6666Z" fill="#2C2C34"/>
<path d="M109.685 52.8888V53.6296H104.5L104.5 52.8888H109.685Z" fill="#2C2C34"/>
<path d="M112.648 50.6666H113.389V55.8518H112.648V50.6666Z" fill="#2C2C34"/>
<path d="M115.611 52.8888V53.6296H110.426L110.426 52.8888H115.611Z" fill="#2C2C34"/>
<path d="M118.574 50.6666H119.315V55.8518H118.574V50.6666Z" fill="#2C2C34"/>
<path d="M121.537 52.8888V53.6296H116.352L116.352 52.8888H121.537Z" fill="#2C2C34"/>
<path d="M0.0552609 56.5925H0.796002V61.7777H0.0552609V56.5925Z" fill="#2C2C34"/>
<path d="M3.01822 58.8147V59.5554H-2.16696L-2.16696 58.8147H3.01822Z" fill="#2C2C34"/>
<path d="M5.98123 56.5924H6.72197V61.7776H5.98123V56.5924Z" fill="#2C2C34"/>
<path d="M8.94419 58.8146V59.5554H3.759L3.759 58.8146H8.94419Z" fill="#2C2C34"/>
<path d="M11.907 56.5924H12.6477V61.7776H11.907V56.5924Z" fill="#2C2C34"/>
<path d="M14.87 58.8146V59.5554H9.68478L9.68478 58.8146H14.87Z" fill="#2C2C34"/>
<path d="M17.8332 56.5924H18.5739V61.7776H17.8332V56.5924Z" fill="#2C2C34"/>
<path d="M20.7962 58.8146V59.5554H15.611L15.611 58.8146H20.7962Z" fill="#2C2C34"/>
<path d="M23.759 56.5924H24.4997V61.7776H23.759V56.5924Z" fill="#2C2C34"/>
<path d="M26.7219 58.8146V59.5554H21.5368L21.5368 58.8146H26.7219Z" fill="#2C2C34"/>
<path d="M29.6849 56.5924H30.4257V61.7776H29.6849V56.5924Z" fill="#2C2C34"/>
<path d="M32.6479 58.8146V59.5554H27.4627L27.4627 58.8146H32.6479Z" fill="#2C2C34"/>
<path d="M35.6108 56.5924H36.3515V61.7776H35.6108V56.5924Z" fill="#2C2C34"/>
<path d="M38.5738 58.8146V59.5554H33.3886L33.3886 58.8146H38.5738Z" fill="#2C2C34"/>
<path d="M41.5369 56.5924H42.2776V61.7776H41.5369V56.5924Z" fill="#2C2C34"/>
<path d="M44.4999 58.8146V59.5554H39.3147L39.3147 58.8146H44.4999Z" fill="#2C2C34"/>
<path d="M47.4627 56.5924H48.2035V61.7776H47.4627V56.5924Z" fill="#2C2C34"/>
<path d="M50.4257 58.8146V59.5554H45.2405L45.2405 58.8146H50.4257Z" fill="#2C2C34"/>
<path d="M53.3885 56.5924H54.1293V61.7776H53.3885V56.5924Z" fill="#2C2C34"/>
<path d="M56.3515 58.8146V59.5554H51.1663L51.1663 58.8146H56.3515Z" fill="#2C2C34"/>
<path d="M59.3145 56.5925H60.0553V61.7777H59.3145V56.5925Z" fill="#2C2C34"/>
<path d="M62.2775 58.8147V59.5554H57.0923L57.0923 58.8147H62.2775Z" fill="#2C2C34"/>
<path d="M65.2404 56.5924H65.9811V61.7776H65.2404V56.5924Z" fill="#2C2C34"/>
<path d="M68.2033 58.8146V59.5554H63.0181L63.0181 58.8146H68.2033Z" fill="#2C2C34"/>
<path d="M71.1664 56.5924H71.9072V61.7776H71.1664V56.5924Z" fill="#2C2C34"/>
<path d="M74.1294 58.8146V59.5554H68.9442L68.9442 58.8146H74.1294Z" fill="#2C2C34"/>
<path d="M77.0923 56.5925H77.8331V61.7777H77.0923V56.5925Z" fill="#2C2C34"/>
<path d="M80.0553 58.8147V59.5554H74.8701L74.8701 58.8147H80.0553Z" fill="#2C2C34"/>
<path d="M83.0181 56.5924H83.7588V61.7776H83.0181V56.5924Z" fill="#2C2C34"/>
<path d="M85.9811 58.8146V59.5554H80.7959L80.7959 58.8146H85.9811Z" fill="#2C2C34"/>
<path d="M88.9442 56.5924H89.6849V61.7776H88.9442V56.5924Z" fill="#2C2C34"/>
<path d="M91.9072 58.8146V59.5554H86.722L86.722 58.8146H91.9072Z" fill="#2C2C34"/>
<path d="M94.8701 56.5924H95.6109V61.7776H94.8701V56.5924Z" fill="#2C2C34"/>
<path d="M97.8331 58.8146V59.5554H92.6479L92.6479 58.8146H97.8331Z" fill="#2C2C34"/>
<path d="M100.796 56.5924H101.537V61.7776H100.796V56.5924Z" fill="#2C2C34"/>
<path d="M103.759 58.8146V59.5554H98.5738L98.5738 58.8146H103.759Z" fill="#2C2C34"/>
<path d="M106.722 56.5924H107.463V61.7776H106.722V56.5924Z" fill="#2C2C34"/>
<path d="M109.685 58.8146V59.5554H104.5L104.5 58.8146H109.685Z" fill="#2C2C34"/>
<path d="M112.648 56.5924H113.389V61.7776H112.648V56.5924Z" fill="#2C2C34"/>
<path d="M115.611 58.8146V59.5554H110.426L110.426 58.8146H115.611Z" fill="#2C2C34"/>
<path d="M118.574 56.5924H119.315V61.7776H118.574V56.5924Z" fill="#2C2C34"/>
<path d="M121.537 58.8146V59.5554H116.352L116.352 58.8146H121.537Z" fill="#2C2C34"/>
<path d="M0.0552609 62.5186H0.796002V67.7037H0.0552609V62.5186Z" fill="#2C2C34"/>
<path d="M3.01822 64.7408V65.4815H-2.16696L-2.16696 64.7408H3.01822Z" fill="#2C2C34"/>
<path d="M5.98123 62.5186H6.72197V67.7037H5.98123V62.5186Z" fill="#2C2C34"/>
<path d="M8.94419 64.7408V65.4815H3.759L3.759 64.7408H8.94419Z" fill="#2C2C34"/>
<path d="M11.907 62.5186H12.6477V67.7037H11.907V62.5186Z" fill="#2C2C34"/>
<path d="M14.87 64.7408V65.4815H9.68478L9.68478 64.7408H14.87Z" fill="#2C2C34"/>
<path d="M17.8332 62.5186H18.5739V67.7037H17.8332V62.5186Z" fill="#2C2C34"/>
<path d="M20.7962 64.7408V65.4815H15.611L15.611 64.7408H20.7962Z" fill="#2C2C34"/>
<path d="M23.759 62.5186H24.4997V67.7037H23.759V62.5186Z" fill="#2C2C34"/>
<path d="M26.7219 64.7408V65.4815H21.5368L21.5368 64.7408H26.7219Z" fill="#2C2C34"/>
<path d="M29.6849 62.5186H30.4257V67.7037H29.6849V62.5186Z" fill="#2C2C34"/>
<path d="M32.6479 64.7408V65.4815H27.4627L27.4627 64.7408H32.6479Z" fill="#2C2C34"/>
<path d="M35.6108 62.5186H36.3515V67.7037H35.6108V62.5186Z" fill="#2C2C34"/>
<path d="M38.5738 64.7408V65.4815H33.3886L33.3886 64.7408H38.5738Z" fill="#2C2C34"/>
<path d="M41.5369 62.5186H42.2776V67.7037H41.5369V62.5186Z" fill="#2C2C34"/>
<path d="M44.4999 64.7408V65.4815H39.3147L39.3147 64.7408H44.4999Z" fill="#2C2C34"/>
<path d="M47.4627 62.5186H48.2035V67.7037H47.4627V62.5186Z" fill="#2C2C34"/>
<path d="M50.4257 64.7408V65.4815H45.2405L45.2405 64.7408H50.4257Z" fill="#2C2C34"/>
<path d="M53.3885 62.5186H54.1293V67.7037H53.3885V62.5186Z" fill="#2C2C34"/>
<path d="M56.3515 64.7408V65.4815H51.1663L51.1663 64.7408H56.3515Z" fill="#2C2C34"/>
<path d="M59.3145 62.5186H60.0553V67.7037H59.3145V62.5186Z" fill="#2C2C34"/>
<path d="M62.2775 64.7408V65.4815H57.0923L57.0923 64.7408H62.2775Z" fill="#2C2C34"/>
<path d="M65.2404 62.5186H65.9811V67.7037H65.2404V62.5186Z" fill="#2C2C34"/>
<path d="M68.2033 64.7408V65.4815H63.0181L63.0181 64.7408H68.2033Z" fill="#2C2C34"/>
<path d="M71.1664 62.5186H71.9072V67.7037H71.1664V62.5186Z" fill="#2C2C34"/>
<path d="M74.1294 64.7408V65.4815H68.9442L68.9442 64.7408H74.1294Z" fill="#2C2C34"/>
<path d="M77.0923 62.5186H77.8331V67.7037H77.0923V62.5186Z" fill="#2C2C34"/>
<path d="M80.0553 64.7408V65.4815H74.8701L74.8701 64.7408H80.0553Z" fill="#2C2C34"/>
<path d="M83.0181 62.5186H83.7588V67.7037H83.0181V62.5186Z" fill="#2C2C34"/>
<path d="M85.9811 64.7408V65.4815H80.7959L80.7959 64.7408H85.9811Z" fill="#2C2C34"/>
<path d="M88.9442 62.5186H89.6849V67.7037H88.9442V62.5186Z" fill="#2C2C34"/>
<path d="M91.9072 64.7408V65.4815H86.722L86.722 64.7408H91.9072Z" fill="#2C2C34"/>
<path d="M94.8701 62.5186H95.6109V67.7037H94.8701V62.5186Z" fill="#2C2C34"/>
<path d="M97.8331 64.7408V65.4815H92.6479L92.6479 64.7408H97.8331Z" fill="#2C2C34"/>
<path d="M100.796 62.5186H101.537V67.7037H100.796V62.5186Z" fill="#2C2C34"/>
<path d="M103.759 64.7408V65.4815H98.5738L98.5738 64.7408H103.759Z" fill="#2C2C34"/>
<path d="M106.722 62.5186H107.463V67.7037H106.722V62.5186Z" fill="#2C2C34"/>
<path d="M109.685 64.7408V65.4815H104.5L104.5 64.7408H109.685Z" fill="#2C2C34"/>
<path d="M112.648 62.5186H113.389V67.7037H112.648V62.5186Z" fill="#2C2C34"/>
<path d="M115.611 64.7408V65.4815H110.426L110.426 64.7408H115.611Z" fill="#2C2C34"/>
<path d="M118.574 62.5186H119.315V67.7037H118.574V62.5186Z" fill="#2C2C34"/>
<path d="M121.537 64.7408V65.4815H116.352L116.352 64.7408H121.537Z" fill="#2C2C34"/>
<path d="M0.0552609 68.4443H0.796002V73.6295H0.0552609V68.4443Z" fill="#2C2C34"/>
<path d="M3.01822 70.6666V71.4073H-2.16696L-2.16696 70.6666H3.01822Z" fill="#2C2C34"/>
<path d="M5.98123 68.4443H6.72197V73.6295H5.98123V68.4443Z" fill="#2C2C34"/>
<path d="M8.94419 70.6666V71.4073H3.759L3.759 70.6666H8.94419Z" fill="#2C2C34"/>
<path d="M11.907 68.4443H12.6477V73.6295H11.907V68.4443Z" fill="#2C2C34"/>
<path d="M14.87 70.6666V71.4073H9.68478L9.68478 70.6666H14.87Z" fill="#2C2C34"/>
<path d="M17.8332 68.4443H18.5739V73.6295H17.8332V68.4443Z" fill="#2C2C34"/>
<path d="M20.7962 70.6666V71.4073H15.611L15.611 70.6666H20.7962Z" fill="#2C2C34"/>
<path d="M23.759 68.4443H24.4997V73.6295H23.759V68.4443Z" fill="#2C2C34"/>
<path d="M26.7219 70.6666V71.4073H21.5368L21.5368 70.6666H26.7219Z" fill="#2C2C34"/>
<path d="M29.6849 68.4443H30.4257V73.6295H29.6849V68.4443Z" fill="#2C2C34"/>
<path d="M32.6479 70.6666V71.4073H27.4627L27.4627 70.6666H32.6479Z" fill="#2C2C34"/>
<path d="M35.6108 68.4443H36.3515V73.6295H35.6108V68.4443Z" fill="#2C2C34"/>
<path d="M38.5738 70.6666V71.4073H33.3886L33.3886 70.6666H38.5738Z" fill="#2C2C34"/>
<path d="M41.5369 68.4443H42.2776V73.6295H41.5369V68.4443Z" fill="#2C2C34"/>
<path d="M44.4999 70.6666V71.4073H39.3147L39.3147 70.6666H44.4999Z" fill="#2C2C34"/>
<path d="M47.4627 68.4443H48.2035V73.6295H47.4627V68.4443Z" fill="#2C2C34"/>
<path d="M50.4257 70.6666V71.4073H45.2405L45.2405 70.6666H50.4257Z" fill="#2C2C34"/>
<path d="M53.3885 68.4443H54.1293V73.6295H53.3885V68.4443Z" fill="#2C2C34"/>
<path d="M56.3515 70.6666V71.4073H51.1663L51.1663 70.6666H56.3515Z" fill="#2C2C34"/>
<path d="M59.3145 68.4443H60.0553V73.6295H59.3145V68.4443Z" fill="#2C2C34"/>
<path d="M62.2775 70.6666V71.4073H57.0923L57.0923 70.6666H62.2775Z" fill="#2C2C34"/>
<path d="M65.2404 68.4443H65.9811V73.6295H65.2404V68.4443Z" fill="#2C2C34"/>
<path d="M68.2033 70.6666V71.4073H63.0181L63.0181 70.6666H68.2033Z" fill="#2C2C34"/>
<path d="M71.1664 68.4443H71.9072V73.6295H71.1664V68.4443Z" fill="#2C2C34"/>
<path d="M74.1294 70.6666V71.4073H68.9442L68.9442 70.6666H74.1294Z" fill="#2C2C34"/>
<path d="M77.0923 68.4443H77.8331V73.6295H77.0923V68.4443Z" fill="#2C2C34"/>
<path d="M80.0553 70.6666V71.4073H74.8701L74.8701 70.6666H80.0553Z" fill="#2C2C34"/>
<path d="M83.0181 68.4443H83.7588V73.6295H83.0181V68.4443Z" fill="#2C2C34"/>
<path d="M85.9811 70.6666V71.4073H80.7959L80.7959 70.6666H85.9811Z" fill="#2C2C34"/>
<path d="M88.9442 68.4443H89.6849V73.6295H88.9442V68.4443Z" fill="#2C2C34"/>
<path d="M91.9072 70.6666V71.4073H86.722L86.722 70.6666H91.9072Z" fill="#2C2C34"/>
<path d="M94.8701 68.4443H95.6109V73.6295H94.8701V68.4443Z" fill="#2C2C34"/>
<path d="M97.8331 70.6666V71.4073H92.6479L92.6479 70.6666H97.8331Z" fill="#2C2C34"/>
<path d="M100.796 68.4443H101.537V73.6295H100.796V68.4443Z" fill="#2C2C34"/>
<path d="M103.759 70.6666V71.4073H98.5738L98.5738 70.6666H103.759Z" fill="#2C2C34"/>
<path d="M106.722 68.4443H107.463V73.6295H106.722V68.4443Z" fill="#2C2C34"/>
<path d="M109.685 70.6666V71.4073H104.5L104.5 70.6666H109.685Z" fill="#2C2C34"/>
<path d="M112.648 68.4443H113.389V73.6295H112.648V68.4443Z" fill="#2C2C34"/>
<path d="M115.611 70.6666V71.4073H110.426L110.426 70.6666H115.611Z" fill="#2C2C34"/>
<path d="M118.574 68.4443H119.315V73.6295H118.574V68.4443Z" fill="#2C2C34"/>
<path d="M121.537 70.6666V71.4073H116.352L116.352 70.6666H121.537Z" fill="#2C2C34"/>
<path d="M0.0552609 74.3704H0.796002V79.5556H0.0552609V74.3704Z" fill="#2C2C34"/>
<path d="M3.01822 76.5926V77.3334H-2.16696L-2.16696 76.5926H3.01822Z" fill="#2C2C34"/>
<path d="M5.98123 74.3705H6.72197V79.5557H5.98123V74.3705Z" fill="#2C2C34"/>
<path d="M8.94419 76.5927V77.3334H3.759L3.759 76.5927H8.94419Z" fill="#2C2C34"/>
<path d="M11.907 74.3705H12.6477V79.5557H11.907V74.3705Z" fill="#2C2C34"/>
<path d="M14.87 76.5927V77.3334H9.68478L9.68478 76.5927H14.87Z" fill="#2C2C34"/>
<path d="M17.8332 74.3705H18.5739V79.5557H17.8332V74.3705Z" fill="#2C2C34"/>
<path d="M20.7962 76.5927V77.3334H15.611L15.611 76.5927H20.7962Z" fill="#2C2C34"/>
<path d="M23.759 74.3705H24.4997V79.5557H23.759V74.3705Z" fill="#2C2C34"/>
<path d="M26.7219 76.5927V77.3334H21.5368L21.5368 76.5927H26.7219Z" fill="#2C2C34"/>
<path d="M29.6849 74.3705H30.4257V79.5557H29.6849V74.3705Z" fill="#2C2C34"/>
<path d="M32.6479 76.5927V77.3334H27.4627L27.4627 76.5927H32.6479Z" fill="#2C2C34"/>
<path d="M35.6108 74.3705H36.3515V79.5557H35.6108V74.3705Z" fill="#2C2C34"/>
<path d="M38.5738 76.5927V77.3334H33.3886L33.3886 76.5927H38.5738Z" fill="#2C2C34"/>
<path d="M41.5369 74.3705H42.2776V79.5557H41.5369V74.3705Z" fill="#2C2C34"/>
<path d="M44.4999 76.5927V77.3334H39.3147L39.3147 76.5927H44.4999Z" fill="#2C2C34"/>
<path d="M47.4627 74.3705H48.2035V79.5557H47.4627V74.3705Z" fill="#2C2C34"/>
<path d="M50.4257 76.5927V77.3334H45.2405L45.2405 76.5927H50.4257Z" fill="#2C2C34"/>
<path d="M53.3885 74.3705H54.1293V79.5557H53.3885V74.3705Z" fill="#2C2C34"/>
<path d="M56.3515 76.5927V77.3334H51.1663L51.1663 76.5927H56.3515Z" fill="#2C2C34"/>
<path d="M59.3145 74.3704H60.0553V79.5556H59.3145V74.3704Z" fill="#2C2C34"/>
<path d="M62.2775 76.5926V77.3334H57.0923L57.0923 76.5926H62.2775Z" fill="#2C2C34"/>
<path d="M65.2404 74.3705H65.9811V79.5557H65.2404V74.3705Z" fill="#2C2C34"/>
<path d="M68.2033 76.5927V77.3334H63.0181L63.0181 76.5927H68.2033Z" fill="#2C2C34"/>
<path d="M71.1664 74.3705H71.9072V79.5557H71.1664V74.3705Z" fill="#2C2C34"/>
<path d="M74.1294 76.5927V77.3334H68.9442L68.9442 76.5927H74.1294Z" fill="#2C2C34"/>
<path d="M77.0923 74.3704H77.8331V79.5556H77.0923V74.3704Z" fill="#2C2C34"/>
<path d="M80.0553 76.5926V77.3334H74.8701L74.8701 76.5926H80.0553Z" fill="#2C2C34"/>
<path d="M83.0181 74.3705H83.7588V79.5557H83.0181V74.3705Z" fill="#2C2C34"/>
<path d="M85.9811 76.5927V77.3334H80.7959L80.7959 76.5927H85.9811Z" fill="#2C2C34"/>
<path d="M88.9442 74.3705H89.6849V79.5557H88.9442V74.3705Z" fill="#2C2C34"/>
<path d="M91.9072 76.5927V77.3334H86.722L86.722 76.5927H91.9072Z" fill="#2C2C34"/>
<path d="M94.8701 74.3705H95.6109V79.5557H94.8701V74.3705Z" fill="#2C2C34"/>
<path d="M97.8331 76.5927V77.3334H92.6479L92.6479 76.5927H97.8331Z" fill="#2C2C34"/>
<path d="M100.796 74.3705H101.537V79.5557H100.796V74.3705Z" fill="#2C2C34"/>
<path d="M103.759 76.5927V77.3334H98.5738L98.5738 76.5927H103.759Z" fill="#2C2C34"/>
<path d="M106.722 74.3705H107.463V79.5557H106.722V74.3705Z" fill="#2C2C34"/>
<path d="M109.685 76.5927V77.3334H104.5L104.5 76.5927H109.685Z" fill="#2C2C34"/>
<path d="M112.648 74.3705H113.389V79.5557H112.648V74.3705Z" fill="#2C2C34"/>
<path d="M115.611 76.5927V77.3334H110.426L110.426 76.5927H115.611Z" fill="#2C2C34"/>
<path d="M118.574 74.3705H119.315V79.5557H118.574V74.3705Z" fill="#2C2C34"/>
<path d="M121.537 76.5927V77.3334H116.352L116.352 76.5927H121.537Z" fill="#2C2C34"/>
<path d="M0.0552609 80.2962H0.796002V85.4814H0.0552609V80.2962Z" fill="#2C2C34"/>
<path d="M3.01822 82.5184V83.2592H-2.16696L-2.16696 82.5184H3.01822Z" fill="#2C2C34"/>
<path d="M5.98123 80.2963H6.72197V85.4815H5.98123V80.2963Z" fill="#2C2C34"/>
<path d="M8.94419 82.5185V83.2592H3.759L3.759 82.5185H8.94419Z" fill="#2C2C34"/>
<path d="M11.907 80.2963H12.6477V85.4815H11.907V80.2963Z" fill="#2C2C34"/>
<path d="M14.87 82.5185V83.2592H9.68478L9.68478 82.5185H14.87Z" fill="#2C2C34"/>
<path d="M17.8332 80.2963H18.5739V85.4815H17.8332V80.2963Z" fill="#2C2C34"/>
<path d="M20.7962 82.5185V83.2592H15.611L15.611 82.5185H20.7962Z" fill="#2C2C34"/>
<path d="M23.759 80.2963H24.4997V85.4815H23.759V80.2963Z" fill="#2C2C34"/>
<path d="M26.7219 82.5185V83.2592H21.5368L21.5368 82.5185H26.7219Z" fill="#2C2C34"/>
<path d="M29.6849 80.2963H30.4257V85.4815H29.6849V80.2963Z" fill="#2C2C34"/>
<path d="M32.6479 82.5185V83.2592H27.4627L27.4627 82.5185H32.6479Z" fill="#2C2C34"/>
<path d="M35.6108 80.2963H36.3515V85.4815H35.6108V80.2963Z" fill="#2C2C34"/>
<path d="M38.5738 82.5185V83.2592H33.3886L33.3886 82.5185H38.5738Z" fill="#2C2C34"/>
<path d="M41.5369 80.2963H42.2776V85.4815H41.5369V80.2963Z" fill="#2C2C34"/>
<path d="M44.4999 82.5185V83.2592H39.3147L39.3147 82.5185H44.4999Z" fill="#2C2C34"/>
<path d="M47.4627 80.2963H48.2035V85.4815H47.4627V80.2963Z" fill="#2C2C34"/>
<path d="M50.4257 82.5185V83.2592H45.2405L45.2405 82.5185H50.4257Z" fill="#2C2C34"/>
<path d="M53.3885 80.2963H54.1293V85.4815H53.3885V80.2963Z" fill="#2C2C34"/>
<path d="M56.3515 82.5185V83.2592H51.1663L51.1663 82.5185H56.3515Z" fill="#2C2C34"/>
<path d="M59.3145 80.2962H60.0553V85.4814H59.3145V80.2962Z" fill="#2C2C34"/>
<path d="M62.2775 82.5184V83.2592H57.0923L57.0923 82.5184H62.2775Z" fill="#2C2C34"/>
<path d="M65.2404 80.2963H65.9811V85.4815H65.2404V80.2963Z" fill="#2C2C34"/>
<path d="M68.2033 82.5185V83.2592H63.0181L63.0181 82.5185H68.2033Z" fill="#2C2C34"/>
<path d="M71.1664 80.2963H71.9072V85.4815H71.1664V80.2963Z" fill="#2C2C34"/>
<path d="M74.1294 82.5185V83.2592H68.9442L68.9442 82.5185H74.1294Z" fill="#2C2C34"/>
<path d="M77.0923 80.2962H77.8331V85.4814H77.0923V80.2962Z" fill="#2C2C34"/>
<path d="M80.0553 82.5184V83.2592H74.8701L74.8701 82.5184H80.0553Z" fill="#2C2C34"/>
<path d="M83.0181 80.2963H83.7588V85.4815H83.0181V80.2963Z" fill="#2C2C34"/>
<path d="M85.9811 82.5185V83.2592H80.7959L80.7959 82.5185H85.9811Z" fill="#2C2C34"/>
<path d="M88.9442 80.2963H89.6849V85.4815H88.9442V80.2963Z" fill="#2C2C34"/>
<path d="M91.9072 82.5185V83.2592H86.722L86.722 82.5185H91.9072Z" fill="#2C2C34"/>
<path d="M94.8701 80.2963H95.6109V85.4815H94.8701V80.2963Z" fill="#2C2C34"/>
<path d="M97.8331 82.5185V83.2592H92.6479L92.6479 82.5185H97.8331Z" fill="#2C2C34"/>
<path d="M100.796 80.2963H101.537V85.4815H100.796V80.2963Z" fill="#2C2C34"/>
<path d="M103.759 82.5185V83.2592H98.5738L98.5738 82.5185H103.759Z" fill="#2C2C34"/>
<path d="M106.722 80.2963H107.463V85.4815H106.722V80.2963Z" fill="#2C2C34"/>
<path d="M109.685 82.5185V83.2592H104.5L104.5 82.5185H109.685Z" fill="#2C2C34"/>
<path d="M112.648 80.2963H113.389V85.4815H112.648V80.2963Z" fill="#2C2C34"/>
<path d="M115.611 82.5185V83.2592H110.426L110.426 82.5185H115.611Z" fill="#2C2C34"/>
<path d="M118.574 80.2963H119.315V85.4815H118.574V80.2963Z" fill="#2C2C34"/>
<path d="M121.537 82.5185V83.2592H116.352L116.352 82.5185H121.537Z" fill="#2C2C34"/>
<path d="M0.0552609 86.2224H0.796002V91.4075H0.0552609V86.2224Z" fill="#2C2C34"/>
<path d="M3.01822 88.4446V89.1853H-2.16696L-2.16696 88.4446H3.01822Z" fill="#2C2C34"/>
<path d="M5.98123 86.2223H6.72197V91.4075H5.98123V86.2223Z" fill="#2C2C34"/>
<path d="M8.94419 88.4445V89.1853H3.759L3.759 88.4445H8.94419Z" fill="#2C2C34"/>
<path d="M11.907 86.2223H12.6477V91.4075H11.907V86.2223Z" fill="#2C2C34"/>
<path d="M14.87 88.4445V89.1853H9.68478L9.68478 88.4445H14.87Z" fill="#2C2C34"/>
<path d="M17.8332 86.2223H18.5739V91.4075H17.8332V86.2223Z" fill="#2C2C34"/>
<path d="M20.7962 88.4445V89.1853H15.611L15.611 88.4445H20.7962Z" fill="#2C2C34"/>
<path d="M23.759 86.2223H24.4997V91.4075H23.759V86.2223Z" fill="#2C2C34"/>
<path d="M26.7219 88.4445V89.1853H21.5368L21.5368 88.4445H26.7219Z" fill="#2C2C34"/>
<path d="M29.6849 86.2223H30.4257V91.4075H29.6849V86.2223Z" fill="#2C2C34"/>
<path d="M32.6479 88.4445V89.1853H27.4627L27.4627 88.4445H32.6479Z" fill="#2C2C34"/>
<path d="M35.6108 86.2223H36.3515V91.4075H35.6108V86.2223Z" fill="#2C2C34"/>
<path d="M38.5738 88.4445V89.1853H33.3886L33.3886 88.4445H38.5738Z" fill="#2C2C34"/>
<path d="M41.5369 86.2223H42.2776V91.4075H41.5369V86.2223Z" fill="#2C2C34"/>
<path d="M44.4999 88.4445V89.1853H39.3147L39.3147 88.4445H44.4999Z" fill="#2C2C34"/>
<path d="M47.4627 86.2223H48.2035V91.4075H47.4627V86.2223Z" fill="#2C2C34"/>
<path d="M50.4257 88.4445V89.1853H45.2405L45.2405 88.4445H50.4257Z" fill="#2C2C34"/>
<path d="M53.3885 86.2223H54.1293V91.4075H53.3885V86.2223Z" fill="#2C2C34"/>
<path d="M56.3515 88.4445V89.1853H51.1663L51.1663 88.4445H56.3515Z" fill="#2C2C34"/>
<path d="M59.3145 86.2224H60.0553V91.4075H59.3145V86.2224Z" fill="#2C2C34"/>
<path d="M62.2775 88.4446V89.1853H57.0923L57.0923 88.4446H62.2775Z" fill="#2C2C34"/>
<path d="M65.2404 86.2223H65.9811V91.4075H65.2404V86.2223Z" fill="#2C2C34"/>
<path d="M68.2033 88.4445V89.1853H63.0181L63.0181 88.4445H68.2033Z" fill="#2C2C34"/>
<path d="M71.1664 86.2223H71.9072V91.4075H71.1664V86.2223Z" fill="#2C2C34"/>
<path d="M74.1294 88.4445V89.1853H68.9442L68.9442 88.4445H74.1294Z" fill="#2C2C34"/>
<path d="M77.0923 86.2224H77.8331V91.4075H77.0923V86.2224Z" fill="#2C2C34"/>
<path d="M80.0553 88.4446V89.1853H74.8701L74.8701 88.4446H80.0553Z" fill="#2C2C34"/>
<path d="M83.0181 86.2223H83.7588V91.4075H83.0181V86.2223Z" fill="#2C2C34"/>
<path d="M85.9811 88.4445V89.1853H80.7959L80.7959 88.4445H85.9811Z" fill="#2C2C34"/>
<path d="M88.9442 86.2223H89.6849V91.4075H88.9442V86.2223Z" fill="#2C2C34"/>
<path d="M91.9072 88.4445V89.1853H86.722L86.722 88.4445H91.9072Z" fill="#2C2C34"/>
<path d="M94.8701 86.2223H95.6109V91.4075H94.8701V86.2223Z" fill="#2C2C34"/>
<path d="M97.8331 88.4445V89.1853H92.6479L92.6479 88.4445H97.8331Z" fill="#2C2C34"/>
<path d="M100.796 86.2223H101.537V91.4075H100.796V86.2223Z" fill="#2C2C34"/>
<path d="M103.759 88.4445V89.1853H98.5738L98.5738 88.4445H103.759Z" fill="#2C2C34"/>
<path d="M106.722 86.2223H107.463V91.4075H106.722V86.2223Z" fill="#2C2C34"/>
<path d="M109.685 88.4445V89.1853H104.5L104.5 88.4445H109.685Z" fill="#2C2C34"/>
<path d="M112.648 86.2223H113.389V91.4075H112.648V86.2223Z" fill="#2C2C34"/>
<path d="M115.611 88.4445V89.1853H110.426L110.426 88.4445H115.611Z" fill="#2C2C34"/>
<path d="M118.574 86.2223H119.315V91.4075H118.574V86.2223Z" fill="#2C2C34"/>
<path d="M121.537 88.4445V89.1853H116.352L116.352 88.4445H121.537Z" fill="#2C2C34"/>
<path d="M0.0552609 92.1481H0.796002V97.3333H0.0552609V92.1481Z" fill="#2C2C34"/>
<path d="M3.01822 94.3703V95.1111H-2.16696L-2.16696 94.3703H3.01822Z" fill="#2C2C34"/>
<path d="M5.98123 92.148H6.72197V97.3332H5.98123V92.148Z" fill="#2C2C34"/>
<path d="M8.94419 94.3702V95.111H3.759L3.759 94.3702H8.94419Z" fill="#2C2C34"/>
<path d="M11.907 92.148H12.6477V97.3332H11.907V92.148Z" fill="#2C2C34"/>
<path d="M14.87 94.3702V95.111H9.68478L9.68478 94.3702H14.87Z" fill="#2C2C34"/>
<path d="M17.8332 92.148H18.5739V97.3332H17.8332V92.148Z" fill="#2C2C34"/>
<path d="M20.7962 94.3702V95.111H15.611L15.611 94.3702H20.7962Z" fill="#2C2C34"/>
<path d="M23.759 92.148H24.4997V97.3332H23.759V92.148Z" fill="#2C2C34"/>
<path d="M26.7219 94.3702V95.111H21.5368L21.5368 94.3702H26.7219Z" fill="#2C2C34"/>
<path d="M29.6849 92.148H30.4257V97.3332H29.6849V92.148Z" fill="#2C2C34"/>
<path d="M32.6479 94.3702V95.111H27.4627L27.4627 94.3702H32.6479Z" fill="#2C2C34"/>
<path d="M35.6108 92.148H36.3515V97.3332H35.6108V92.148Z" fill="#2C2C34"/>
<path d="M38.5738 94.3702V95.111H33.3886L33.3886 94.3702H38.5738Z" fill="#2C2C34"/>
<path d="M41.5369 92.148H42.2776V97.3332H41.5369V92.148Z" fill="#2C2C34"/>
<path d="M44.4999 94.3702V95.111H39.3147L39.3147 94.3702H44.4999Z" fill="#2C2C34"/>
<path d="M47.4627 92.148H48.2035V97.3332H47.4627V92.148Z" fill="#2C2C34"/>
<path d="M50.4257 94.3702V95.111H45.2405L45.2405 94.3702H50.4257Z" fill="#2C2C34"/>
<path d="M53.3885 92.148H54.1293V97.3332H53.3885V92.148Z" fill="#2C2C34"/>
<path d="M56.3515 94.3702V95.111H51.1663L51.1663 94.3702H56.3515Z" fill="#2C2C34"/>
<path d="M59.3145 92.1481H60.0553V97.3333H59.3145V92.1481Z" fill="#2C2C34"/>
<path d="M62.2775 94.3703V95.1111H57.0923L57.0923 94.3703H62.2775Z" fill="#2C2C34"/>
<path d="M65.2404 92.148H65.9811V97.3332H65.2404V92.148Z" fill="#2C2C34"/>
<path d="M68.2033 94.3702V95.111H63.0181L63.0181 94.3702H68.2033Z" fill="#2C2C34"/>
<path d="M71.1664 92.148H71.9072V97.3332H71.1664V92.148Z" fill="#2C2C34"/>
<path d="M74.1294 94.3702V95.111H68.9442L68.9442 94.3702H74.1294Z" fill="#2C2C34"/>
<path d="M77.0923 92.1481H77.8331V97.3333H77.0923V92.1481Z" fill="#2C2C34"/>
<path d="M80.0553 94.3703V95.1111H74.8701L74.8701 94.3703H80.0553Z" fill="#2C2C34"/>
<path d="M83.0181 92.148H83.7588V97.3332H83.0181V92.148Z" fill="#2C2C34"/>
<path d="M85.9811 94.3702V95.111H80.7959L80.7959 94.3702H85.9811Z" fill="#2C2C34"/>
<path d="M88.9442 92.148H89.6849V97.3332H88.9442V92.148Z" fill="#2C2C34"/>
<path d="M91.9072 94.3702V95.111H86.722L86.722 94.3702H91.9072Z" fill="#2C2C34"/>
<path d="M94.8701 92.148H95.6109V97.3332H94.8701V92.148Z" fill="#2C2C34"/>
<path d="M97.8331 94.3702V95.111H92.6479L92.6479 94.3702H97.8331Z" fill="#2C2C34"/>
<path d="M100.796 92.148H101.537V97.3332H100.796V92.148Z" fill="#2C2C34"/>
<path d="M103.759 94.3702V95.111H98.5738L98.5738 94.3702H103.759Z" fill="#2C2C34"/>
<path d="M106.722 92.148H107.463V97.3332H106.722V92.148Z" fill="#2C2C34"/>
<path d="M109.685 94.3702V95.111H104.5L104.5 94.3702H109.685Z" fill="#2C2C34"/>
<path d="M112.648 92.148H113.389V97.3332H112.648V92.148Z" fill="#2C2C34"/>
<path d="M115.611 94.3702V95.111H110.426L110.426 94.3702H115.611Z" fill="#2C2C34"/>
<path d="M118.574 92.148H119.315V97.3332H118.574V92.148Z" fill="#2C2C34"/>
<path d="M121.537 94.3702V95.111H116.352L116.352 94.3702H121.537Z" fill="#2C2C34"/>
<path d="M0.0552609 98.0742H0.796002V103.259H0.0552609V98.0742Z" fill="#2C2C34"/>
<path d="M3.01822 100.296V101.037H-2.16696L-2.16696 100.296H3.01822Z" fill="#2C2C34"/>
<path d="M5.98123 98.0742H6.72197V103.259H5.98123V98.0742Z" fill="#2C2C34"/>
<path d="M8.94419 100.296V101.037H3.759L3.759 100.296H8.94419Z" fill="#2C2C34"/>
<path d="M11.907 98.0742H12.6477V103.259H11.907V98.0742Z" fill="#2C2C34"/>
<path d="M14.87 100.296V101.037H9.68478L9.68478 100.296H14.87Z" fill="#2C2C34"/>
<path d="M17.8332 98.0742H18.5739V103.259H17.8332V98.0742Z" fill="#2C2C34"/>
<path d="M20.7962 100.296V101.037H15.611L15.611 100.296H20.7962Z" fill="#2C2C34"/>
<path d="M23.759 98.0742H24.4997V103.259H23.759V98.0742Z" fill="#2C2C34"/>
<path d="M26.7219 100.296V101.037H21.5368L21.5368 100.296H26.7219Z" fill="#2C2C34"/>
<path d="M29.6849 98.0742H30.4257V103.259H29.6849V98.0742Z" fill="#2C2C34"/>
<path d="M32.6479 100.296V101.037H27.4627L27.4627 100.296H32.6479Z" fill="#2C2C34"/>
<path d="M35.6108 98.0742H36.3515V103.259H35.6108V98.0742Z" fill="#2C2C34"/>
<path d="M38.5738 100.296V101.037H33.3886L33.3886 100.296H38.5738Z" fill="#2C2C34"/>
<path d="M41.5369 98.0742H42.2776V103.259H41.5369V98.0742Z" fill="#2C2C34"/>
<path d="M44.4999 100.296V101.037H39.3147L39.3147 100.296H44.4999Z" fill="#2C2C34"/>
<path d="M47.4627 98.0742H48.2035V103.259H47.4627V98.0742Z" fill="#2C2C34"/>
<path d="M50.4257 100.296V101.037H45.2405L45.2405 100.296H50.4257Z" fill="#2C2C34"/>
<path d="M53.3885 98.0742H54.1293V103.259H53.3885V98.0742Z" fill="#2C2C34"/>
<path d="M56.3515 100.296V101.037H51.1663L51.1663 100.296H56.3515Z" fill="#2C2C34"/>
<path d="M59.3145 98.0742H60.0553V103.259H59.3145V98.0742Z" fill="#2C2C34"/>
<path d="M62.2775 100.296V101.037H57.0923L57.0923 100.296H62.2775Z" fill="#2C2C34"/>
<path d="M65.2404 98.0742H65.9811V103.259H65.2404V98.0742Z" fill="#2C2C34"/>
<path d="M68.2033 100.296V101.037H63.0181L63.0181 100.296H68.2033Z" fill="#2C2C34"/>
<path d="M71.1664 98.0742H71.9072V103.259H71.1664V98.0742Z" fill="#2C2C34"/>
<path d="M74.1294 100.296V101.037H68.9442L68.9442 100.296H74.1294Z" fill="#2C2C34"/>
<path d="M77.0923 98.0742H77.8331V103.259H77.0923V98.0742Z" fill="#2C2C34"/>
<path d="M80.0553 100.296V101.037H74.8701L74.8701 100.296H80.0553Z" fill="#2C2C34"/>
<path d="M83.0181 98.0742H83.7588V103.259H83.0181V98.0742Z" fill="#2C2C34"/>
<path d="M85.9811 100.296V101.037H80.7959L80.7959 100.296H85.9811Z" fill="#2C2C34"/>
<path d="M88.9442 98.0742H89.6849V103.259H88.9442V98.0742Z" fill="#2C2C34"/>
<path d="M91.9072 100.296V101.037H86.722L86.722 100.296H91.9072Z" fill="#2C2C34"/>
<path d="M94.8701 98.0742H95.6109V103.259H94.8701V98.0742Z" fill="#2C2C34"/>
<path d="M97.8331 100.296V101.037H92.6479L92.6479 100.296H97.8331Z" fill="#2C2C34"/>
<path d="M100.796 98.0742H101.537V103.259H100.796V98.0742Z" fill="#2C2C34"/>
<path d="M103.759 100.296V101.037H98.5738L98.5738 100.296H103.759Z" fill="#2C2C34"/>
<path d="M106.722 98.0742H107.463V103.259H106.722V98.0742Z" fill="#2C2C34"/>
<path d="M109.685 100.296V101.037H104.5L104.5 100.296H109.685Z" fill="#2C2C34"/>
<path d="M112.648 98.0742H113.389V103.259H112.648V98.0742Z" fill="#2C2C34"/>
<path d="M115.611 100.296V101.037H110.426L110.426 100.296H115.611Z" fill="#2C2C34"/>
<path d="M118.574 98.0742H119.315V103.259H118.574V98.0742Z" fill="#2C2C34"/>
<path d="M121.537 100.296V101.037H116.352L116.352 100.296H121.537Z" fill="#2C2C34"/>
<path d="M0.0552609 104H0.796002V109.185H0.0552609V104Z" fill="#2C2C34"/>
<path d="M3.01822 106.222V106.963H-2.16696L-2.16696 106.222H3.01822Z" fill="#2C2C34"/>
<path d="M5.98123 104H6.72197V109.185H5.98123V104Z" fill="#2C2C34"/>
<path d="M8.94419 106.222V106.963H3.759L3.759 106.222H8.94419Z" fill="#2C2C34"/>
<path d="M11.907 104H12.6477V109.185H11.907V104Z" fill="#2C2C34"/>
<path d="M14.87 106.222V106.963H9.68478L9.68478 106.222H14.87Z" fill="#2C2C34"/>
<path d="M17.8332 104H18.5739V109.185H17.8332V104Z" fill="#2C2C34"/>
<path d="M20.7962 106.222V106.963H15.611L15.611 106.222H20.7962Z" fill="#2C2C34"/>
<path d="M23.759 104H24.4997V109.185H23.759V104Z" fill="#2C2C34"/>
<path d="M26.7219 106.222V106.963H21.5368L21.5368 106.222H26.7219Z" fill="#2C2C34"/>
<path d="M29.6849 104H30.4257V109.185H29.6849V104Z" fill="#2C2C34"/>
<path d="M32.6479 106.222V106.963H27.4627L27.4627 106.222H32.6479Z" fill="#2C2C34"/>
<path d="M35.6108 104H36.3515V109.185H35.6108V104Z" fill="#2C2C34"/>
<path d="M38.5738 106.222V106.963H33.3886L33.3886 106.222H38.5738Z" fill="#2C2C34"/>
<path d="M41.5369 104H42.2776V109.185H41.5369V104Z" fill="#2C2C34"/>
<path d="M44.4999 106.222V106.963H39.3147L39.3147 106.222H44.4999Z" fill="#2C2C34"/>
<path d="M47.4627 104H48.2035V109.185H47.4627V104Z" fill="#2C2C34"/>
<path d="M50.4257 106.222V106.963H45.2405L45.2405 106.222H50.4257Z" fill="#2C2C34"/>
<path d="M53.3885 104H54.1293V109.185H53.3885V104Z" fill="#2C2C34"/>
<path d="M56.3515 106.222V106.963H51.1663L51.1663 106.222H56.3515Z" fill="#2C2C34"/>
<path d="M59.3145 104H60.0553V109.185H59.3145V104Z" fill="#2C2C34"/>
<path d="M62.2775 106.222V106.963H57.0923L57.0923 106.222H62.2775Z" fill="#2C2C34"/>
<path d="M65.2404 104H65.9811V109.185H65.2404V104Z" fill="#2C2C34"/>
<path d="M68.2033 106.222V106.963H63.0181L63.0181 106.222H68.2033Z" fill="#2C2C34"/>
<path d="M71.1664 104H71.9072V109.185H71.1664V104Z" fill="#2C2C34"/>
<path d="M74.1294 106.222V106.963H68.9442L68.9442 106.222H74.1294Z" fill="#2C2C34"/>
<path d="M77.0923 104H77.8331V109.185H77.0923V104Z" fill="#2C2C34"/>
<path d="M80.0553 106.222V106.963H74.8701L74.8701 106.222H80.0553Z" fill="#2C2C34"/>
<path d="M83.0181 104H83.7588V109.185H83.0181V104Z" fill="#2C2C34"/>
<path d="M85.9811 106.222V106.963H80.7959L80.7959 106.222H85.9811Z" fill="#2C2C34"/>
<path d="M88.9442 104H89.6849V109.185H88.9442V104Z" fill="#2C2C34"/>
<path d="M91.9072 106.222V106.963H86.722L86.722 106.222H91.9072Z" fill="#2C2C34"/>
<path d="M94.8701 104H95.6109V109.185H94.8701V104Z" fill="#2C2C34"/>
<path d="M97.8331 106.222V106.963H92.6479L92.6479 106.222H97.8331Z" fill="#2C2C34"/>
<path d="M100.796 104H101.537V109.185H100.796V104Z" fill="#2C2C34"/>
<path d="M103.759 106.222V106.963H98.5738L98.5738 106.222H103.759Z" fill="#2C2C34"/>
<path d="M106.722 104H107.463V109.185H106.722V104Z" fill="#2C2C34"/>
<path d="M109.685 106.222V106.963H104.5L104.5 106.222H109.685Z" fill="#2C2C34"/>
<path d="M112.648 104H113.389V109.185H112.648V104Z" fill="#2C2C34"/>
<path d="M115.611 106.222V106.963H110.426L110.426 106.222H115.611Z" fill="#2C2C34"/>
<path d="M118.574 104H119.315V109.185H118.574V104Z" fill="#2C2C34"/>
<path d="M121.537 106.222V106.963H116.352L116.352 106.222H121.537Z" fill="#2C2C34"/>
<path d="M0.0552609 109.926H0.796002V115.111H0.0552609V109.926Z" fill="#2C2C34"/>
<path d="M3.01822 112.148V112.889H-2.16696L-2.16696 112.148H3.01822Z" fill="#2C2C34"/>
<path d="M5.98123 109.926H6.72197V115.111H5.98123V109.926Z" fill="#2C2C34"/>
<path d="M8.94419 112.148V112.889H3.759L3.759 112.148H8.94419Z" fill="#2C2C34"/>
<path d="M11.907 109.926H12.6477V115.111H11.907V109.926Z" fill="#2C2C34"/>
<path d="M14.87 112.148V112.889H9.68478L9.68478 112.148H14.87Z" fill="#2C2C34"/>
<path d="M17.8332 109.926H18.5739V115.111H17.8332V109.926Z" fill="#2C2C34"/>
<path d="M20.7962 112.148V112.889H15.611L15.611 112.148H20.7962Z" fill="#2C2C34"/>
<path d="M23.759 109.926H24.4997V115.111H23.759V109.926Z" fill="#2C2C34"/>
<path d="M26.7219 112.148V112.889H21.5368L21.5368 112.148H26.7219Z" fill="#2C2C34"/>
<path d="M29.6849 109.926H30.4257V115.111H29.6849V109.926Z" fill="#2C2C34"/>
<path d="M32.6479 112.148V112.889H27.4627L27.4627 112.148H32.6479Z" fill="#2C2C34"/>
<path d="M35.6108 109.926H36.3515V115.111H35.6108V109.926Z" fill="#2C2C34"/>
<path d="M38.5738 112.148V112.889H33.3886L33.3886 112.148H38.5738Z" fill="#2C2C34"/>
<path d="M41.5369 109.926H42.2776V115.111H41.5369V109.926Z" fill="#2C2C34"/>
<path d="M44.4999 112.148V112.889H39.3147L39.3147 112.148H44.4999Z" fill="#2C2C34"/>
<path d="M47.4627 109.926H48.2035V115.111H47.4627V109.926Z" fill="#2C2C34"/>
<path d="M50.4257 112.148V112.889H45.2405L45.2405 112.148H50.4257Z" fill="#2C2C34"/>
<path d="M53.3885 109.926H54.1293V115.111H53.3885V109.926Z" fill="#2C2C34"/>
<path d="M56.3515 112.148V112.889H51.1663L51.1663 112.148H56.3515Z" fill="#2C2C34"/>
<path d="M59.3145 109.926H60.0553V115.111H59.3145V109.926Z" fill="#2C2C34"/>
<path d="M62.2775 112.148V112.889H57.0923L57.0923 112.148H62.2775Z" fill="#2C2C34"/>
<path d="M65.2404 109.926H65.9811V115.111H65.2404V109.926Z" fill="#2C2C34"/>
<path d="M68.2033 112.148V112.889H63.0181L63.0181 112.148H68.2033Z" fill="#2C2C34"/>
<path d="M71.1664 109.926H71.9072V115.111H71.1664V109.926Z" fill="#2C2C34"/>
<path d="M74.1294 112.148V112.889H68.9442L68.9442 112.148H74.1294Z" fill="#2C2C34"/>
<path d="M77.0923 109.926H77.8331V115.111H77.0923V109.926Z" fill="#2C2C34"/>
<path d="M80.0553 112.148V112.889H74.8701L74.8701 112.148H80.0553Z" fill="#2C2C34"/>
<path d="M83.0181 109.926H83.7588V115.111H83.0181V109.926Z" fill="#2C2C34"/>
<path d="M85.9811 112.148V112.889H80.7959L80.7959 112.148H85.9811Z" fill="#2C2C34"/>
<path d="M88.9442 109.926H89.6849V115.111H88.9442V109.926Z" fill="#2C2C34"/>
<path d="M91.9072 112.148V112.889H86.722L86.722 112.148H91.9072Z" fill="#2C2C34"/>
<path d="M94.8701 109.926H95.6109V115.111H94.8701V109.926Z" fill="#2C2C34"/>
<path d="M97.8331 112.148V112.889H92.6479L92.6479 112.148H97.8331Z" fill="#2C2C34"/>
<path d="M100.796 109.926H101.537V115.111H100.796V109.926Z" fill="#2C2C34"/>
<path d="M103.759 112.148V112.889H98.5738L98.5738 112.148H103.759Z" fill="#2C2C34"/>
<path d="M106.722 109.926H107.463V115.111H106.722V109.926Z" fill="#2C2C34"/>
<path d="M109.685 112.148V112.889H104.5L104.5 112.148H109.685Z" fill="#2C2C34"/>
<path d="M112.648 109.926H113.389V115.111H112.648V109.926Z" fill="#2C2C34"/>
<path d="M115.611 112.148V112.889H110.426L110.426 112.148H115.611Z" fill="#2C2C34"/>
<path d="M118.574 109.926H119.315V115.111H118.574V109.926Z" fill="#2C2C34"/>
<path d="M121.537 112.148V112.889H116.352L116.352 112.148H121.537Z" fill="#2C2C34"/>
<path d="M0.0552609 115.852H0.796002V121.037H0.0552609V115.852Z" fill="#2C2C34"/>
<path d="M3.01822 118.074V118.815H-2.16696L-2.16696 118.074H3.01822Z" fill="#2C2C34"/>
<path d="M5.98123 115.852H6.72197V121.037H5.98123V115.852Z" fill="#2C2C34"/>
<path d="M8.94419 118.074V118.815H3.759L3.759 118.074H8.94419Z" fill="#2C2C34"/>
<path d="M11.907 115.852H12.6477V121.037H11.907V115.852Z" fill="#2C2C34"/>
<path d="M14.87 118.074V118.815H9.68478L9.68478 118.074H14.87Z" fill="#2C2C34"/>
<path d="M17.8332 115.852H18.5739V121.037H17.8332V115.852Z" fill="#2C2C34"/>
<path d="M20.7962 118.074V118.815H15.611L15.611 118.074H20.7962Z" fill="#2C2C34"/>
<path d="M23.759 115.852H24.4997V121.037H23.759V115.852Z" fill="#2C2C34"/>
<path d="M26.7219 118.074V118.815H21.5368L21.5368 118.074H26.7219Z" fill="#2C2C34"/>
<path d="M29.6849 115.852H30.4257V121.037H29.6849V115.852Z" fill="#2C2C34"/>
<path d="M32.6479 118.074V118.815H27.4627L27.4627 118.074H32.6479Z" fill="#2C2C34"/>
<path d="M35.6108 115.852H36.3515V121.037H35.6108V115.852Z" fill="#2C2C34"/>
<path d="M38.5738 118.074V118.815H33.3886L33.3886 118.074H38.5738Z" fill="#2C2C34"/>
<path d="M41.5369 115.852H42.2776V121.037H41.5369V115.852Z" fill="#2C2C34"/>
<path d="M44.4999 118.074V118.815H39.3147L39.3147 118.074H44.4999Z" fill="#2C2C34"/>
<path d="M47.4627 115.852H48.2035V121.037H47.4627V115.852Z" fill="#2C2C34"/>
<path d="M50.4257 118.074V118.815H45.2405L45.2405 118.074H50.4257Z" fill="#2C2C34"/>
<path d="M53.3885 115.852H54.1293V121.037H53.3885V115.852Z" fill="#2C2C34"/>
<path d="M56.3515 118.074V118.815H51.1663L51.1663 118.074H56.3515Z" fill="#2C2C34"/>
<path d="M59.3145 115.852H60.0553V121.037H59.3145V115.852Z" fill="#2C2C34"/>
<path d="M62.2775 118.074V118.815H57.0923L57.0923 118.074H62.2775Z" fill="#2C2C34"/>
<path d="M65.2404 115.852H65.9811V121.037H65.2404V115.852Z" fill="#2C2C34"/>
<path d="M68.2033 118.074V118.815H63.0181L63.0181 118.074H68.2033Z" fill="#2C2C34"/>
<path d="M71.1664 115.852H71.9072V121.037H71.1664V115.852Z" fill="#2C2C34"/>
<path d="M74.1294 118.074V118.815H68.9442L68.9442 118.074H74.1294Z" fill="#2C2C34"/>
<path d="M77.0923 115.852H77.8331V121.037H77.0923V115.852Z" fill="#2C2C34"/>
<path d="M80.0553 118.074V118.815H74.8701L74.8701 118.074H80.0553Z" fill="#2C2C34"/>
<path d="M83.0181 115.852H83.7588V121.037H83.0181V115.852Z" fill="#2C2C34"/>
<path d="M85.9811 118.074V118.815H80.7959L80.7959 118.074H85.9811Z" fill="#2C2C34"/>
<path d="M88.9442 115.852H89.6849V121.037H88.9442V115.852Z" fill="#2C2C34"/>
<path d="M91.9072 118.074V118.815H86.722L86.722 118.074H91.9072Z" fill="#2C2C34"/>
<path d="M94.8701 115.852H95.6109V121.037H94.8701V115.852Z" fill="#2C2C34"/>
<path d="M97.8331 118.074V118.815H92.6479L92.6479 118.074H97.8331Z" fill="#2C2C34"/>
<path d="M100.796 115.852H101.537V121.037H100.796V115.852Z" fill="#2C2C34"/>
<path d="M103.759 118.074V118.815H98.5738L98.5738 118.074H103.759Z" fill="#2C2C34"/>
<path d="M106.722 115.852H107.463V121.037H106.722V115.852Z" fill="#2C2C34"/>
<path d="M109.685 118.074V118.815H104.5L104.5 118.074H109.685Z" fill="#2C2C34"/>
<path d="M112.648 115.852H113.389V121.037H112.648V115.852Z" fill="#2C2C34"/>
<path d="M115.611 118.074V118.815H110.426L110.426 118.074H115.611Z" fill="#2C2C34"/>
<path d="M118.574 115.852H119.315V121.037H118.574V115.852Z" fill="#2C2C34"/>
<path d="M121.537 118.074V118.815H116.352L116.352 118.074H121.537Z" fill="#2C2C34"/>
</g>
<rect x="15" y="21" width="50.3371" height="46.3733" rx="5.33333" fill="white"/>
<path d="M49.4366 50.1626V55.1866H29.6285V51.2826C29.6285 50.2586 29.7352 49.3413 29.9485 48.5306C30.1619 47.72 30.5352 46.9733 31.0685 46.2906C31.6019 45.5866 32.3059 44.9146 33.1805 44.2746C34.0765 43.6133 35.1965 42.9306 36.5405 42.2266L41.6285 39.5706C42.1832 39.2933 42.5779 39.0266 42.8125 38.7706C43.0472 38.4933 43.1645 38.152 43.1645 37.7466C43.1645 37.1493 42.9619 36.744 42.5565 36.5306C42.1512 36.3173 41.6072 36.2106 40.9245 36.2106H30.1405V31.1866H41.4685C44.3272 31.1866 46.4179 31.7093 47.7405 32.7546C49.0632 33.7786 49.7246 35.1866 49.7246 36.9786C49.7246 37.9813 49.5752 38.8453 49.2766 39.5706C48.9779 40.296 48.5299 40.9466 47.9326 41.5226C47.3566 42.0986 46.6419 42.6533 45.7885 43.1866C44.9352 43.6986 43.9539 44.2533 42.8445 44.8506L38.2045 47.3786C37.4792 47.7626 37.0099 48.1146 36.7965 48.4346C36.6045 48.7546 36.5085 49.1173 36.5085 49.5226V50.1626H49.4366Z" fill="#15151E"/>
<g clip-path="url(#clip1_4128_91643)">
<path d="M106.761 67.9832C99.9775 67.1302 93.1936 66.2773 86.3899 65.4215C86.3771 65.5889 86.3658 65.6613 86.3658 65.7351C86.3644 69.8892 86.3729 74.0432 86.3516 78.1973C86.3502 78.6032 86.5744 78.7025 86.8441 78.8373C92.511 81.6687 98.1765 84.5014 103.843 87.3342C105.261 88.0424 106.002 87.8181 106.761 86.4528C106.761 80.2963 106.761 74.1397 106.761 67.9832ZM81.4255 64.8197C80.3398 64.7644 79.5763 65.4768 79.5706 66.5682C79.5564 69.0603 79.545 71.5525 79.5862 74.0432C79.5933 74.4605 79.748 75.0452 80.0446 75.2552C80.9302 75.8825 81.9208 76.3622 82.9441 76.9427C82.9441 72.8624 82.9441 68.9582 82.9441 65.0042C82.4303 64.9389 81.9293 64.8453 81.4255 64.8197Z" fill="#44444B"/>
<path d="M75.7104 40.3349C76.843 40.3349 77.9769 40.3349 79.1095 40.3349C79.2925 40.369 79.4756 40.4073 79.6601 40.4385C81.5732 40.7621 83.536 40.9054 85.3895 41.4362C95.2005 44.2448 101.869 50.4922 105.359 60.0861C105.869 61.4869 106.167 62.9643 106.587 64.4942C106.216 64.4658 106.011 64.4602 105.809 64.4346C102.646 64.0372 99.4823 63.6328 96.3189 63.2368C91.6199 62.6492 86.9166 62.0943 82.2204 61.477C78.8639 61.0356 76.1731 63.3234 76.166 66.7125C76.1603 69.0159 76.1972 71.3207 76.1561 73.624C76.1107 76.1247 77.2134 77.8434 79.4444 78.9504C87.0273 82.7155 94.5931 86.5134 102.166 90.2998C102.348 90.3907 102.528 90.4872 102.722 90.5894C102.065 92.8559 100.995 94.82 99.1133 96.2378C95.9556 98.6165 92.5423 98.9315 88.9106 97.4314C76.6613 92.3719 64.4078 87.3252 52.1571 82.2728C49.9162 81.3503 48.7468 79.6018 48.7425 77.1707C48.7397 74.9042 48.7652 72.6377 48.7368 70.3726C48.6957 67.0204 49.1697 63.752 50.2752 60.5843C51.8094 56.1932 54.1795 52.3074 57.3827 48.9339C61.4785 44.6181 66.3649 41.7371 72.2972 40.7862C73.4298 40.6046 74.5722 40.4839 75.7104 40.3349ZM62.4862 64.3551C58.7338 64.341 55.6669 67.3823 55.6555 71.1291C55.6456 74.8687 58.7082 77.9441 62.4479 77.947C66.1648 77.9498 69.226 74.9099 69.2502 71.1929C69.2743 67.4462 66.2301 64.3679 62.4862 64.3551ZM59.0574 71.122C59.0389 72.9826 60.61 74.5593 62.4692 74.5451C64.3156 74.5309 65.8497 72.9868 65.8483 71.1461C65.8469 69.2983 64.3156 67.7627 62.4649 67.757C60.6157 67.7499 59.0758 69.2713 59.0574 71.122Z" fill="#E10600"/>
</g>
</g>
<defs>
<clipPath id="clip0_4128_91643">
<rect width="120" height="120" fill="white" transform="translate(0.5)"/>
</clipPath>
<clipPath id="clip1_4128_91643">
<rect width="58.0261" height="58.0105" fill="white" transform="translate(48.7344 40.3349)"/>
</clipPath>
</defs>
</svg>
